{"glyphs":{"0":{"ha":669,"x_min":34,"x_max":631,"o":"m 38 610 q 45 707 42 652 q 58 820 47 761 q 87 937 68 879 q 145 1044 107 996 q 190 1100 167 1074 q 245 1143 213 1126 q 320 1168 277 1160 q 427 1171 363 1176 q 496 1136 467 1168 q 549 1055 526 1104 q 587 945 571 1006 q 612 820 602 883 q 626 697 621 757 q 631 591 631 637 q 629 450 631 522 q 618 312 628 378 q 586 187 608 245 q 526 86 564 129 q 428 21 487 43 q 283 3 369 -1 q 185 39 227 5 q 115 125 144 73 q 70 242 87 178 q 44 373 53 307 q 35 502 35 439 q 38 610 34 564 m 197 628 q 195 534 194 587 q 201 427 195 481 q 218 317 206 372 q 248 218 229 263 q 292 144 266 174 q 355 106 319 114 q 440 114 406 95 q 497 172 475 133 q 531 264 519 212 q 547 372 543 317 q 552 480 552 427 q 552 571 552 533 q 547 675 552 618 q 532 790 541 732 q 511 901 524 848 q 484 996 499 955 q 449 1063 468 1038 q 410 1089 430 1088 q 309 1050 349 1090 q 247 942 270 1009 q 213 792 224 875 q 197 628 202 709 z "},"1":{"ha":696,"x_min":23,"x_max":670,"o":"m 23 104 q 24 138 23 122 q 33 165 26 155 q 51 178 39 176 q 83 168 62 180 q 119 146 99 159 q 163 127 138 134 q 216 121 187 121 q 275 137 244 122 q 302 264 292 190 q 317 422 312 338 q 326 597 323 507 q 328 772 328 686 q 328 932 328 857 q 327 1061 327 1006 q 304 1053 317 1061 q 276 1035 290 1046 q 249 1013 262 1024 q 229 994 236 1001 q 218 976 225 990 q 203 947 212 962 q 181 922 194 932 q 153 915 168 911 q 117 941 137 918 q 75 1013 98 963 q 62 1067 57 1051 q 86 1088 68 1084 q 128 1088 104 1092 q 171 1085 152 1085 q 210 1093 190 1085 q 251 1114 231 1101 q 290 1139 271 1126 q 328 1162 309 1153 q 414 1171 385 1194 q 446 1062 444 1147 q 438 966 444 1028 q 427 824 433 903 q 418 654 422 745 q 412 473 414 564 q 414 298 411 382 q 429 145 418 213 q 493 149 460 148 q 549 168 526 149 q 599 201 576 190 q 637 205 621 212 q 661 174 652 199 q 669 100 670 149 q 659 40 667 58 q 635 19 650 22 q 603 24 621 16 q 564 43 585 33 q 535 50 556 47 q 486 54 514 53 q 425 54 458 56 q 358 52 392 53 q 290 46 326 49 q 222 39 254 43 q 167 30 191 35 q 133 18 142 24 q 71 -3 92 -9 q 39 24 49 3 q 26 70 28 45 q 23 104 23 95 z "},"2":{"ha":571,"x_min":31,"x_max":547,"o":"m 132 3 q 68 9 91 0 q 39 37 46 19 q 39 81 33 56 q 62 136 46 106 q 157 357 110 247 q 244 567 203 467 q 317 754 285 667 q 366 905 349 841 q 384 1004 384 968 q 361 1040 384 1040 q 321 1031 343 1040 q 278 1007 300 1021 q 239 975 256 993 q 216 943 222 958 q 197 904 209 929 q 166 863 184 879 q 125 852 148 848 q 75 903 102 857 q 40 974 49 948 q 35 1013 31 1000 q 52 1031 38 1027 q 83 1036 65 1035 q 121 1037 102 1036 q 157 1044 141 1038 q 209 1080 184 1057 q 262 1126 233 1104 q 325 1162 290 1149 q 408 1166 359 1176 q 486 1107 467 1156 q 498 985 506 1058 q 463 821 491 911 q 395 638 434 731 q 314 455 357 545 q 237 292 271 365 q 180 171 202 220 q 163 111 159 122 q 220 108 184 109 q 291 108 256 107 q 352 109 326 109 q 384 111 378 110 q 413 125 396 114 q 447 147 430 136 q 481 168 464 159 q 511 179 498 178 q 532 170 524 180 q 543 130 541 159 q 544 19 547 53 q 525 -21 541 -15 q 473 -14 509 -27 q 376 19 438 0 q 342 20 365 22 q 286 15 319 19 q 214 7 254 11 q 132 3 175 4 z "},"3":{"ha":670,"x_min":22,"x_max":648,"o":"m 137 119 q 115 125 136 121 q 73 140 95 130 q 36 166 50 151 q 34 202 22 182 q 56 232 41 214 q 88 266 71 250 q 124 294 106 282 q 157 309 142 307 q 173 312 164 311 q 191 304 182 313 q 206 270 199 294 q 216 194 213 245 q 234 161 217 176 q 275 134 251 145 q 322 117 298 123 q 359 109 346 110 q 447 140 415 104 q 493 232 479 176 q 509 351 507 288 q 506 464 510 415 q 487 570 502 514 q 446 676 472 625 q 385 768 420 727 q 305 830 350 810 q 285 848 290 837 q 281 870 279 859 q 289 891 282 882 q 308 905 296 901 q 347 926 328 911 q 379 957 365 940 q 401 992 393 974 q 410 1025 410 1010 q 402 1046 410 1040 q 375 1053 395 1053 q 321 1052 355 1054 q 235 1048 288 1050 q 201 1040 214 1048 q 176 1021 187 1031 q 157 1002 165 1010 q 137 991 148 993 q 109 997 118 989 q 95 1017 99 1005 q 91 1044 91 1029 q 91 1072 91 1059 q 90 1094 91 1080 q 92 1122 90 1108 q 99 1147 94 1137 q 117 1158 104 1158 q 142 1154 130 1158 q 165 1145 153 1150 q 188 1135 176 1139 q 212 1128 199 1130 q 264 1128 232 1127 q 333 1131 297 1130 q 405 1129 369 1131 q 470 1117 441 1127 q 517 1088 499 1107 q 536 1038 536 1070 q 529 1014 536 1032 q 506 971 522 996 q 462 920 490 947 q 393 872 434 894 q 505 782 458 836 q 580 672 551 728 q 623 564 609 616 q 640 481 637 513 q 643 317 648 401 q 608 163 637 233 q 517 50 578 94 q 355 5 457 5 q 257 29 312 5 q 137 119 202 53 z "},"4":{"ha":681,"x_min":18,"x_max":665,"o":"m 473 602 q 299 598 385 600 q 148 602 213 597 q 108 615 133 604 q 80 646 83 627 q 77 692 79 662 q 74 758 76 722 q 71 832 72 793 q 66 904 69 871 q 61 961 64 937 q 54 991 58 985 q 20 1073 23 1046 q 34 1111 18 1100 q 81 1121 50 1122 q 146 1119 111 1120 q 194 1099 187 1116 q 193 1060 201 1082 q 170 1017 184 1038 q 155 985 156 996 q 153 956 153 979 q 153 902 152 933 q 155 836 153 871 q 159 772 156 802 q 165 723 161 742 q 176 704 170 704 q 244 703 206 704 q 321 700 282 701 q 399 697 361 699 q 471 696 438 696 q 473 762 472 724 q 473 838 473 799 q 470 916 472 878 q 466 985 468 955 q 462 1036 464 1016 q 457 1058 460 1055 q 416 1108 425 1086 q 417 1144 407 1130 q 454 1166 427 1158 q 517 1172 480 1173 q 606 1149 590 1169 q 583 1076 623 1130 q 557 955 560 1043 q 560 699 553 867 q 644 721 623 739 q 656 650 665 703 q 649 608 652 625 q 637 582 646 590 q 614 576 629 574 q 574 594 600 578 q 573 465 574 536 q 574 328 572 393 q 580 211 576 262 q 591 142 583 160 q 607 114 598 125 q 623 93 616 103 q 634 71 629 83 q 639 39 639 58 q 608 9 639 20 q 541 -4 578 -3 q 472 3 505 -5 q 434 30 439 11 q 434 50 431 39 q 443 73 437 61 q 456 99 449 85 q 468 129 464 113 q 477 201 473 149 q 481 321 480 254 q 480 463 481 388 q 473 602 479 537 z "},"5":{"ha":642,"x_min":19,"x_max":631,"o":"m 138 66 q 28 106 38 66 q 80 221 19 145 q 108 253 92 237 q 138 269 123 269 q 168 244 153 269 q 195 153 183 220 q 212 133 197 142 q 245 117 227 123 q 284 108 264 111 q 316 104 304 104 q 379 127 349 104 q 432 189 410 149 q 467 283 454 228 q 475 404 479 339 q 445 527 469 480 q 376 595 420 574 q 266 615 331 617 q 115 593 201 613 q 81 611 94 587 q 62 674 68 635 q 55 764 56 713 q 56 860 54 814 q 60 943 58 906 q 62 996 62 981 q 64 1017 62 1005 q 71 1038 65 1028 q 90 1054 77 1047 q 123 1063 102 1061 q 220 1072 170 1069 q 320 1080 271 1076 q 414 1090 369 1084 q 496 1109 460 1097 q 525 1126 514 1115 q 544 1148 536 1137 q 560 1167 552 1160 q 581 1175 568 1175 q 610 1157 600 1173 q 626 1116 621 1141 q 629 1064 631 1092 q 622 1013 628 1036 q 606 972 616 989 q 583 956 595 956 q 568 962 575 956 q 553 974 560 967 q 538 988 545 981 q 522 998 530 996 q 469 1005 507 1004 q 382 1003 430 1006 q 283 994 335 1000 q 190 979 232 987 q 157 938 165 975 q 146 853 148 901 q 146 760 144 806 q 149 692 149 713 q 319 703 240 709 q 458 665 399 697 q 555 574 518 633 q 595 427 591 515 q 579 217 601 300 q 518 86 557 134 q 425 19 479 38 q 311 0 370 0 q 256 10 282 0 q 208 33 231 20 q 168 56 186 46 q 138 66 151 66 z "},"6":{"ha":636,"x_min":35,"x_max":600,"o":"m 301 5 q 169 49 221 11 q 87 142 117 87 q 46 262 57 197 q 37 387 35 327 q 64 616 41 517 q 120 791 87 716 q 191 917 153 865 q 262 1003 229 968 q 319 1057 296 1038 q 345 1086 342 1076 q 378 1155 361 1139 q 412 1166 395 1171 q 444 1144 429 1161 q 469 1115 458 1127 q 503 1062 498 1082 q 496 1030 507 1042 q 465 1013 486 1019 q 420 1006 444 1008 q 370 979 400 1005 q 308 909 340 952 q 244 806 275 865 q 191 680 213 747 q 159 539 168 612 q 159 395 149 467 q 258 436 206 422 q 359 450 309 450 q 453 435 408 450 q 530 391 498 420 q 581 314 563 361 q 597 205 600 267 q 566 111 594 151 q 496 47 538 72 q 403 12 454 23 q 301 5 351 1 m 172 255 q 188 195 172 220 q 228 153 203 170 q 283 127 252 136 q 343 119 313 119 q 442 152 404 119 q 480 245 480 184 q 457 307 479 282 q 401 346 435 332 q 329 361 368 359 q 256 351 290 362 q 199 315 222 339 q 172 255 175 292 z "},"7":{"ha":614,"x_min":26,"x_max":605,"o":"m 346 0 q 275 18 296 7 q 252 41 254 28 q 260 67 250 53 q 286 94 271 81 q 313 119 300 107 q 328 141 327 132 q 361 277 346 199 q 388 440 376 355 q 410 613 400 525 q 427 781 419 701 q 443 926 435 860 q 457 1036 450 993 q 349 1034 403 1036 q 250 1027 294 1031 q 176 1019 205 1023 q 144 1012 146 1015 q 89 975 110 981 q 55 977 68 968 q 37 1005 42 986 q 28 1044 31 1024 q 26 1097 26 1066 q 35 1146 26 1127 q 64 1163 43 1165 q 121 1120 84 1161 q 167 1115 127 1114 q 263 1122 206 1116 q 387 1137 320 1128 q 517 1154 454 1146 q 541 1155 525 1156 q 572 1147 556 1154 q 596 1122 587 1139 q 600 1072 605 1104 q 526 679 559 856 q 471 374 494 502 q 437 175 449 247 q 426 98 426 103 q 432 48 426 69 q 435 14 438 27 q 414 -3 433 1 q 346 0 396 -7 z "},"8":{"ha":665,"x_min":19,"x_max":628,"o":"m 24 377 q 28 512 19 448 q 59 631 38 576 q 111 730 80 686 q 182 803 142 774 q 122 903 138 844 q 118 1018 106 962 q 172 1117 130 1074 q 289 1166 214 1160 q 378 1154 336 1171 q 449 1105 419 1137 q 496 1034 479 1074 q 511 952 513 994 q 489 871 510 910 q 422 804 468 833 q 568 646 511 739 q 627 434 624 553 q 610 247 628 330 q 555 107 593 164 q 459 20 517 50 q 326 -7 401 -9 q 212 21 264 -5 q 121 96 160 47 q 56 216 81 145 q 24 377 31 288 m 311 760 q 223 688 259 743 q 169 562 187 633 q 151 409 151 490 q 172 260 151 328 q 239 147 194 193 q 353 99 283 102 q 443 124 407 96 q 500 200 479 152 q 530 313 522 248 q 533 446 537 377 q 511 547 530 495 q 462 643 492 598 q 392 720 431 688 q 311 760 353 751 m 289 1077 q 217 1038 240 1070 q 194 968 194 1005 q 216 898 194 930 q 278 857 237 865 q 315 861 294 854 q 353 882 335 867 q 385 922 372 898 q 397 978 397 945 q 386 1040 397 1019 q 358 1070 374 1061 q 323 1079 342 1080 q 289 1077 304 1078 z "},"9":{"ha":627,"x_min":33,"x_max":616,"o":"m 245 56 q 229 43 241 54 q 201 19 217 31 q 166 -1 184 7 q 132 -3 148 -8 q 104 26 115 3 q 90 102 92 50 q 92 150 87 134 q 108 171 98 165 q 132 174 118 176 q 159 168 145 172 q 186 161 172 164 q 209 161 199 157 q 370 264 311 197 q 459 411 429 332 q 498 569 490 490 q 507 705 507 648 q 417 679 469 688 q 305 670 365 670 q 206 690 255 670 q 119 746 157 711 q 56 829 80 781 q 33 932 33 876 q 45 1019 33 977 q 85 1095 58 1062 q 151 1149 111 1128 q 244 1171 191 1171 q 397 1149 328 1171 q 513 1081 465 1128 q 589 958 562 1034 q 616 772 616 882 q 593 513 616 627 q 525 311 571 399 q 409 161 479 224 q 245 56 339 98 m 271 1089 q 201 1065 228 1089 q 163 1006 175 1042 q 157 928 152 970 q 181 850 161 886 q 235 789 201 814 q 319 764 270 765 q 380 768 347 764 q 439 784 412 773 q 484 814 467 795 q 500 861 502 833 q 474 977 498 932 q 416 1046 450 1021 q 342 1080 381 1072 q 271 1089 304 1089 z "}," ":{"ha":407,"x_min":0,"x_max":0,"o":""},"A":{"ha":907,"x_min":3,"x_max":902,"o":"m 155 -23 q 55 -12 87 -22 q 13 13 23 -1 q 7 41 3 27 q 19 65 12 56 q 45 83 26 73 q 71 113 64 94 q 107 233 88 163 q 144 382 126 302 q 180 547 163 463 q 211 713 197 632 q 236 863 225 793 q 252 985 247 933 q 249 1023 255 1005 q 237 1057 243 1042 q 229 1087 231 1073 q 237 1114 227 1101 q 276 1139 248 1127 q 357 1162 304 1150 q 448 1166 422 1176 q 479 1135 473 1157 q 483 1084 486 1112 q 487 1035 480 1057 q 596 728 544 869 q 692 474 648 586 q 769 283 735 362 q 822 165 803 203 q 849 150 827 155 q 886 135 871 145 q 898 103 902 125 q 848 37 894 81 q 829 20 842 31 q 799 -4 817 8 q 760 -25 781 -16 q 718 -31 739 -34 q 680 -17 686 -28 q 678 12 674 -5 q 690 50 682 30 q 693 92 697 71 q 679 153 689 114 q 656 241 669 193 q 627 345 643 290 q 595 450 612 399 q 563 545 579 500 q 533 617 547 589 q 494 611 525 613 q 425 605 463 609 q 351 593 388 601 q 297 570 315 585 l 191 85 q 197 51 187 71 q 210 15 206 31 q 205 -13 214 -1 q 155 -23 195 -24 m 373 1015 q 352 921 361 970 q 336 826 343 872 q 322 742 328 780 q 311 681 316 704 q 345 684 319 681 q 403 692 372 688 q 462 703 434 697 q 500 716 490 709 q 484 749 491 731 q 463 800 476 768 q 429 882 450 831 q 373 1015 408 933 z "},"B":{"ha":694,"x_min":39,"x_max":658,"o":"m 62 39 q 77 94 69 53 q 92 199 85 136 q 100 345 98 262 q 100 525 103 427 q 97 683 98 610 q 92 826 96 755 q 79 968 88 897 q 49 1122 69 1040 q 43 1137 47 1126 q 47 1159 39 1147 q 81 1179 54 1171 q 171 1188 109 1188 q 206 1179 195 1188 q 219 1156 217 1171 q 217 1126 221 1142 q 205 1095 213 1109 q 435 1078 350 1116 q 521 945 521 1039 q 504 899 521 921 q 462 860 487 878 q 409 830 437 842 q 361 811 381 818 q 450 773 400 796 q 545 714 500 750 q 621 626 589 678 q 655 500 652 574 q 628 353 658 420 q 541 236 598 285 q 403 162 484 187 q 221 144 321 137 q 220 96 217 117 q 227 58 222 75 q 233 28 231 41 q 232 4 236 15 q 211 -13 228 -5 q 172 -23 194 -20 q 127 -24 151 -26 q 85 -16 103 -23 q 60 5 68 -8 q 62 39 53 19 m 201 240 q 357 254 294 232 q 459 316 420 275 q 515 409 498 357 q 532 513 532 461 q 498 619 532 574 q 414 695 464 665 q 307 741 365 726 q 201 755 250 755 q 199 641 201 709 q 197 499 198 572 q 196 357 195 426 q 201 240 197 288 m 406 955 q 380 997 406 983 q 322 1013 355 1010 q 255 1008 289 1015 q 203 989 221 1001 l 203 882 q 252 882 218 882 q 320 889 286 883 q 380 911 354 895 q 406 955 406 926 z "},"C":{"ha":644,"x_min":22,"x_max":614,"o":"m 366 75 q 139 157 222 77 q 33 396 56 236 q 24 560 22 475 q 43 728 26 646 q 94 886 61 811 q 179 1017 127 960 q 300 1105 231 1073 q 458 1137 369 1138 q 484 1143 471 1137 q 511 1158 498 1149 q 538 1174 525 1166 q 562 1184 551 1181 q 593 1168 582 1187 q 610 1121 605 1150 q 614 1057 614 1092 q 611 991 614 1021 q 601 941 608 962 q 586 921 594 921 q 555 932 566 921 q 532 960 544 944 q 503 991 521 975 q 449 1016 484 1008 q 325 994 385 1032 q 219 884 264 955 q 148 721 174 812 q 126 540 122 629 q 160 372 132 435 q 228 275 189 309 q 309 233 267 241 q 384 229 351 224 q 413 241 400 232 q 439 262 426 251 q 467 282 452 273 q 505 294 481 292 q 531 277 522 297 q 542 224 540 256 q 540 153 544 191 q 526 80 536 114 q 503 22 517 46 q 473 -3 490 -1 q 444 4 458 -5 q 416 28 430 14 q 391 56 403 42 q 366 75 378 69 z "},"D":{"ha":732,"x_min":52,"x_max":700,"o":"m 52 12 q 57 28 52 20 q 70 46 62 37 q 85 68 77 56 q 96 98 92 80 q 123 278 113 183 q 137 458 134 373 q 140 609 140 548 q 138 713 140 670 q 133 784 136 755 q 129 837 130 812 q 109 959 122 917 q 83 1023 96 1001 q 62 1059 71 1046 q 53 1093 53 1072 q 73 1128 53 1115 q 123 1146 94 1141 q 186 1150 152 1152 q 251 1142 221 1149 q 300 1124 281 1135 q 320 1099 320 1112 q 314 1077 320 1084 q 300 1062 308 1070 q 282 1040 292 1054 q 266 997 273 1027 q 444 935 363 979 q 582 823 525 890 q 669 669 639 757 q 699 479 700 582 q 652 313 696 387 q 541 191 609 240 q 390 119 473 141 q 225 109 307 96 q 232 82 225 92 q 247 62 239 72 q 263 43 255 53 q 275 19 271 34 q 265 -17 279 -1 q 226 -42 251 -33 q 170 -54 201 -52 q 113 -51 140 -57 q 69 -30 87 -45 q 52 12 52 -15 m 231 252 q 304 227 264 229 q 386 236 345 224 q 465 273 427 248 q 533 328 503 297 q 581 395 563 359 q 601 468 600 431 q 577 614 602 543 q 505 743 552 686 q 392 836 458 800 q 247 872 326 871 q 233 724 236 807 q 231 555 231 640 q 233 390 232 469 q 231 252 235 311 z "},"E":{"ha":636,"x_min":45,"x_max":594,"o":"m 45 651 q 50 751 45 696 q 68 861 56 806 q 102 968 80 916 q 157 1061 125 1020 q 236 1126 190 1101 q 343 1150 282 1150 q 468 1113 419 1150 q 545 1018 517 1076 q 583 890 572 960 q 594 755 594 821 q 594 721 594 743 q 593 677 594 699 q 593 640 593 656 q 593 621 593 623 q 589 574 593 601 q 576 524 586 547 q 547 485 566 500 q 498 469 529 469 q 341 475 419 472 q 184 480 263 477 q 191 441 184 467 q 210 384 198 415 q 239 320 222 353 q 275 260 256 288 q 313 216 293 233 q 351 199 332 199 q 376 203 361 199 q 404 208 391 208 q 426 204 418 209 q 430 182 434 199 q 406 107 419 138 q 378 54 392 76 q 353 19 365 33 q 334 -1 340 5 q 305 -23 321 -15 q 273 -33 289 -31 q 248 -27 258 -34 q 237 -1 237 -20 l 237 104 q 144 236 180 176 q 85 357 107 296 q 54 489 62 419 q 45 651 45 559 m 174 591 q 235 576 201 583 q 307 565 270 568 q 379 562 343 562 q 444 568 415 562 q 460 610 454 581 q 467 675 465 640 q 469 746 469 711 q 469 802 469 781 q 468 872 469 827 q 456 959 467 917 q 425 1032 446 1001 q 362 1063 403 1063 q 298 1026 327 1057 q 247 951 269 996 q 210 853 225 906 q 185 750 194 800 q 174 657 176 700 q 174 591 171 614 z "},"F":{"ha":731,"x_min":37,"x_max":713,"o":"m 195 7 q 100 -7 133 -7 q 56 4 68 -7 q 49 35 45 15 q 62 79 53 54 q 82 135 72 104 q 94 197 92 165 q 96 419 98 323 q 87 591 94 515 q 72 728 80 667 q 56 844 64 789 q 42 954 47 899 q 37 1074 37 1009 q 42 1111 37 1099 q 58 1128 47 1123 q 86 1132 69 1133 q 126 1131 103 1131 q 441 1119 282 1131 q 503 1125 471 1116 q 565 1145 534 1134 q 623 1165 595 1157 q 670 1171 650 1173 q 702 1148 690 1168 q 713 1084 713 1128 q 705 998 712 1023 q 681 968 697 972 q 641 977 665 964 q 585 1004 617 989 q 510 1029 552 1019 q 416 1035 468 1040 q 354 1034 392 1032 q 279 1038 316 1036 q 213 1038 243 1040 q 175 1027 183 1036 q 171 1000 171 1021 q 173 952 171 979 q 178 897 175 925 q 180 852 180 869 q 209 851 189 852 q 253 850 229 850 q 297 848 277 849 q 326 848 317 848 q 388 854 361 846 q 435 872 415 863 q 470 889 456 882 q 494 892 484 897 q 509 870 503 888 q 517 810 514 852 q 515 751 519 770 q 499 727 510 732 q 473 727 488 722 q 439 740 457 732 q 399 755 420 747 q 354 762 377 762 q 313 762 331 762 q 275 759 294 761 q 235 753 256 757 q 187 743 214 749 q 191 688 190 726 q 194 600 193 650 q 197 496 195 551 q 199 392 198 442 q 201 301 199 342 q 205 240 202 260 q 220 173 209 202 q 245 121 232 144 q 267 80 258 98 q 275 50 277 62 q 254 26 273 37 q 195 7 236 15 z "},"G":{"ha":735,"x_min":22,"x_max":709,"o":"m 28 650 q 56 885 22 777 q 155 1065 91 993 q 306 1164 220 1137 q 490 1160 392 1192 q 529 1154 502 1156 q 584 1148 556 1153 q 632 1132 612 1143 q 652 1096 652 1120 q 644 1046 652 1074 q 622 991 636 1017 q 588 947 608 966 q 547 929 568 929 q 524 938 530 929 q 516 960 518 947 q 514 990 514 974 q 508 1021 514 1006 q 488 1047 502 1036 q 448 1062 475 1058 q 380 1061 415 1066 q 312 1042 345 1055 q 253 1011 279 1029 q 212 971 227 993 q 149 843 175 917 q 119 677 122 769 q 135 513 117 586 q 178 366 153 439 q 219 287 193 323 q 278 224 245 251 q 345 183 311 198 q 407 168 378 168 q 521 201 471 168 q 582 294 571 233 q 588 369 587 328 q 586 450 589 410 q 576 528 583 491 q 557 591 568 566 q 494 572 522 585 q 445 543 465 559 q 410 512 425 528 q 389 484 396 496 q 347 444 366 445 q 311 463 327 442 q 284 522 296 484 q 266 600 273 559 q 273 648 259 637 q 307 657 286 659 q 350 647 328 655 q 381 639 372 639 q 484 659 437 639 q 593 712 532 680 q 611 717 600 716 q 635 712 623 718 q 660 692 648 707 q 678 651 671 678 q 707 428 704 536 q 682 237 709 320 q 590 102 654 153 q 418 50 526 52 q 288 78 345 49 q 189 155 231 107 q 117 264 146 202 q 69 394 88 327 q 41 528 50 461 q 28 650 31 594 z "},"H":{"ha":825,"x_min":20,"x_max":810,"o":"m 567 33 q 574 60 567 49 q 591 85 582 72 q 609 113 601 98 q 617 149 617 127 q 618 214 617 178 q 617 287 618 251 q 613 355 616 323 q 604 407 610 387 q 522 410 568 408 q 425 412 475 412 q 330 407 376 412 q 255 388 285 401 q 249 356 250 377 q 252 313 248 335 q 264 271 256 290 q 283 244 273 252 q 314 207 308 225 q 315 172 320 189 q 294 141 309 155 q 258 119 278 127 q 216 104 243 114 q 163 90 190 95 q 113 92 136 85 q 87 125 91 98 q 90 164 83 148 q 106 203 96 180 q 125 258 117 225 q 134 350 134 292 q 122 616 134 484 q 98 886 110 749 q 83 934 95 914 q 56 970 71 954 q 31 1001 42 986 q 20 1035 20 1016 q 47 1078 20 1062 q 111 1100 75 1093 q 183 1106 146 1107 q 239 1101 220 1105 q 264 1075 264 1095 q 254 1031 264 1055 q 231 981 244 1006 q 218 939 218 956 q 225 726 218 833 q 236 503 232 618 q 263 494 237 498 q 326 490 289 491 q 407 491 363 490 q 490 496 450 492 q 558 507 529 500 q 595 522 587 513 q 602 596 600 553 q 606 684 605 639 q 608 771 608 728 q 609 845 609 814 q 602 956 608 914 q 588 1023 597 998 q 570 1061 579 1048 q 551 1084 560 1074 q 536 1106 543 1095 q 529 1141 530 1118 q 547 1173 528 1160 q 593 1192 566 1185 q 654 1197 621 1198 q 716 1191 688 1196 q 764 1175 745 1185 q 784 1150 784 1165 q 774 1109 784 1124 q 752 1078 765 1093 q 728 1040 739 1062 q 716 982 718 1019 q 705 755 707 856 q 707 562 704 654 q 718 381 711 471 q 731 186 724 292 q 745 155 732 167 q 772 132 758 142 q 798 111 787 122 q 810 81 810 99 q 787 41 810 57 q 735 14 765 24 q 675 0 705 4 q 628 -4 644 -4 q 587 1 608 -4 q 567 33 567 7 z "},"I":{"ha":875,"x_min":24,"x_max":842,"o":"m 83 12 q 46 45 60 15 q 28 109 33 75 q 31 173 24 144 q 57 205 38 202 q 87 200 75 206 q 112 185 99 194 q 143 169 125 176 q 190 161 161 161 q 220 163 198 161 q 271 170 243 165 q 326 178 298 174 q 369 186 353 182 q 349 966 389 624 q 235 982 273 985 q 180 968 198 979 q 155 944 161 956 q 136 932 148 932 q 92 951 110 932 q 65 1000 75 971 q 54 1060 56 1028 q 60 1116 53 1092 q 81 1152 66 1141 q 119 1150 96 1162 q 171 1120 148 1134 q 222 1096 194 1107 q 290 1080 251 1085 q 391 1074 330 1074 q 450 1076 416 1074 q 517 1079 484 1077 q 580 1084 551 1081 q 624 1089 609 1086 q 692 1111 670 1097 q 724 1137 713 1124 q 739 1158 734 1149 q 757 1169 745 1168 q 785 1156 774 1171 q 801 1117 796 1141 q 806 1065 806 1093 q 802 1013 806 1038 q 790 970 798 987 q 774 949 783 952 q 746 957 758 945 q 707 979 734 968 q 632 991 681 990 q 494 968 583 993 q 481 825 486 911 q 476 635 476 739 q 483 413 476 530 q 505 175 490 296 q 616 170 571 167 q 690 183 661 174 q 736 205 719 193 q 764 229 753 218 q 786 243 776 239 q 811 243 796 248 q 836 212 831 236 q 842 159 841 187 q 841 119 842 140 q 835 84 840 99 q 821 62 830 69 q 799 61 812 54 q 730 81 765 75 q 653 88 694 87 q 563 86 612 90 q 456 79 514 83 q 266 57 332 69 q 165 34 199 45 q 116 16 130 23 q 83 12 102 9 z "},"J":{"ha":859,"x_min":39,"x_max":826,"o":"m 56 141 q 45 179 41 152 q 66 237 50 206 q 107 298 83 269 q 155 341 132 327 q 199 349 179 355 q 227 304 218 343 q 235 261 228 278 q 250 232 241 244 q 270 212 259 220 q 292 199 281 205 q 365 184 332 179 q 422 215 397 190 q 465 283 448 240 q 494 380 483 326 q 507 537 507 456 q 493 702 507 618 q 451 868 479 785 q 381 1028 423 951 q 317 1027 345 1025 q 267 1029 290 1029 q 220 1025 243 1029 q 168 1004 197 1020 q 105 985 130 982 q 66 1005 80 987 q 45 1048 52 1023 q 39 1100 39 1074 q 50 1166 39 1147 q 78 1184 61 1184 q 115 1172 95 1184 q 153 1145 136 1160 q 216 1125 165 1134 q 338 1113 266 1116 q 495 1114 410 1109 q 663 1135 581 1119 q 718 1156 696 1142 q 765 1181 741 1171 q 799 1179 787 1191 q 817 1147 811 1168 q 825 1099 823 1126 q 826 1050 826 1072 q 814 987 826 1004 q 783 973 802 971 q 743 991 765 975 q 703 1023 722 1006 q 666 1038 688 1036 q 621 1038 644 1040 q 574 1031 598 1035 q 528 1027 549 1027 q 574 859 553 949 q 607 673 595 768 q 619 484 618 578 q 604 308 620 391 q 485 100 572 148 q 237 119 397 53 q 174 136 201 134 q 125 134 146 137 q 88 130 104 132 q 56 141 72 129 z "},"K":{"ha":760,"x_min":5,"x_max":755,"o":"m 161 9 q 123 24 130 8 q 120 63 115 41 q 136 109 125 85 q 152 145 146 132 q 167 250 165 182 q 163 402 168 319 q 148 573 159 486 q 127 736 137 661 q 107 864 117 811 q 95 930 98 917 q 60 1007 85 972 q 20 1069 35 1042 q 13 1116 5 1096 q 76 1149 20 1137 q 129 1162 99 1154 q 182 1172 159 1169 q 247 1162 235 1177 q 252 1123 259 1147 q 230 1070 244 1099 q 216 1019 216 1042 q 216 974 216 1001 q 218 915 217 947 q 222 848 220 883 q 229 779 225 812 q 262 793 239 781 q 316 821 285 804 q 382 856 347 837 q 449 892 418 875 q 504 925 480 910 q 537 947 528 940 q 563 980 551 958 q 587 1023 575 1002 q 612 1057 600 1044 q 642 1061 625 1069 q 665 1039 651 1055 q 692 1002 680 1023 q 713 961 704 982 q 724 925 723 940 q 716 901 726 906 q 691 894 707 895 q 656 892 675 892 q 620 880 636 891 q 569 852 605 871 q 490 808 533 833 q 404 755 448 784 q 332 699 361 727 q 366 674 343 692 q 416 633 388 656 q 477 586 445 610 q 539 541 509 562 q 596 505 570 519 q 640 487 623 490 q 706 477 680 480 q 744 464 732 475 q 751 429 755 453 q 724 354 746 404 q 688 293 705 311 q 654 279 670 275 q 622 303 637 282 q 593 361 606 324 q 564 397 587 373 q 505 448 540 420 q 431 506 471 476 q 355 561 392 536 q 290 604 319 586 q 251 627 262 623 q 254 535 251 590 q 264 421 258 480 q 281 307 271 362 q 304 213 290 251 q 328 165 311 193 q 357 113 346 138 q 363 65 368 87 q 323 34 359 43 q 288 24 302 28 q 256 17 273 20 q 218 12 240 14 q 161 9 195 11 z "},"L":{"ha":799,"x_min":9,"x_max":783,"o":"m 189 30 q 165 33 180 30 q 136 48 151 37 q 112 79 122 60 q 102 130 102 99 l 95 766 q 94 886 95 844 q 87 956 94 928 q 67 1010 81 985 q 27 1077 53 1035 q 22 1123 9 1104 q 62 1153 34 1142 q 126 1168 90 1164 q 197 1168 163 1172 q 254 1156 231 1165 q 278 1131 277 1146 q 273 1098 279 1109 q 258 1073 267 1086 q 237 1038 248 1059 q 216 979 225 1017 q 201 877 206 940 q 197 716 195 814 q 199 583 198 659 q 205 425 201 506 q 217 269 209 345 q 240 137 225 193 q 379 132 316 130 q 509 130 442 134 q 619 135 582 126 q 676 155 656 144 q 707 176 696 167 q 742 184 719 186 q 766 149 754 183 q 781 75 779 115 q 771 1 783 34 q 726 -30 760 -31 q 696 -22 707 -28 q 669 -6 686 -15 q 618 11 651 3 q 521 23 586 19 q 371 31 452 27 q 189 30 290 35 z "},"M":{"ha":1097,"x_min":46,"x_max":1063,"o":"m 69 46 q 75 81 69 68 q 87 108 80 94 q 104 140 95 122 q 122 191 114 159 q 136 275 130 224 q 141 404 141 326 q 142 526 141 460 q 144 662 144 593 q 144 799 145 731 q 136 924 142 867 q 113 964 133 944 q 76 1005 94 985 q 52 1044 58 1025 q 72 1077 46 1062 q 168 1120 119 1105 q 274 1135 217 1135 q 296 1122 292 1135 q 300 1092 301 1109 q 296 1057 298 1074 q 297 1029 294 1039 q 334 972 305 1005 q 398 907 363 940 q 466 848 433 875 q 515 808 499 821 q 586 863 548 833 q 661 926 624 894 q 728 990 697 958 q 777 1054 760 1023 q 779 1072 781 1062 q 771 1091 776 1081 q 762 1112 766 1101 q 757 1131 757 1122 q 777 1156 757 1146 q 826 1168 796 1165 q 890 1171 856 1172 q 954 1162 924 1169 q 1003 1142 983 1154 q 1023 1114 1023 1130 q 1013 1071 1023 1090 q 992 1031 1004 1051 q 971 992 981 1012 q 960 949 962 972 q 958 857 959 916 q 958 730 958 799 q 962 586 959 661 q 968 448 964 511 q 979 336 972 384 q 996 271 986 288 q 1017 239 1005 252 q 1040 212 1029 225 q 1057 184 1050 199 q 1063 146 1063 168 q 1045 120 1063 130 q 999 105 1027 110 q 938 101 971 100 q 874 106 905 102 q 821 121 844 111 q 793 142 799 130 q 790 170 787 157 q 802 195 793 183 q 821 219 810 208 q 840 241 831 231 q 859 311 853 259 q 865 433 864 363 q 861 581 865 503 q 850 730 857 659 q 835 855 844 800 q 818 932 826 910 q 787 911 807 929 q 744 866 768 892 q 693 809 720 840 q 638 753 666 779 q 583 710 610 727 q 532 693 555 693 q 452 719 486 693 q 388 779 418 745 q 329 846 358 812 q 264 895 300 879 q 248 624 251 741 q 248 423 244 507 q 263 285 252 339 q 289 202 274 231 q 317 157 297 186 q 348 100 338 129 q 349 49 358 72 q 290 19 339 26 q 227 6 264 15 q 155 -5 190 -3 q 94 3 119 -7 q 69 46 69 12 z "},"N":{"ha":925,"x_min":28,"x_max":899,"o":"m 159 119 q 161 138 159 100 q 163 246 163 175 q 160 411 163 317 q 149 600 157 505 q 123 779 140 694 q 79 917 106 864 q 33 1021 38 991 q 43 1059 28 1042 q 83 1091 58 1077 q 137 1114 107 1105 q 193 1123 167 1123 q 236 1114 218 1123 q 255 1084 254 1105 q 250 1043 255 1067 q 243 987 245 1019 q 266 897 239 951 q 338 780 293 842 q 439 653 384 718 q 549 533 495 589 q 648 435 604 477 q 716 376 693 393 q 713 515 716 441 q 707 666 711 589 q 700 820 704 743 q 692 966 696 897 q 680 1005 690 986 q 656 1042 669 1024 q 634 1078 644 1061 q 624 1114 624 1095 q 646 1144 624 1133 q 698 1162 667 1156 q 760 1171 728 1169 q 812 1173 792 1173 q 869 1164 852 1172 q 888 1143 886 1156 q 881 1116 890 1131 q 860 1084 872 1100 q 836 1050 848 1067 q 822 1020 825 1034 q 810 926 814 979 q 804 814 806 873 q 804 695 803 755 q 806 579 804 635 q 810 476 808 524 q 815 396 812 429 q 831 330 818 358 q 860 279 845 301 q 887 240 875 256 q 899 209 899 224 q 882 180 899 194 q 821 149 864 165 q 768 129 800 141 q 709 116 736 117 q 667 133 682 115 q 663 203 652 151 q 648 269 670 231 q 589 352 627 308 q 502 444 551 396 q 404 537 453 491 q 312 625 355 583 q 243 699 269 666 q 250 552 247 629 q 259 399 254 475 q 273 252 264 323 q 297 126 282 182 q 316 102 301 111 q 348 83 331 92 q 378 61 365 73 q 391 31 391 49 q 372 -12 391 4 q 330 -36 354 -27 q 280 -48 305 -45 q 241 -53 255 -52 q 165 -52 191 -58 q 131 -33 140 -46 q 125 0 122 -19 q 135 40 127 19 q 151 81 142 61 q 159 119 159 102 z "},"O":{"ha":770,"x_min":75,"x_max":735,"o":"m 79 566 q 77 662 79 608 q 79 775 75 716 q 99 893 84 834 q 146 1004 114 952 q 196 1063 167 1035 q 263 1112 225 1090 q 347 1143 301 1133 q 446 1150 393 1154 q 536 1127 499 1146 q 601 1077 574 1108 q 648 1005 628 1046 q 684 917 667 964 q 720 777 707 853 q 735 606 732 701 q 734 522 735 566 q 731 437 734 479 q 724 356 728 395 q 711 288 719 317 q 604 119 681 171 q 393 68 528 68 q 291 92 336 68 q 211 155 245 115 q 151 247 176 195 q 110 354 126 298 q 86 465 94 410 q 79 566 79 519 m 243 594 q 300 296 252 400 q 456 174 347 191 q 552 203 503 167 q 624 304 601 239 q 635 354 631 323 q 642 421 639 385 q 646 496 644 457 q 648 570 647 534 q 644 668 650 614 q 626 777 637 722 q 597 883 614 831 q 558 975 581 935 q 509 1039 536 1015 q 450 1063 481 1063 q 347 1029 389 1063 q 280 932 305 994 q 246 783 255 869 q 243 594 237 696 z "},"P":{"ha":646,"x_min":24,"x_max":631,"o":"m 110 140 q 121 236 117 174 q 125 378 125 298 q 121 547 125 457 q 111 724 118 636 q 93 892 103 812 q 69 1034 83 972 q 58 1060 66 1047 q 43 1085 50 1073 q 30 1109 35 1097 q 27 1134 24 1122 q 47 1155 30 1146 q 87 1168 64 1164 q 138 1174 111 1173 q 184 1172 164 1175 q 214 1146 212 1168 q 209 1099 217 1124 q 191 1052 201 1074 q 184 1025 182 1029 q 333 1076 254 1069 q 478 1060 412 1084 q 587 983 544 1036 q 629 853 631 930 q 583 757 629 793 q 471 703 537 720 q 332 684 404 685 q 206 697 259 684 q 215 610 210 659 q 224 507 220 560 q 232 401 228 454 q 239 304 236 349 q 245 227 243 259 q 251 183 248 195 q 269 134 256 156 q 293 92 282 111 q 312 58 305 73 q 311 30 319 42 q 277 9 304 18 q 191 -5 250 0 q 159 -9 176 -7 q 125 -9 141 -12 q 101 7 110 -5 q 95 52 92 20 q 100 89 96 68 q 110 140 103 110 m 190 867 q 189 843 190 854 q 191 821 189 831 q 199 804 193 811 q 220 792 205 796 q 298 779 251 783 q 388 784 345 776 q 463 814 431 792 q 494 878 494 837 q 471 946 494 921 q 415 980 449 971 q 342 983 381 989 q 269 962 302 978 q 212 922 235 947 q 190 867 190 897 z "},"Q":{"ha":795,"x_min":33,"x_max":803,"o":"m 713 27 q 665 12 680 4 q 644 42 650 20 q 634 90 637 64 q 618 130 631 117 l 617 130 q 522 84 576 100 q 393 68 467 68 q 289 91 336 68 q 203 152 241 114 q 134 239 164 190 q 83 342 103 289 q 51 450 62 396 q 37 549 39 503 q 39 692 33 618 q 64 836 46 766 q 113 966 81 906 q 191 1070 144 1027 q 300 1136 237 1114 q 446 1150 363 1158 q 555 1118 507 1145 q 637 1050 602 1092 q 694 954 671 1008 q 732 838 718 899 q 751 709 747 777 q 757 583 755 640 q 756 463 758 522 q 743 351 754 404 q 719 269 734 308 q 681 195 704 229 l 682 195 q 711 181 696 184 q 742 175 727 178 q 770 167 757 172 q 793 149 783 161 q 797 120 803 137 q 777 86 791 103 q 745 54 762 69 q 713 27 727 38 m 202 586 q 223 456 203 525 q 276 327 243 387 q 355 224 309 267 q 456 174 401 182 q 518 175 491 168 q 568 198 545 182 q 520 262 543 233 q 463 301 498 290 q 427 318 445 307 q 400 344 410 330 q 392 374 391 358 q 414 407 393 391 q 462 446 444 430 q 493 465 480 461 q 516 456 506 468 q 541 411 526 444 q 576 330 560 368 q 618 256 591 292 q 647 329 636 289 q 664 411 658 369 q 672 494 670 453 q 675 570 674 534 q 671 667 677 614 q 652 774 665 720 q 621 878 640 827 q 577 968 602 928 q 520 1034 552 1008 q 450 1063 488 1059 q 317 1031 366 1073 q 241 920 267 990 q 207 762 214 850 q 202 586 199 673 z "},"R":{"ha":829,"x_min":14,"x_max":815,"o":"m 144 99 q 157 154 149 113 q 168 286 165 195 q 162 526 171 376 q 123 909 153 677 q 102 951 119 935 q 64 983 84 968 q 29 1017 45 998 q 14 1067 14 1036 q 24 1094 14 1084 q 56 1113 35 1104 q 108 1130 77 1122 q 178 1150 138 1138 q 220 1158 206 1160 q 240 1147 235 1157 q 245 1118 245 1137 q 245 1070 245 1099 q 357 1116 305 1096 q 456 1142 408 1137 q 573 1138 521 1150 q 660 1097 625 1126 q 711 1025 694 1069 q 722 925 727 981 q 689 857 718 891 q 612 799 661 823 q 499 763 564 774 q 358 762 434 751 q 470 690 415 736 q 571 593 525 643 q 649 501 617 544 q 689 442 681 458 q 722 408 700 422 q 764 383 743 395 q 800 361 785 372 q 815 335 815 350 q 791 283 814 309 q 736 237 768 256 q 671 210 704 218 q 618 214 639 202 q 604 237 604 222 q 607 270 604 251 q 613 314 610 289 q 606 368 616 339 q 564 454 594 404 q 489 555 534 505 q 385 646 444 605 q 259 704 327 686 q 253 572 251 644 q 264 425 255 499 q 288 282 273 351 q 324 159 304 213 q 339 134 330 145 q 358 113 349 123 q 375 92 368 103 q 382 65 382 80 q 353 26 382 41 q 286 5 324 12 q 210 -3 247 -3 q 157 -1 174 -4 q 129 17 134 3 q 126 49 123 31 q 136 81 129 66 q 144 99 142 95 m 250 848 q 364 831 304 833 q 475 844 425 830 q 559 884 526 857 q 593 952 593 911 q 574 1002 593 977 q 514 1038 556 1028 q 404 1035 472 1048 q 239 967 336 1021 l 250 848 z "},"S":{"ha":654,"x_min":8,"x_max":635,"o":"m 104 194 q 81 211 95 206 q 54 220 68 216 q 28 231 39 225 q 12 252 16 237 q 19 284 8 266 q 48 321 30 302 q 91 358 66 340 q 136 387 115 376 q 174 403 157 399 q 194 400 190 407 q 203 370 201 387 q 208 338 206 354 q 210 307 209 321 q 212 282 210 292 q 235 218 217 251 q 279 157 254 184 q 336 111 305 129 q 397 92 366 92 q 445 109 426 92 q 475 153 464 126 q 492 214 487 180 q 498 278 498 247 q 479 372 498 321 q 430 473 460 422 q 362 576 400 525 q 286 673 324 627 q 211 762 247 720 q 149 834 175 803 q 130 865 140 846 q 114 904 121 883 q 102 945 107 925 q 98 981 98 966 q 122 1074 98 1036 q 182 1133 146 1111 q 260 1162 218 1154 q 338 1168 302 1169 q 387 1156 362 1166 q 434 1133 412 1146 q 473 1106 456 1119 q 498 1085 490 1093 q 530 1069 510 1073 q 570 1063 551 1066 q 604 1053 589 1059 q 620 1027 618 1046 q 600 985 618 1010 q 556 936 581 960 q 507 894 532 911 q 468 873 481 876 q 427 884 438 868 q 414 923 416 899 q 411 972 411 947 q 403 1010 411 997 q 353 1058 382 1046 q 296 1063 323 1070 q 250 1031 269 1057 q 231 964 231 1005 q 240 926 231 948 q 264 881 250 903 q 292 839 278 859 q 317 806 307 819 q 473 596 412 681 q 568 450 533 511 q 616 343 602 389 q 632 247 629 297 q 618 153 635 198 q 568 73 601 107 q 492 17 536 38 q 397 -4 448 -4 q 306 13 347 -4 q 229 58 264 30 q 163 122 194 87 q 104 194 133 157 z "},"T":{"ha":952,"x_min":19,"x_max":929,"o":"m 368 49 q 375 95 368 72 q 392 141 382 118 q 409 188 401 164 q 416 236 416 212 q 414 399 416 304 q 408 596 412 494 q 399 798 404 699 q 387 972 393 897 q 272 966 317 970 q 195 958 227 963 q 140 943 163 952 q 92 920 117 935 q 60 920 75 909 q 37 952 46 930 q 23 1002 27 974 q 24 1052 19 1029 q 42 1086 28 1074 q 80 1090 56 1099 q 123 1075 107 1081 q 153 1065 138 1069 q 184 1061 167 1062 q 231 1062 201 1061 q 308 1067 260 1063 q 430 1077 355 1070 q 592 1093 528 1085 q 697 1107 656 1100 q 760 1123 738 1115 q 795 1139 783 1131 q 817 1156 808 1147 q 840 1176 825 1165 q 876 1186 860 1191 q 903 1165 892 1181 q 920 1125 914 1149 q 928 1077 926 1101 q 926 1032 929 1053 q 914 1002 922 1012 q 875 998 907 994 q 777 1013 842 1002 q 667 1008 734 1020 q 521 982 601 997 q 519 798 519 901 q 524 590 519 696 q 536 382 528 484 q 560 197 544 279 q 570 165 563 182 q 583 131 576 148 q 595 97 590 114 q 600 64 600 80 q 587 27 600 41 q 557 7 575 14 q 518 -2 540 0 q 479 -4 496 -4 q 443 -3 463 -4 q 407 3 423 -3 q 379 18 391 8 q 368 49 368 28 z "},"U":{"ha":815,"x_min":16,"x_max":803,"o":"m 80 845 q 68 887 80 865 q 45 929 57 909 q 24 968 33 949 q 22 1004 16 987 q 63 1036 28 1021 q 138 1054 98 1050 q 210 1050 178 1058 q 244 1016 243 1042 q 239 986 245 998 q 225 957 233 974 q 210 913 217 940 q 201 837 202 886 q 197 774 199 811 q 193 695 195 738 q 191 607 191 652 q 194 519 191 562 q 225 353 201 427 q 283 226 250 278 q 359 146 317 174 q 442 122 400 119 q 530 171 496 126 q 584 286 564 216 q 611 442 604 357 q 623 613 618 528 q 625 698 624 651 q 625 789 625 745 q 625 872 625 834 q 627 930 625 910 q 621 1023 629 991 q 602 1070 613 1054 q 581 1096 591 1086 q 571 1124 571 1105 q 587 1152 570 1142 q 631 1164 605 1161 q 687 1166 656 1168 q 743 1157 718 1164 q 786 1140 769 1150 q 802 1116 803 1130 q 791 1090 800 1100 q 772 1066 783 1081 q 751 1025 761 1051 q 738 952 742 1000 q 737 863 736 910 q 739 768 738 815 q 741 679 741 722 q 738 604 741 636 q 695 309 723 425 q 627 127 667 194 q 534 37 586 61 q 420 14 483 12 q 258 60 323 15 q 153 203 193 104 q 97 459 114 301 q 80 845 80 617 z "},"V":{"ha":1044,"x_min":15,"x_max":1025,"o":"m 595 49 q 563 16 583 28 q 520 1 543 3 q 477 9 498 -1 q 445 43 457 19 q 409 137 434 66 q 332 327 384 208 q 288 448 309 378 q 243 587 266 517 q 195 720 220 656 q 144 823 171 783 q 106 857 133 838 q 57 893 80 875 q 24 930 34 911 q 38 967 15 949 q 77 993 52 978 q 135 1023 103 1008 q 201 1048 167 1038 q 267 1062 235 1059 q 296 1047 292 1063 q 298 1005 301 1031 q 288 948 294 979 q 285 890 282 917 q 290 833 286 875 q 314 706 293 791 q 381 486 335 621 q 515 151 427 351 q 595 361 556 256 q 670 569 635 467 q 734 770 705 671 q 781 963 762 869 q 783 1013 785 985 q 780 1068 781 1040 q 781 1120 779 1096 q 798 1158 784 1145 q 840 1171 812 1172 q 918 1149 868 1171 q 998 1097 974 1119 q 1023 1059 1021 1076 q 1011 1029 1025 1042 q 979 1004 997 1017 q 942 978 960 991 q 918 947 924 964 q 803 603 853 753 q 714 343 753 453 q 646 161 675 233 q 595 49 617 88 z "},"W":{"ha":1137,"x_min":15,"x_max":1116,"o":"m 171 163 q 170 262 171 209 q 161 396 168 316 q 137 591 153 476 q 91 878 121 707 q 75 918 87 898 q 51 957 64 939 q 27 991 38 975 q 16 1022 16 1008 q 26 1048 15 1036 q 71 1069 38 1059 q 104 1078 83 1073 q 147 1088 125 1084 q 191 1097 170 1093 q 224 1103 212 1101 q 263 1090 252 1105 q 272 1048 274 1076 q 259 982 270 1021 q 235 897 248 943 q 225 788 222 857 q 239 633 228 719 q 265 450 250 547 q 296 259 281 353 q 329 311 305 271 q 378 395 353 350 q 427 479 404 439 q 458 532 450 518 q 513 594 486 583 q 562 604 540 605 q 636 583 600 601 q 705 537 673 564 q 767 479 738 510 q 818 422 796 449 q 854 377 840 396 q 872 357 868 358 q 892 444 880 382 q 915 587 905 505 q 930 764 925 669 q 933 954 936 859 q 927 1009 932 990 q 916 1041 922 1028 q 903 1065 909 1054 q 892 1099 897 1077 q 907 1131 890 1116 q 952 1153 925 1145 q 1010 1162 979 1161 q 1066 1156 1042 1164 q 1103 1128 1090 1147 q 1105 1076 1116 1108 q 1038 819 1065 949 q 1002 573 1012 689 q 1002 366 993 457 q 1040 224 1010 274 q 1061 187 1053 205 q 1069 156 1070 170 q 1051 132 1067 142 q 996 118 1035 122 q 946 109 967 114 q 909 100 925 104 q 882 94 894 96 q 859 91 871 91 q 829 102 836 91 q 824 129 823 113 q 829 162 825 145 q 831 191 833 179 q 810 240 829 210 q 766 302 792 270 q 709 366 741 334 q 649 424 678 399 q 597 463 620 449 q 564 475 574 477 q 498 401 529 446 q 437 305 467 355 q 382 205 408 255 q 334 119 357 156 q 333 99 327 109 q 348 78 339 90 q 366 54 357 66 q 374 27 374 42 q 357 5 374 16 q 314 -14 340 -5 q 256 -26 288 -22 q 195 -29 224 -30 q 144 -22 167 -28 q 115 -1 122 -16 q 115 32 107 14 q 136 71 123 50 q 159 114 148 91 q 171 163 171 137 z "},"X":{"ha":970,"x_min":27,"x_max":945,"o":"m 102 79 q 47 127 60 106 q 39 164 34 148 q 64 194 45 180 q 106 218 84 208 q 149 240 129 229 q 178 263 170 251 q 280 412 221 324 q 400 597 339 499 q 344 663 376 625 q 276 738 312 701 q 202 803 240 774 q 126 840 164 831 q 51 852 73 840 q 28 884 28 864 q 45 930 27 905 q 90 981 62 955 q 149 1030 117 1006 q 209 1072 180 1054 q 227 1078 214 1074 q 253 1077 240 1081 q 276 1059 266 1073 q 286 1013 286 1044 q 342 844 289 920 q 467 708 395 768 q 561 850 518 773 q 648 1013 604 928 q 661 1066 662 1038 q 660 1119 661 1095 q 665 1160 659 1143 q 700 1176 671 1176 q 751 1162 726 1176 q 798 1130 776 1149 q 839 1090 821 1111 q 871 1058 857 1070 q 889 1018 897 1034 q 857 990 882 1002 q 800 966 833 978 q 746 939 768 955 q 699 881 727 924 q 640 789 670 838 q 584 694 610 739 q 543 629 557 648 l 792 358 q 832 336 815 338 q 865 335 849 334 q 897 335 880 336 q 933 316 913 334 q 945 287 945 305 q 937 248 944 269 q 918 206 929 227 q 897 172 906 186 q 846 123 867 134 q 811 119 826 113 q 785 144 796 125 q 765 186 774 163 q 747 231 755 209 q 726 267 738 254 q 616 387 674 323 q 487 518 557 452 q 449 470 472 502 q 401 401 426 438 q 352 328 376 365 q 312 263 328 290 q 282 193 293 231 q 264 121 271 155 q 248 60 256 87 q 222 24 239 34 q 176 26 205 15 q 102 79 148 38 z "},"Y":{"ha":978,"x_min":11,"x_max":960,"o":"m 502 79 q 528 140 521 100 q 534 231 534 180 q 529 336 534 281 q 517 444 524 392 q 503 540 510 496 q 495 609 496 583 q 462 660 494 625 q 380 734 430 694 q 269 813 331 774 q 146 878 208 852 q 114 880 130 884 q 83 869 98 875 q 53 863 68 863 q 22 880 38 863 q 21 922 11 892 q 41 978 31 951 q 56 1017 45 991 q 82 1066 66 1043 q 119 1105 98 1089 q 168 1115 141 1120 q 197 1095 189 1111 q 209 1058 205 1078 q 216 1017 213 1038 q 229 985 220 997 q 262 952 237 974 q 319 903 286 930 q 387 848 351 876 q 456 796 423 819 q 513 759 488 773 q 545 746 537 745 q 605 804 574 772 q 666 875 636 837 q 722 953 696 913 q 768 1034 749 993 q 776 1068 774 1047 q 779 1109 777 1089 q 787 1144 781 1130 q 806 1160 792 1158 q 852 1149 829 1161 q 897 1118 876 1138 q 934 1074 918 1099 q 956 1025 949 1050 q 949 1000 960 1009 q 921 983 939 990 q 886 970 903 977 q 861 954 869 963 q 797 881 836 922 q 721 795 758 840 q 655 707 684 750 q 621 627 627 663 q 618 541 616 594 q 628 429 621 488 q 644 309 635 369 q 663 201 654 248 q 688 146 669 174 q 722 96 707 119 q 741 52 738 72 q 718 20 743 33 q 663 2 694 9 q 598 -9 631 -5 q 538 -9 566 -12 q 494 3 510 -7 q 477 32 477 14 q 502 79 477 50 z "},"Z":{"ha":783,"x_min":41,"x_max":751,"o":"m 642 47 q 599 57 631 56 q 522 55 567 58 q 423 47 477 52 q 313 39 369 42 q 204 39 258 37 q 106 50 151 41 q 68 68 77 56 q 62 97 60 81 q 72 128 64 113 q 87 155 80 144 q 184 317 129 218 q 301 534 240 415 q 424 783 362 652 q 540 1040 486 913 q 472 1042 503 1042 q 410 1043 441 1043 q 347 1042 380 1043 q 275 1040 315 1042 q 214 1032 241 1039 q 165 1018 186 1025 q 129 1004 144 1010 q 106 997 114 997 q 73 1009 87 996 q 52 1044 60 1023 q 43 1090 45 1065 q 45 1135 41 1115 q 62 1169 50 1156 q 95 1180 75 1183 q 118 1174 109 1179 q 139 1163 127 1169 q 168 1152 151 1157 q 214 1146 186 1147 q 402 1136 308 1135 q 590 1145 496 1137 q 642 1137 616 1146 q 686 1110 667 1127 q 711 1072 704 1093 q 707 1031 719 1051 q 637 913 667 963 q 579 814 608 863 q 521 712 551 766 q 452 583 491 658 q 360 403 412 507 q 236 149 308 298 q 310 139 264 144 q 408 134 355 134 q 515 141 460 134 q 620 167 570 148 q 650 184 637 174 q 675 205 663 195 q 696 222 686 216 q 716 228 705 229 q 741 204 732 225 q 750 153 749 183 q 747 90 751 123 q 735 28 743 56 q 717 5 728 8 q 692 9 705 3 q 665 28 678 16 q 642 47 651 39 z "},"a":{"ha":650,"x_min":28,"x_max":631,"o":"m 502 342 q 441 343 458 336 q 422 369 425 350 q 427 420 420 388 q 437 500 434 453 q 378 486 414 496 q 302 468 343 476 q 218 458 262 460 q 134 467 175 456 q 59 511 90 479 q 28 591 28 543 q 63 722 28 667 q 153 808 98 776 q 276 848 208 840 q 412 841 345 856 q 407 863 412 853 q 394 881 401 872 q 381 899 387 890 q 376 921 376 909 q 399 944 376 935 q 453 959 423 954 q 511 967 483 964 q 549 970 540 970 q 580 966 570 970 q 594 953 590 962 q 597 930 598 944 q 591 895 595 916 q 572 772 581 830 q 564 657 564 713 q 575 543 564 601 q 614 423 586 486 q 619 370 631 387 q 585 348 608 354 q 538 342 563 342 q 502 342 514 343 m 155 640 q 164 595 155 613 q 190 567 174 578 q 227 552 206 556 q 269 549 247 548 q 366 578 330 553 q 421 636 403 604 q 441 703 439 669 q 435 760 444 736 q 351 768 399 770 q 258 751 302 766 q 184 709 214 736 q 155 640 155 681 z "},"b":{"ha":557,"x_min":16,"x_max":533,"o":"m 72 22 q 60 33 65 26 q 56 47 56 41 q 71 100 56 76 q 95 149 85 123 q 111 237 106 179 q 115 364 115 294 q 113 507 115 434 q 106 643 110 581 q 98 749 102 705 q 95 802 95 792 q 80 878 92 850 q 54 922 68 905 q 28 954 39 940 q 16 991 16 968 q 43 1037 16 1020 q 106 1063 71 1054 q 178 1076 142 1073 q 233 1080 214 1080 q 248 1077 239 1080 q 264 1068 256 1074 q 274 1053 271 1062 q 269 1031 277 1044 q 231 942 244 989 q 213 844 218 895 q 208 739 208 793 q 209 628 208 685 q 212 520 210 575 q 222 414 214 465 q 323 426 269 427 q 424 406 377 425 q 502 351 471 388 q 533 256 533 315 q 511 170 533 206 q 450 110 488 133 q 363 76 412 87 q 259 68 313 65 q 262 50 259 57 q 264 33 264 43 q 239 7 264 14 q 180 1 213 0 q 115 9 146 3 q 72 22 83 15 m 431 263 q 406 311 430 293 q 349 337 381 330 q 282 340 316 345 q 228 321 248 336 l 228 187 q 288 174 252 172 q 355 187 323 175 q 410 220 388 199 q 431 263 433 240 z "},"c":{"ha":464,"x_min":26,"x_max":438,"o":"m 30 444 q 43 572 26 515 q 92 673 60 628 q 165 751 123 718 q 254 810 208 784 q 273 826 263 815 q 291 849 282 837 q 311 873 300 861 q 336 891 321 884 q 366 888 351 898 q 395 858 381 878 q 418 813 408 838 q 433 765 429 788 q 437 724 438 742 q 425 703 435 707 q 372 693 408 696 q 305 690 336 690 q 228 668 260 690 q 174 610 195 646 q 143 528 152 574 q 137 437 134 483 q 151 378 138 407 q 182 325 163 349 q 227 287 201 301 q 286 273 254 273 q 319 281 297 273 q 364 294 342 290 q 402 292 387 298 q 416 254 418 285 q 410 186 414 222 q 397 122 407 149 q 371 84 388 95 q 324 95 354 73 q 293 120 304 110 q 275 138 282 130 q 261 151 267 145 q 243 160 255 156 q 86 268 136 202 q 30 444 37 334 z "},"d":{"ha":579,"x_min":19,"x_max":557,"o":"m 350 15 q 334 50 335 34 q 336 82 332 66 q 345 115 339 98 q 353 153 351 133 q 294 144 328 149 q 222 136 259 138 q 149 138 184 134 q 83 155 113 141 q 37 193 54 168 q 19 259 19 217 q 31 309 19 282 q 81 364 43 336 q 188 419 118 392 q 373 469 258 446 q 379 623 377 541 q 380 783 381 704 q 374 932 380 861 q 355 1054 368 1002 q 346 1075 353 1066 q 332 1092 339 1084 q 320 1108 326 1100 q 315 1126 315 1116 q 338 1158 315 1147 q 394 1172 362 1168 q 458 1175 426 1176 q 506 1171 490 1173 q 543 1158 533 1166 q 550 1137 552 1150 q 538 1105 548 1123 q 518 1061 528 1086 q 496 970 503 1023 q 486 863 488 918 q 484 755 483 808 q 484 661 484 701 q 487 463 486 541 q 490 333 488 384 q 494 253 491 282 q 504 203 498 224 q 520 162 510 182 q 547 111 530 142 q 550 70 557 88 q 523 37 543 52 q 476 14 503 23 q 424 3 449 5 q 378 3 399 0 q 350 15 357 5 m 136 262 q 150 238 134 245 q 191 229 165 231 q 245 231 216 228 q 300 239 274 233 q 345 254 326 245 q 368 269 363 262 l 372 373 q 230 351 278 366 q 161 318 182 335 q 138 286 140 301 q 136 262 136 270 z "},"e":{"ha":526,"x_min":34,"x_max":495,"o":"m 34 579 q 53 704 34 646 q 109 805 72 762 q 199 872 145 848 q 321 897 252 897 q 385 890 354 897 q 441 867 416 883 q 480 825 465 850 q 495 762 495 799 q 471 686 495 716 q 412 639 448 656 q 335 614 377 621 q 255 608 293 608 q 199 610 221 608 q 140 618 176 612 q 136 553 132 589 q 158 484 140 517 q 210 427 176 452 q 292 396 243 403 q 334 410 319 396 q 362 439 350 423 q 387 470 374 456 q 422 486 400 484 q 440 469 433 487 q 452 424 448 450 q 458 366 457 397 q 456 307 458 334 q 446 262 453 279 q 427 244 438 244 q 397 253 411 244 q 369 273 382 262 q 342 294 355 283 q 312 311 328 305 q 281 319 305 312 q 230 335 258 327 q 178 350 202 343 q 149 359 155 357 q 95 394 117 369 q 60 450 73 419 q 40 515 46 481 q 34 579 34 549 m 186 707 q 203 686 186 688 q 235 685 220 685 q 275 691 252 685 q 317 709 297 697 q 349 739 336 722 q 362 776 362 755 q 352 810 362 799 q 317 821 342 821 q 273 811 297 821 q 231 786 250 802 q 199 749 212 770 q 186 707 186 728 z "},"f":{"ha":526,"x_min":9,"x_max":500,"o":"m 114 104 q 121 138 114 122 q 138 169 129 153 q 155 199 148 184 q 163 231 163 214 q 163 313 163 273 q 159 415 163 353 q 134 418 148 419 q 105 416 119 418 q 78 410 91 414 q 58 403 65 407 q 30 403 41 395 q 14 427 19 411 q 9 463 9 442 q 16 498 9 483 q 31 519 22 513 q 56 517 41 526 q 102 501 72 506 q 159 496 133 496 q 157 601 159 541 q 159 723 156 661 q 173 845 161 785 q 212 952 184 905 q 285 1029 239 1000 q 403 1059 331 1058 q 411 1066 407 1059 q 420 1081 415 1073 q 431 1097 425 1089 q 444 1109 437 1105 q 463 1113 453 1115 q 481 1099 473 1111 q 495 1061 490 1086 q 500 994 500 1035 q 500 970 500 991 q 494 926 499 948 q 479 890 490 903 q 449 891 469 876 q 432 907 438 899 q 420 922 426 916 q 407 931 415 928 q 382 935 399 935 q 344 928 363 935 q 307 898 324 921 q 281 847 292 879 q 263 766 270 815 q 254 651 256 718 q 258 496 252 585 q 353 502 301 496 q 442 521 404 507 q 475 506 463 528 q 488 456 487 484 q 481 404 490 427 q 453 387 473 381 q 258 415 349 415 q 254 389 254 411 q 258 339 255 368 q 264 281 260 311 q 271 232 269 251 q 290 195 274 216 q 321 155 305 175 q 343 119 336 136 q 335 92 350 102 q 297 77 316 80 q 255 73 278 73 q 221 73 244 73 q 174 76 198 73 q 132 85 151 79 q 114 104 114 92 z "},"g":{"ha":646,"x_min":34,"x_max":608,"o":"m 45 -33 q 38 -7 34 -26 q 54 36 42 12 q 83 85 65 60 q 119 131 100 110 q 155 165 138 152 q 180 179 171 179 q 197 173 187 179 q 210 136 208 167 q 219 87 213 107 q 237 56 225 68 q 269 38 250 43 q 320 33 289 33 q 372 39 345 33 q 422 63 399 46 q 465 109 446 80 q 490 184 483 138 q 503 311 499 252 q 507 429 507 370 q 501 547 506 487 q 490 680 496 608 q 454 667 479 675 q 397 650 430 658 q 328 637 365 642 q 255 639 290 633 q 204 652 229 643 q 158 677 179 661 q 121 718 137 693 q 98 779 106 743 q 109 854 90 823 q 163 902 127 884 q 274 929 206 924 q 426 928 342 935 q 403 980 397 962 q 431 1006 408 998 q 484 1015 453 1015 q 540 1015 515 1016 q 573 1012 559 1013 q 595 1002 587 1010 q 606 975 604 993 q 604 921 608 956 q 592 781 594 842 q 591 668 590 720 q 597 566 593 616 q 604 462 601 517 q 608 340 608 407 q 602 187 608 274 q 584 77 598 123 q 541 -2 570 30 q 465 -50 511 -34 q 350 -65 418 -65 q 287 -62 328 -65 q 184 -37 245 -58 q 141 -30 161 -28 q 102 -34 121 -31 q 69 -39 84 -37 q 45 -33 54 -41 m 446 849 q 351 856 392 856 q 281 849 311 856 q 216 825 231 838 q 205 784 201 811 q 228 743 209 755 q 289 730 247 731 q 364 741 320 728 q 467 769 408 754 q 465 786 467 774 q 461 810 464 798 q 455 833 458 822 q 446 849 452 845 z "},"h":{"ha":705,"x_min":4,"x_max":686,"o":"m 491 60 q 496 91 491 76 q 508 121 502 106 q 519 150 514 136 q 522 180 524 164 q 494 279 519 243 q 431 329 468 315 q 352 337 395 343 q 271 308 309 331 q 282 210 271 243 q 305 157 293 178 q 328 119 317 137 q 339 69 339 102 q 315 27 339 41 q 259 8 290 14 q 199 3 228 3 q 161 3 170 3 q 138 12 146 3 q 130 31 130 20 q 136 103 130 61 q 150 192 142 145 q 161 288 157 239 q 161 382 165 338 l 110 863 q 94 919 107 888 q 65 978 81 949 q 35 1030 49 1006 q 15 1066 20 1054 q 13 1105 4 1092 q 33 1122 22 1118 q 72 1132 43 1126 q 133 1144 100 1138 q 194 1155 165 1150 q 235 1160 222 1160 q 275 1147 260 1160 q 282 1103 290 1134 q 264 1039 274 1069 q 245 979 254 1009 q 230 918 236 949 q 224 852 224 887 q 237 616 224 736 q 263 393 251 496 q 339 416 297 401 q 434 431 381 431 q 509 411 475 431 q 569 359 544 391 q 608 290 594 328 q 624 213 623 251 q 635 157 625 179 q 656 117 644 134 q 677 87 667 100 q 686 57 686 73 q 672 38 686 45 q 640 29 658 31 q 606 27 623 27 q 585 27 590 27 q 557 26 572 27 q 526 26 541 24 q 501 36 511 28 q 491 60 491 43 z "},"i":{"ha":345,"x_min":27,"x_max":290,"o":"m 64 -4 q 81 52 64 26 q 110 110 99 79 q 132 251 132 180 q 132 395 132 321 q 130 492 132 444 q 120 586 127 541 q 98 670 113 631 q 60 741 84 709 q 39 768 49 755 q 28 792 30 781 q 36 812 27 803 q 69 826 45 821 q 102 833 84 830 q 136 840 119 837 q 164 846 152 844 q 183 849 176 848 q 259 852 240 861 q 278 823 278 844 q 267 772 278 802 q 251 715 256 743 q 228 568 236 635 q 220 429 220 502 q 220 404 220 419 q 220 373 220 388 q 221 346 221 358 q 221 332 221 334 q 223 303 221 328 q 229 246 225 278 q 237 182 232 214 q 251 130 243 149 q 277 78 264 99 q 290 24 290 57 q 267 -3 290 8 q 212 -20 244 -14 q 149 -31 180 -27 q 102 -34 118 -34 q 77 -28 91 -34 q 64 -4 64 -23 m 69 1010 q 98 1065 69 1051 q 161 1078 126 1078 q 204 1061 190 1078 q 219 1021 218 1043 q 206 981 220 1000 q 167 962 193 963 q 130 962 148 960 q 99 968 113 963 q 77 983 85 972 q 69 1010 69 993 z "},"j":{"ha":327,"x_min":-153,"x_max":298,"o":"m -90 -233 q -129 -207 -114 -236 q -149 -140 -144 -178 q -147 -71 -153 -103 q -123 -34 -141 -38 q -96 -33 -107 -30 q -75 -42 -84 -37 q -57 -52 -65 -47 q -42 -57 -49 -57 q 56 -16 16 -56 q 121 78 96 23 q 157 191 145 133 q 175 286 170 248 q 180 338 176 302 q 186 416 184 373 q 187 506 189 460 q 178 589 186 552 q 158 654 168 631 q 136 690 148 677 q 113 713 125 704 q 90 734 102 722 q 67 768 71 753 q 68 796 64 784 q 83 817 73 808 q 104 827 94 825 q 160 843 129 836 q 220 852 191 850 q 269 847 248 854 q 296 815 290 840 q 295 780 298 803 q 287 730 292 757 q 279 675 282 703 q 277 628 275 648 q 278 563 278 610 q 277 462 278 515 q 275 361 277 408 q 273 296 274 313 q 264 199 270 251 q 247 95 259 146 q 214 -4 235 43 q 161 -88 194 -52 q 83 -147 129 -125 q -26 -170 37 -170 q -40 -179 -33 -170 q -56 -200 -47 -189 q -73 -222 -64 -212 q -90 -233 -81 -232 m 64 959 q 83 1013 64 993 q 138 1032 103 1032 q 201 972 201 1032 q 181 917 201 939 q 127 895 161 895 q 80 913 96 895 q 64 959 64 932 z "},"k":{"ha":629,"x_min":34,"x_max":612,"o":"m 39 47 q 41 85 34 66 q 61 121 49 103 q 86 159 73 140 q 104 199 99 178 q 115 269 110 221 q 125 376 121 316 q 134 504 130 437 q 142 632 138 571 q 148 741 145 693 q 152 811 151 788 q 141 989 152 928 q 116 1080 130 1050 q 90 1122 102 1109 q 75 1156 77 1135 q 88 1187 72 1176 q 128 1202 104 1198 q 177 1208 152 1207 q 217 1211 202 1208 q 242 1211 225 1213 q 276 1205 259 1210 q 306 1192 293 1200 q 319 1171 319 1184 q 311 1137 319 1152 q 292 1105 302 1122 q 272 1067 282 1089 q 256 1016 262 1046 q 242 899 245 955 q 239 787 239 842 q 241 675 239 732 q 244 553 243 618 q 290 572 266 557 q 336 602 315 586 q 375 634 358 618 q 399 659 392 650 q 423 703 414 680 q 440 745 433 726 q 455 775 448 764 q 475 785 463 787 q 509 768 492 783 q 540 736 526 754 q 562 699 553 718 q 570 669 570 680 q 572 634 575 647 q 561 614 570 621 q 536 604 552 608 q 496 594 519 600 q 463 581 480 590 q 426 558 445 571 q 389 531 407 545 q 354 505 370 517 q 374 474 354 499 q 418 418 393 449 q 468 359 444 388 q 503 320 492 331 q 549 291 524 300 q 591 273 574 282 q 610 245 609 263 q 583 187 612 227 q 547 146 570 168 q 503 117 525 125 q 464 121 480 109 q 446 184 448 134 q 427 247 446 209 q 378 323 408 285 q 312 395 349 362 q 239 441 275 427 q 223 349 227 391 q 222 273 220 307 q 230 212 224 239 q 241 167 236 186 q 254 138 247 151 q 269 117 262 126 q 282 98 277 107 q 288 79 288 90 q 266 47 288 58 q 215 30 244 35 q 157 24 186 24 q 113 23 127 23 q 99 24 110 23 q 76 26 88 24 q 53 33 64 28 q 39 47 42 38 z "},"l":{"ha":315,"x_min":30,"x_max":308,"o":"m 186 57 q 145 55 167 56 q 106 60 123 54 q 81 79 90 65 q 84 123 73 94 q 117 283 111 202 q 123 450 123 365 q 123 550 123 494 q 122 668 123 606 q 117 793 121 730 q 107 913 114 856 q 90 1017 100 970 q 65 1092 80 1063 q 49 1122 57 1105 q 35 1154 41 1139 q 32 1181 30 1169 q 46 1198 34 1194 q 121 1213 79 1208 q 229 1218 164 1217 q 262 1203 256 1218 q 264 1165 269 1188 q 252 1115 260 1142 q 240 1066 243 1088 q 224 908 231 997 q 217 720 218 819 q 220 514 216 620 q 237 307 225 408 q 248 249 241 271 q 262 209 254 227 q 279 173 270 191 q 300 129 289 155 q 297 95 308 109 q 267 73 286 81 q 224 62 247 65 q 186 57 201 58 z "},"m":{"ha":924,"x_min":24,"x_max":898,"o":"m 783 57 q 725 71 742 61 q 707 96 708 81 q 715 131 707 111 q 734 174 724 151 q 770 297 754 222 q 789 448 785 372 q 789 534 792 492 q 777 609 787 576 q 751 662 768 642 q 708 685 734 682 q 641 657 675 689 q 579 578 606 625 q 534 480 552 532 q 517 392 517 429 q 526 343 517 369 q 536 297 536 317 q 518 263 536 277 q 448 251 500 250 q 389 277 400 258 q 384 321 378 297 q 402 370 389 346 q 415 412 415 395 q 401 586 416 526 q 359 667 385 646 q 301 680 334 689 q 236 646 269 670 q 229 573 232 614 q 223 488 225 532 q 220 402 221 444 q 220 330 220 361 q 224 241 216 273 q 243 191 233 210 q 262 157 254 172 q 266 117 270 142 q 250 90 266 98 q 214 79 235 81 q 170 79 193 77 q 134 80 148 80 q 68 99 80 80 q 63 145 56 118 q 87 201 71 172 q 106 248 103 229 q 118 380 114 298 q 121 548 122 463 q 113 705 119 633 q 98 807 107 777 q 72 848 91 827 q 39 889 53 869 q 24 925 24 909 q 54 952 24 941 q 143 976 106 970 q 227 982 180 982 q 265 977 245 982 q 285 947 285 971 q 277 914 285 932 q 260 876 270 897 q 243 831 251 854 q 236 780 236 807 l 236 770 q 415 768 355 814 q 480 579 475 722 q 522 658 498 617 q 579 730 545 699 q 659 774 613 761 q 768 770 705 788 q 822 730 800 761 q 857 656 844 700 q 874 562 869 613 q 879 460 879 510 q 876 368 879 412 q 871 283 873 323 q 871 212 869 244 q 880 159 872 180 q 897 92 897 115 q 885 60 898 69 q 846 52 872 50 q 783 57 821 53 z "},"n":{"ha":680,"x_min":35,"x_max":658,"o":"m 171 75 q 100 85 115 75 q 87 113 84 95 q 104 156 91 132 q 118 208 117 180 q 124 345 122 285 q 125 453 126 404 q 121 543 125 502 q 107 627 117 585 q 83 714 98 669 q 47 817 69 760 q 39 841 43 827 q 35 867 35 854 q 40 888 35 879 q 60 901 45 898 l 168 920 q 231 922 212 928 q 256 899 251 917 q 255 847 260 880 q 245 766 250 814 q 302 809 271 793 q 367 831 334 825 q 432 834 400 837 q 492 822 464 831 q 565 762 541 806 q 597 665 589 718 q 604 560 605 612 q 605 476 604 509 q 614 380 608 418 q 629 319 621 343 q 644 281 636 296 q 654 256 651 267 q 657 234 658 245 q 648 203 656 222 q 627 184 643 191 q 593 173 612 176 q 554 168 574 170 q 521 167 534 167 q 473 193 480 167 q 477 260 465 218 q 492 325 487 297 q 500 382 498 353 q 502 445 502 411 q 502 526 502 479 q 498 595 502 557 q 482 664 495 632 q 446 717 469 696 q 381 738 422 738 q 326 724 349 738 q 288 687 304 709 q 258 637 271 665 q 232 585 245 610 q 232 498 232 540 q 233 412 232 456 q 235 321 233 369 q 241 220 237 274 q 249 194 243 205 q 262 172 255 183 q 275 150 269 161 q 281 123 281 138 q 269 94 281 104 q 239 80 256 84 q 203 75 221 76 q 171 75 184 75 z "},"o":{"ha":452,"x_min":37,"x_max":427,"o":"m 37 526 q 52 603 37 564 q 92 673 66 642 q 153 725 118 705 q 229 745 189 745 q 306 731 270 745 q 369 690 342 718 q 412 623 396 663 q 426 530 427 583 q 406 432 425 475 q 357 360 388 389 q 287 316 327 331 q 205 301 247 301 q 130 321 161 301 q 77 374 98 342 q 47 447 57 407 q 37 526 37 487 m 190 513 q 191 481 190 498 q 197 452 191 465 q 212 431 202 439 q 243 422 222 422 q 294 432 273 422 q 330 458 316 442 q 349 496 343 475 q 353 537 354 517 q 319 632 347 605 q 252 659 292 659 q 218 642 231 659 q 200 600 206 624 q 192 551 194 575 q 190 513 190 526 z "},"p":{"ha":650,"x_min":18,"x_max":624,"o":"m 100 -225 q 46 -210 56 -225 q 44 -171 37 -194 q 66 -121 52 -148 q 87 -72 81 -95 q 111 71 100 -11 q 123 242 121 152 q 119 425 126 332 q 95 600 113 517 q 77 641 90 624 q 51 673 64 658 q 28 704 38 689 q 18 738 18 719 q 45 770 18 757 q 109 792 73 784 q 177 804 144 800 q 222 807 210 807 q 264 790 256 807 q 266 750 271 773 q 250 702 260 727 q 239 659 240 677 q 304 675 264 669 q 387 682 343 681 q 475 674 431 682 q 553 646 519 666 q 605 594 586 627 q 618 511 624 562 q 574 425 612 458 q 482 380 537 392 q 361 377 427 368 q 232 418 294 387 q 220 298 222 353 q 217 179 217 244 q 225 40 217 91 q 243 -45 233 -11 q 261 -102 254 -79 q 269 -159 269 -126 q 248 -187 269 -175 q 199 -208 227 -199 q 143 -220 171 -216 q 100 -225 115 -225 m 235 574 q 265 517 241 538 q 319 486 289 496 q 382 476 349 476 q 443 484 415 476 q 489 507 471 492 q 507 543 507 522 q 473 584 507 571 q 392 597 438 597 q 301 591 346 598 q 235 574 256 583 z "},"q":{"ha":647,"x_min":19,"x_max":726,"o":"m 612 -46 q 507 -12 547 -46 q 445 76 467 23 q 416 195 423 129 q 408 325 408 260 q 410 445 407 389 q 410 533 412 500 q 342 524 382 528 q 259 524 302 521 q 172 536 216 526 q 95 566 129 545 q 40 618 61 586 q 22 699 19 651 q 47 775 24 745 q 104 824 69 806 q 182 850 138 842 q 272 856 227 857 q 360 846 317 854 q 435 825 403 838 q 427 848 435 837 q 418 887 418 860 q 435 922 418 911 q 475 935 452 933 q 523 932 499 937 q 562 920 547 928 q 597 904 578 911 q 626 882 617 897 q 627 841 635 867 q 582 769 620 815 q 567 737 572 758 q 558 692 562 716 q 552 644 555 667 q 547 605 549 621 q 530 494 537 552 q 520 378 524 437 q 518 263 517 320 q 526 156 519 206 q 541 117 529 136 q 568 86 552 98 q 600 75 583 75 q 628 94 616 75 q 653 121 639 110 q 680 134 667 132 q 703 128 693 136 q 713 103 712 121 q 718 34 715 60 q 724 -7 722 8 q 725 -29 726 -22 q 720 -45 724 -37 q 696 -64 709 -61 q 668 -64 682 -68 q 639 -54 654 -60 q 612 -46 624 -47 m 152 690 q 168 646 152 662 q 208 621 184 629 q 256 609 232 612 q 297 606 281 606 q 356 612 328 606 q 405 631 384 617 q 438 667 426 644 q 450 723 450 689 q 376 753 426 743 q 277 760 327 762 q 189 740 227 757 q 152 690 152 723 z "},"r":{"ha":576,"x_min":12,"x_max":557,"o":"m 164 62 q 115 66 137 62 q 83 85 94 71 q 75 124 72 99 q 102 193 79 149 q 117 249 113 213 q 122 330 121 285 q 122 429 123 376 q 121 536 121 481 q 116 606 121 575 q 100 666 111 637 q 71 724 90 694 q 27 787 53 753 q 16 800 20 791 q 13 819 12 810 q 19 835 14 827 q 37 845 24 842 q 76 852 60 849 q 106 859 92 856 q 137 865 121 861 q 176 872 153 868 q 195 871 183 873 q 215 862 206 869 q 228 842 224 854 q 224 808 232 829 q 221 790 221 803 q 221 762 221 777 q 220 734 221 747 q 218 718 220 722 q 293 764 240 742 q 406 789 346 787 q 422 798 414 789 q 438 816 430 806 q 456 838 446 826 q 476 857 465 849 q 520 861 502 876 q 548 802 538 845 q 556 749 555 768 q 555 715 557 731 q 532 677 549 686 q 496 670 515 669 q 456 678 476 671 q 427 689 437 685 q 323 665 368 689 q 252 590 279 640 q 224 516 236 557 q 208 428 213 475 q 205 330 203 381 q 218 231 208 279 q 230 202 222 213 q 246 180 237 191 q 263 154 255 168 q 275 115 271 140 q 263 89 278 99 q 228 73 248 79 q 189 64 208 66 q 164 62 170 62 z "},"s":{"ha":628,"x_min":23,"x_max":581,"o":"m 153 244 q 116 255 138 254 q 73 259 94 256 q 38 270 53 262 q 23 301 23 278 q 30 325 24 316 q 50 344 35 334 q 89 370 64 354 q 157 412 114 385 q 187 431 171 422 q 218 441 203 441 q 242 427 232 441 q 255 374 252 412 q 265 318 256 347 q 289 265 274 289 q 326 227 304 241 q 377 212 349 212 q 432 232 419 212 q 441 280 445 252 q 421 337 437 308 q 392 384 406 366 q 324 456 365 419 q 246 531 283 492 q 182 612 209 570 q 157 700 155 654 q 178 785 157 749 q 233 849 199 822 q 308 894 267 876 q 388 921 349 911 q 438 941 419 929 q 471 963 457 952 q 499 981 486 974 q 536 989 513 989 q 557 972 549 989 q 568 928 564 955 q 572 872 572 902 q 566 816 571 842 q 553 772 562 789 q 532 755 544 755 q 494 764 511 755 q 460 781 476 772 q 427 799 444 791 q 389 807 410 807 q 350 801 370 807 q 313 783 330 795 q 284 753 296 770 q 273 715 273 736 q 279 674 273 694 q 298 634 286 654 q 323 597 309 614 q 349 566 336 579 q 416 504 376 534 q 492 439 456 473 q 555 365 529 404 q 581 278 581 326 q 564 201 581 237 q 521 136 548 164 q 456 93 494 109 q 377 77 419 77 q 308 94 338 77 q 252 135 278 110 q 203 189 227 160 q 153 244 179 218 z "},"t":{"ha":663,"x_min":30,"x_max":642,"o":"m 245 530 q 176 541 202 544 q 134 528 151 537 q 103 511 117 519 q 69 503 90 502 q 50 519 58 503 q 36 556 41 534 q 31 603 31 578 q 33 649 30 628 q 45 683 37 670 q 66 694 53 696 q 98 680 87 690 q 127 658 110 669 q 172 640 144 647 q 252 636 199 632 q 281 776 267 722 q 307 868 296 830 q 321 920 316 899 q 328 956 327 940 q 326 989 330 972 q 316 1027 323 1005 q 308 1065 311 1044 q 310 1103 305 1086 q 331 1130 315 1120 q 378 1134 347 1139 q 431 1123 400 1130 q 492 1104 463 1116 q 541 1072 521 1092 q 562 1024 562 1053 q 549 996 562 1005 q 518 981 536 987 q 483 966 500 974 q 456 943 465 959 q 421 870 437 910 q 393 789 406 830 q 372 708 380 747 q 359 636 363 669 q 400 635 381 636 q 439 635 419 633 q 479 645 458 637 q 525 671 500 652 q 554 680 543 685 q 573 658 566 674 q 583 620 581 642 q 585 578 585 598 q 584 548 585 566 q 578 514 583 530 q 564 486 574 498 q 536 473 555 473 q 498 484 514 473 q 464 507 483 495 q 419 528 445 519 q 351 530 393 536 q 347 437 346 491 q 350 321 347 382 q 372 202 353 256 q 419 116 391 148 q 482 79 448 84 q 553 109 517 75 q 581 128 567 121 q 608 136 595 136 q 630 130 621 137 q 640 103 639 122 q 642 60 642 84 q 639 11 642 37 q 630 -39 636 -15 q 614 -81 624 -62 q 593 -100 604 -100 q 568 -92 582 -100 q 539 -71 555 -83 q 506 -56 524 -60 q 391 -8 438 -41 q 315 68 345 24 q 269 163 285 111 q 247 270 254 216 q 241 417 237 347 q 245 530 244 487 z "},"u":{"ha":719,"x_min":52,"x_max":694,"o":"m 593 281 q 566 281 581 281 q 537 286 551 282 q 515 300 524 290 q 509 331 506 311 q 515 372 511 357 q 521 401 518 387 q 525 433 524 415 q 525 481 526 450 q 500 438 517 464 q 456 391 483 412 q 393 357 430 369 q 308 355 357 345 q 227 385 259 366 q 175 437 195 404 q 144 518 155 469 q 127 639 133 567 q 121 728 123 699 q 117 772 119 757 q 111 796 115 787 q 95 826 106 806 q 61 897 71 869 q 61 941 52 925 q 102 964 71 958 q 191 971 133 971 q 239 966 218 971 q 260 926 260 960 q 254 882 260 906 q 241 831 248 857 q 227 777 233 806 q 221 720 221 749 q 226 639 221 684 q 245 554 231 594 q 290 487 260 514 q 368 460 319 460 q 437 492 410 460 q 480 568 464 524 q 503 660 496 613 q 510 736 510 707 q 500 802 510 774 q 481 853 491 830 q 463 899 471 876 q 460 947 456 921 q 477 974 463 966 q 510 983 491 982 q 549 983 529 985 q 586 981 570 981 q 636 962 618 981 q 640 894 654 944 q 621 831 628 852 q 609 791 613 811 q 606 744 605 772 q 610 661 606 716 q 623 559 614 604 q 642 485 632 515 q 660 436 651 454 q 673 411 669 418 q 690 371 685 393 q 687 328 694 349 q 657 294 680 308 q 593 281 635 281 z "},"v":{"ha":850,"x_min":31,"x_max":856,"o":"m 355 274 q 333 297 334 285 q 338 323 332 309 q 352 353 345 338 q 354 388 359 369 q 300 492 330 434 q 243 603 271 549 q 186 699 214 656 q 137 758 159 742 q 89 793 107 780 q 60 816 71 807 q 44 831 49 825 q 35 846 39 837 q 52 878 31 856 q 100 922 72 899 q 158 962 129 944 q 202 981 187 979 q 243 977 231 982 q 259 954 255 971 q 264 905 263 936 q 271 825 264 873 q 292 752 274 798 q 336 656 311 707 q 389 559 361 606 q 439 486 416 513 q 494 550 465 505 q 551 648 524 595 q 601 753 578 701 q 636 837 624 804 q 657 901 650 872 q 673 946 665 929 q 696 967 682 963 q 738 959 711 971 q 768 941 755 951 q 792 918 781 930 q 814 890 803 906 q 840 856 825 875 q 849 821 856 834 q 823 798 842 808 q 779 776 804 788 q 735 742 754 764 q 680 673 709 713 q 624 588 651 633 q 573 494 597 543 q 534 400 549 446 q 541 385 536 393 q 551 363 545 376 q 559 334 556 350 q 562 297 563 317 q 533 274 560 281 q 471 266 506 267 q 401 267 435 264 q 355 274 368 270 z "},"w":{"ha":983,"x_min":18,"x_max":949,"o":"m 212 298 q 208 337 213 311 q 195 397 203 363 q 174 469 186 431 q 151 538 163 506 q 127 596 138 571 q 110 631 117 621 q 45 715 72 681 q 23 765 18 749 q 65 803 30 784 q 144 834 100 822 q 229 848 189 846 q 289 834 270 850 q 296 790 307 818 q 269 728 286 762 q 239 661 252 694 q 241 598 227 627 q 251 549 243 586 q 269 471 259 513 q 288 392 279 429 q 301 345 297 355 l 426 640 q 432 656 427 646 q 444 678 437 667 q 458 698 450 689 q 473 708 467 707 q 518 691 492 711 q 573 640 544 671 q 631 569 602 608 q 687 494 661 530 q 735 430 713 458 q 770 392 757 401 q 770 566 770 479 q 764 746 769 652 q 755 774 762 762 q 741 797 749 787 q 728 819 734 807 q 722 846 722 830 q 741 875 722 865 q 787 889 760 884 q 842 895 814 894 q 891 901 871 897 q 921 899 907 903 q 942 884 935 894 q 948 858 949 873 q 933 823 947 842 q 918 791 925 811 q 905 747 910 770 q 898 700 901 723 q 895 661 895 677 l 895 324 q 909 261 895 292 q 928 206 922 231 q 920 167 933 182 q 853 152 907 152 q 826 151 842 152 q 793 151 810 149 q 766 159 777 152 q 754 183 754 165 q 730 286 754 237 q 669 381 705 335 q 591 473 632 427 q 517 568 549 519 l 397 267 q 382 208 382 232 q 376 170 381 184 q 353 149 370 156 q 292 141 336 142 q 262 144 279 141 q 231 153 245 146 q 205 172 216 160 q 198 201 195 184 l 212 298 z "},"x":{"ha":743,"x_min":38,"x_max":719,"o":"m 83 209 q 100 235 88 228 q 135 264 111 243 q 197 336 159 286 q 292 487 235 385 q 218 589 250 552 q 164 646 187 627 q 125 672 141 665 q 96 684 109 680 q 75 694 84 688 q 54 719 65 700 q 55 774 38 747 q 100 821 72 802 q 157 848 127 840 q 197 848 186 856 q 230 798 218 829 q 254 730 241 768 q 290 650 267 692 q 357 571 312 609 q 421 680 406 628 q 444 772 437 732 q 460 833 450 811 q 511 854 471 856 q 548 846 529 854 q 583 824 567 837 q 608 795 598 811 q 618 765 618 780 q 606 721 618 736 q 570 682 594 705 q 509 616 547 658 q 420 495 472 574 q 496 395 458 434 q 568 330 533 355 q 631 291 602 305 q 679 267 659 277 q 709 246 699 256 q 715 221 719 236 q 702 193 712 208 q 677 163 692 178 q 646 138 663 149 q 613 119 629 126 q 570 134 587 109 q 528 204 552 160 q 467 302 503 248 q 365 404 430 357 q 331 368 351 393 q 291 312 311 342 q 258 252 271 282 q 243 202 244 222 q 239 161 241 182 q 229 124 237 140 q 203 102 220 109 q 157 106 187 96 q 95 142 118 118 q 83 209 72 165 z "},"y":{"ha":572,"x_min":22,"x_max":549,"o":"m 151 3 q 152 43 142 31 q 181 62 161 56 q 226 74 201 69 q 275 91 251 79 q 339 163 312 109 q 385 288 366 218 q 414 435 404 358 q 423 574 423 511 q 399 543 414 562 q 363 506 384 524 q 317 475 343 488 q 260 463 290 463 q 184 482 213 463 q 138 532 155 502 q 115 601 122 563 q 104 675 107 639 q 97 744 100 712 q 84 793 94 776 q 60 831 77 807 q 33 880 43 856 q 26 921 22 903 q 65 939 30 939 q 106 940 79 939 q 163 939 134 941 q 212 929 191 937 q 233 901 233 921 q 224 870 233 883 q 206 845 216 857 q 189 819 197 833 q 183 788 180 806 q 202 682 191 724 q 227 614 213 639 q 256 583 240 590 q 289 583 271 576 q 339 616 317 595 q 376 665 361 637 q 400 723 392 692 q 408 785 408 754 q 406 859 412 834 q 391 898 400 883 q 372 925 381 913 q 361 962 362 937 q 378 988 359 979 q 422 1000 397 997 q 472 1004 448 1004 q 507 1002 496 1004 q 541 990 533 1000 q 549 966 549 981 q 544 929 549 951 q 537 880 538 907 q 519 633 528 739 q 503 446 511 526 q 484 306 495 365 q 460 201 473 247 q 428 116 446 155 q 385 39 410 77 q 368 6 374 22 q 356 -24 361 -9 q 345 -54 351 -39 q 330 -83 339 -69 q 299 -106 316 -102 q 263 -104 282 -110 q 225 -84 244 -98 q 191 -55 206 -71 q 164 -24 175 -39 q 151 3 153 -8 z "},"z":{"ha":591,"x_min":12,"x_max":568,"o":"m 444 206 q 415 208 437 209 q 387 208 393 208 q 278 197 331 208 q 171 187 225 187 q 90 208 102 187 q 110 288 77 228 l 335 734 q 336 754 343 747 q 315 763 328 761 q 286 764 302 765 q 260 764 270 764 q 183 760 212 768 q 135 740 155 751 q 98 719 115 728 q 56 711 81 709 q 22 741 27 712 q 17 772 19 753 q 14 813 15 792 q 13 854 14 834 q 12 884 12 873 q 24 916 12 903 q 56 916 37 928 q 91 901 68 907 q 140 888 114 894 q 192 880 167 883 q 233 878 217 878 q 343 879 285 875 q 452 883 401 883 q 477 878 468 883 q 489 864 486 872 q 493 848 492 856 q 494 834 494 840 q 483 803 494 821 q 452 753 472 785 q 403 671 431 722 q 338 543 374 621 q 310 481 328 521 q 274 402 292 442 q 243 331 256 362 q 229 296 229 300 q 256 296 236 296 q 298 298 275 297 q 340 300 320 298 q 366 301 359 301 q 433 319 407 304 q 477 353 458 335 q 510 385 495 370 q 547 399 525 399 q 564 395 560 399 q 568 370 568 391 l 568 197 q 563 164 568 179 q 549 149 557 149 q 523 157 537 149 q 494 174 509 164 q 467 193 480 184 q 444 206 453 202 z "},"":{"ha":815,"x_min":28,"x_max":777,"o":"m 658 370 q 629 376 643 370 q 603 391 616 382 q 576 406 590 399 q 547 416 563 414 q 503 420 529 419 q 444 422 476 422 q 376 420 412 422 q 307 416 340 419 q 354 314 324 353 q 418 255 384 275 q 486 230 452 235 q 547 229 519 225 q 576 241 563 232 q 602 262 589 251 q 629 282 614 273 q 667 294 644 292 q 694 277 685 297 q 705 224 703 256 q 703 153 707 191 q 689 80 699 114 q 666 22 680 46 q 636 -3 652 -1 q 607 4 621 -5 q 579 28 593 14 q 553 56 566 42 q 529 75 541 69 q 302 157 385 77 q 195 396 218 236 l 195 397 q 174 391 184 395 q 157 384 164 388 q 76 355 100 354 q 45 376 52 357 q 41 427 38 396 q 39 488 43 458 q 46 557 31 541 q 87 572 61 574 q 140 557 113 570 q 186 538 168 544 q 189 616 186 578 q 199 693 193 655 q 180 690 191 693 q 152 680 164 688 q 127 663 140 671 q 102 649 115 655 q 75 643 90 643 q 48 655 56 642 q 38 680 41 669 q 32 726 35 696 q 29 784 28 755 q 36 833 30 812 q 57 854 42 854 q 88 849 73 854 q 118 836 103 844 q 148 819 133 827 q 182 806 163 810 q 224 798 199 800 q 280 930 245 868 q 363 1039 315 993 q 477 1112 412 1085 q 621 1137 541 1138 q 647 1143 633 1137 q 674 1158 661 1149 q 701 1174 688 1166 q 724 1184 713 1181 q 755 1168 743 1187 q 772 1121 768 1150 q 777 1057 777 1092 q 774 991 777 1021 q 764 941 770 962 q 749 921 757 921 q 718 932 728 921 q 695 960 707 944 q 665 991 684 975 q 612 1016 647 1008 q 530 1013 570 1027 q 454 968 490 1000 q 387 892 418 937 q 335 792 357 846 q 431 800 382 793 q 522 817 479 806 q 547 827 532 819 q 581 842 563 834 q 618 853 600 849 q 652 852 637 857 q 675 827 667 846 q 681 772 684 808 q 682 730 680 751 q 686 691 685 709 q 685 659 688 673 q 671 640 682 646 q 635 640 659 635 q 572 665 612 646 q 522 680 552 674 q 455 690 491 686 q 380 696 419 694 q 305 699 342 699 q 289 540 285 618 q 290 519 289 526 q 422 515 357 513 q 534 532 487 518 q 567 546 552 537 q 596 563 582 555 q 625 577 610 571 q 655 583 639 583 q 678 562 670 583 q 690 513 686 541 q 692 454 693 484 q 690 408 692 425 q 683 384 689 397 q 658 370 677 370 z "},":":{"ha":304,"x_min":76,"x_max":250,"o":"m 83 595 q 89 640 81 623 q 109 665 96 656 q 140 677 122 674 q 179 681 159 681 q 229 658 212 681 q 247 608 245 635 q 234 557 248 581 q 190 532 220 533 q 115 543 146 529 q 83 595 84 556 m 76 296 q 85 336 76 320 q 111 361 95 351 q 146 374 126 370 q 187 377 165 377 q 235 354 221 377 q 246 302 250 331 q 224 250 243 274 q 174 224 206 225 q 102 237 129 221 q 76 296 76 254 z "},".":{"ha":316,"x_min":71,"x_max":244,"o":"m 71 129 q 80 169 71 153 q 105 194 90 184 q 140 207 121 203 q 182 210 160 210 q 230 187 216 210 q 241 136 244 164 q 219 83 237 107 q 168 57 201 58 q 97 71 123 54 q 71 129 71 87 z "},"!":{"ha":298,"x_min":30,"x_max":263,"o":"m 241 1145 q 235 1116 241 1130 q 221 1089 229 1103 q 205 1061 213 1076 q 195 1031 198 1047 q 191 960 191 1012 q 191 840 190 907 q 194 696 191 772 q 202 552 197 620 q 215 433 208 484 q 233 362 222 381 q 262 283 263 308 q 241 251 260 259 q 191 242 222 243 q 130 235 160 241 q 73 230 92 225 q 48 248 54 235 q 46 281 42 262 q 57 321 50 301 q 71 357 64 340 q 81 384 79 374 q 93 458 88 411 q 100 564 98 506 q 104 687 103 623 q 102 812 104 751 q 95 924 100 872 q 81 1009 90 975 q 68 1040 77 1027 q 51 1067 60 1054 q 36 1093 42 1080 q 30 1123 30 1107 q 51 1149 30 1139 q 100 1164 72 1158 q 158 1173 129 1171 q 203 1175 187 1175 q 228 1169 214 1175 q 241 1145 241 1164 m 244 73 q 216 19 244 33 q 152 5 187 5 q 106 22 123 5 q 86 59 90 38 q 96 102 83 80 q 141 136 109 123 q 177 140 159 142 q 210 128 195 137 q 235 105 225 119 q 244 73 244 91 z "},"#":{"ha":947,"x_min":79,"x_max":886,"o":"m 113 589 q 87 604 94 590 q 80 628 81 617 q 79 674 79 644 q 83 732 80 704 q 96 781 87 761 q 119 800 104 802 q 149 792 136 799 q 176 776 163 785 q 205 757 190 766 q 237 742 220 747 q 268 732 252 736 q 301 724 283 728 q 296 757 298 742 q 290 785 293 772 q 277 817 286 803 q 260 843 269 830 q 245 869 251 856 q 239 899 239 883 q 260 925 239 916 q 309 941 281 935 q 367 949 338 947 q 412 951 396 951 q 437 945 423 951 q 450 921 450 940 q 444 892 450 906 q 430 865 438 879 q 414 838 422 852 q 404 807 407 823 q 400 768 401 793 q 399 711 399 743 q 487 704 442 705 q 574 704 532 703 q 572 772 572 743 q 570 815 571 800 q 561 844 568 831 q 545 869 553 857 q 529 895 536 882 q 522 922 522 907 q 536 948 522 941 q 560 958 549 955 q 606 961 576 959 q 663 962 635 963 q 713 954 692 960 q 734 930 734 947 q 728 900 734 914 q 713 871 722 886 q 697 842 705 857 q 685 810 689 827 q 670 711 674 764 q 693 713 682 712 q 715 718 704 715 q 741 726 724 719 q 777 739 758 732 q 815 747 796 745 q 848 742 834 749 q 869 716 863 735 q 868 661 875 697 q 865 600 863 631 q 859 549 867 568 q 828 530 852 529 q 747 563 804 530 q 713 576 735 570 q 665 589 692 582 q 666 517 665 552 q 670 446 667 481 q 723 452 700 449 q 760 463 746 456 q 840 486 817 488 q 871 463 864 483 q 876 412 878 444 q 879 351 873 381 q 880 295 886 313 q 859 271 873 277 q 826 271 845 266 q 788 284 807 275 q 753 302 769 293 q 727 313 736 311 q 705 319 716 316 q 684 324 694 321 q 689 298 686 309 q 694 275 692 286 q 711 233 697 260 q 730 177 726 205 q 720 131 735 149 q 648 118 705 113 q 589 116 618 121 q 541 117 559 111 q 520 146 522 122 q 543 232 518 171 q 553 277 549 247 q 562 346 557 307 q 488 354 526 351 q 414 358 450 357 q 425 279 419 313 q 441 229 431 244 q 469 151 471 175 q 449 118 468 126 q 399 109 430 110 q 338 102 368 109 q 281 97 300 92 q 256 115 262 102 q 254 149 250 129 q 264 188 258 168 q 279 224 271 208 q 289 251 286 241 q 304 355 298 293 q 275 353 289 354 q 250 349 262 351 q 217 338 232 346 q 189 323 202 331 q 161 309 175 315 q 132 305 148 304 q 107 328 115 307 q 96 379 99 350 q 92 437 92 408 q 94 483 92 467 q 101 507 95 494 q 126 518 107 519 q 154 510 141 517 q 180 494 167 503 q 206 477 193 486 q 236 464 220 468 q 311 453 262 457 q 311 628 315 540 q 222 628 248 631 q 193 618 206 625 q 166 605 179 612 q 140 593 153 598 q 113 589 127 587 m 399 623 q 401 535 399 581 q 406 446 403 490 q 568 442 484 442 q 572 524 571 481 q 572 605 572 566 q 486 616 530 612 q 399 623 441 620 z "},"-":{"ha":772,"x_min":56,"x_max":715,"o":"m 102 503 q 75 515 83 502 q 65 540 68 529 q 59 586 62 556 q 56 644 56 616 q 63 694 57 673 q 84 715 69 715 q 115 709 100 715 q 145 696 130 704 q 175 679 160 688 q 209 666 190 670 q 285 654 243 658 q 373 652 327 651 q 465 660 419 654 q 549 677 510 666 q 574 686 559 678 q 608 702 590 694 q 646 713 627 709 q 680 712 665 718 q 703 688 694 707 q 708 632 711 669 q 709 591 707 612 q 713 551 712 570 q 712 519 715 533 q 698 500 709 506 q 663 500 686 495 q 600 525 639 506 q 514 547 568 538 q 401 557 460 555 q 289 558 342 560 q 208 551 236 556 q 179 540 191 548 q 155 524 167 532 q 130 509 142 515 q 102 503 117 503 z "},"=":{"ha":760,"x_min":52,"x_max":716,"o":"m 98 612 q 71 624 79 610 q 61 648 64 637 q 55 694 58 665 q 52 753 52 724 q 59 802 53 781 q 80 823 65 823 q 111 818 96 823 q 141 804 126 812 q 171 787 156 796 q 205 774 186 779 q 281 763 239 766 q 369 761 323 760 q 460 768 415 762 q 545 785 506 774 q 570 795 555 787 q 604 810 586 803 q 642 822 623 818 q 675 821 661 826 q 699 796 690 815 q 704 741 707 777 q 705 699 703 720 q 709 660 708 678 q 708 628 711 642 q 694 609 705 614 q 659 609 682 604 q 595 633 635 614 q 510 655 564 647 q 397 666 456 663 q 285 667 338 669 q 203 659 232 665 q 175 648 187 656 q 151 632 163 640 q 125 618 138 624 q 98 612 113 612 m 681 339 q 652 345 666 339 q 626 359 639 351 q 600 375 613 368 q 570 385 586 382 q 488 391 541 391 q 376 389 434 392 q 264 376 317 385 q 180 353 210 368 q 99 324 123 323 q 68 345 75 326 q 64 396 61 365 q 62 457 66 427 q 71 528 53 513 q 116 540 88 544 q 173 522 144 536 q 217 506 202 509 q 304 490 258 495 q 395 485 350 486 q 483 488 441 484 q 557 500 525 492 q 590 515 575 506 q 619 532 605 524 q 648 546 633 540 q 678 552 662 552 q 701 531 693 552 q 713 481 709 510 q 715 423 716 453 q 713 377 715 393 q 706 353 712 366 q 681 339 700 339 z "},"+":{"ha":764,"x_min":56,"x_max":715,"o":"m 507 321 q 496 294 509 302 q 472 283 483 286 q 426 275 456 279 q 368 271 396 271 q 317 277 339 271 q 296 297 296 282 q 300 328 294 313 q 313 358 305 343 q 329 389 321 373 q 340 423 336 404 q 349 486 347 452 q 350 559 351 521 q 269 557 307 559 q 208 551 231 555 q 179 540 191 548 q 155 524 167 532 q 130 509 142 515 q 102 503 117 503 q 75 515 83 502 q 65 540 68 529 q 59 586 62 556 q 56 644 56 616 q 63 694 57 673 q 84 715 69 715 q 115 709 100 715 q 145 696 130 704 q 175 679 160 688 q 209 666 190 670 q 271 656 236 659 q 342 652 305 652 q 332 710 338 682 q 319 764 327 738 q 300 804 315 777 q 279 859 285 831 q 288 905 273 886 q 358 924 302 925 q 419 930 388 924 q 471 931 450 936 q 493 903 491 926 q 469 818 495 879 q 452 748 458 791 q 444 658 446 705 q 498 665 471 661 q 549 677 525 670 q 574 686 559 678 q 608 702 590 694 q 646 713 627 709 q 680 712 665 718 q 703 688 694 707 q 708 632 711 669 q 709 591 707 612 q 713 551 712 570 q 712 519 715 533 q 698 500 709 506 q 663 500 686 495 q 600 525 639 506 q 532 543 574 536 q 442 555 490 551 q 447 480 444 514 q 456 426 450 446 q 468 397 460 410 q 485 373 476 385 q 500 349 494 361 q 507 321 507 336 z "},"":{"ha":712,"x_min":9,"x_max":692,"o":"m 347 46 q 239 36 277 37 q 186 47 202 35 q 168 89 170 60 q 165 170 165 118 q 165 220 165 190 q 164 282 165 250 q 161 349 163 315 q 159 415 160 384 q 134 418 148 419 q 105 416 119 418 q 78 410 91 414 q 58 403 65 407 q 30 403 41 395 q 14 427 19 411 q 9 463 9 442 q 16 498 9 483 q 31 519 22 513 q 56 517 41 526 q 102 501 72 506 q 159 496 133 496 q 158 606 159 541 q 162 739 157 670 q 180 878 167 808 q 222 1001 194 947 q 298 1089 251 1055 q 416 1124 345 1123 q 425 1131 420 1124 q 433 1146 429 1138 q 444 1162 438 1154 q 457 1175 450 1171 q 477 1178 467 1180 q 495 1164 487 1176 q 509 1126 503 1152 q 514 1059 514 1100 q 513 1035 514 1057 q 508 991 513 1013 q 493 955 503 968 q 463 956 483 941 q 446 972 452 964 q 434 987 439 981 q 420 996 429 993 q 396 1000 412 1000 q 357 993 377 1000 q 320 963 338 986 q 292 902 305 944 q 270 799 279 860 q 256 661 260 738 q 258 496 252 585 q 353 502 301 496 q 442 521 404 507 q 475 506 463 528 q 488 456 487 484 q 481 404 490 427 q 453 387 473 381 q 258 415 349 415 q 256 371 254 408 q 262 288 258 334 q 271 199 266 243 q 275 137 275 156 q 338 139 305 136 q 406 149 372 142 q 471 163 439 155 q 529 179 503 171 q 570 197 543 183 q 625 216 598 212 q 672 205 652 221 q 688 134 692 190 q 684 75 686 103 q 673 28 682 46 q 642 7 663 9 q 579 27 620 4 q 536 43 562 37 q 479 51 510 49 q 414 52 448 53 q 347 46 380 50 z "},"<":{"ha":506,"x_min":37,"x_max":469,"o":"m 338 283 q 317 304 324 292 q 303 330 309 316 q 290 359 297 345 q 270 384 282 373 q 235 409 258 395 q 186 439 213 423 q 131 473 160 456 q 75 510 102 491 q 43 545 50 526 q 42 579 37 563 q 60 609 47 595 q 84 632 72 623 q 129 661 102 646 q 182 694 156 677 q 230 730 209 712 q 258 766 251 749 q 267 791 260 774 q 282 823 273 807 q 304 852 292 840 q 330 867 316 865 q 361 859 345 869 q 396 815 377 848 q 434 765 412 788 q 463 723 456 742 q 450 689 469 704 q 365 665 431 674 q 273 631 328 658 q 164 571 218 605 q 245 520 205 543 q 321 487 286 498 q 357 479 339 480 q 391 478 374 479 q 422 475 407 477 q 452 464 437 473 q 459 433 464 456 q 441 386 454 411 q 412 336 429 361 q 385 298 396 312 q 366 281 378 290 q 338 283 353 273 z "},">":{"ha":506,"x_min":35,"x_max":468,"o":"m 167 864 q 188 844 180 856 q 201 817 195 831 q 215 789 208 803 q 235 764 222 774 q 269 739 247 753 q 318 708 292 724 q 374 674 345 692 q 430 637 403 656 q 461 603 454 621 q 463 568 468 585 q 445 538 457 552 q 420 515 433 525 q 376 486 403 502 q 322 453 349 471 q 274 417 296 435 q 247 381 252 399 q 238 357 244 373 q 222 324 232 340 q 201 295 213 308 q 174 280 189 282 q 144 289 160 278 q 109 332 127 300 q 71 382 92 358 q 42 425 49 406 q 54 458 35 444 q 140 483 73 473 q 231 516 176 490 q 340 576 286 543 q 259 627 300 605 q 183 661 218 650 q 147 667 164 666 q 114 669 130 669 q 82 672 98 670 q 53 684 66 674 q 45 714 41 692 q 63 762 50 736 q 92 811 76 787 q 119 849 109 836 q 139 866 126 857 q 167 864 152 875 z "},"^":{"ha":549,"x_min":33,"x_max":514,"o":"m 41 494 q 58 511 47 505 q 79 522 68 517 q 101 533 90 528 q 121 549 113 538 q 165 616 140 570 q 221 708 190 663 q 249 733 235 728 q 276 734 263 738 q 300 720 289 730 q 320 701 312 711 q 344 665 331 686 q 371 622 357 643 q 399 583 385 601 q 429 562 414 566 q 462 549 439 557 q 499 526 484 540 q 511 492 514 511 q 469 450 509 473 q 430 420 449 438 q 396 396 411 401 q 369 406 381 391 q 349 475 357 422 q 321 549 343 505 q 271 635 298 593 q 231 569 248 602 q 205 509 213 536 q 199 479 199 494 q 198 452 198 465 q 196 427 198 439 q 187 403 194 415 q 162 396 180 392 q 123 410 144 400 q 83 433 103 420 q 53 454 64 446 q 39 471 46 460 q 41 494 33 481 z "},"":{"ha":549,"x_min":38,"x_max":519,"o":"m 46 1284 q 63 1301 53 1295 q 84 1313 73 1308 q 106 1324 95 1318 q 126 1340 118 1329 q 170 1407 145 1360 q 227 1499 195 1454 q 254 1524 240 1519 q 281 1525 269 1529 q 306 1511 294 1520 q 326 1492 317 1501 q 349 1455 336 1477 q 376 1413 362 1434 q 405 1374 391 1392 q 434 1352 419 1356 q 467 1339 445 1348 q 505 1316 490 1331 q 517 1283 519 1302 q 475 1241 514 1264 q 435 1211 454 1229 q 401 1187 416 1192 q 374 1197 387 1181 q 354 1265 362 1213 q 326 1339 349 1295 q 277 1426 304 1383 q 236 1360 254 1393 q 210 1299 218 1326 q 204 1270 205 1284 q 203 1243 203 1256 q 201 1218 203 1230 q 193 1194 199 1206 q 168 1187 186 1183 q 129 1201 149 1191 q 89 1224 109 1211 q 58 1245 69 1237 q 45 1261 52 1251 q 46 1284 38 1272 z "},"":{"ha":549,"x_min":54,"x_max":536,"o":"m 528 1428 q 511 1411 521 1417 q 490 1400 500 1405 q 467 1388 479 1394 q 448 1373 456 1382 q 404 1305 429 1352 q 347 1214 378 1259 q 319 1189 334 1194 q 292 1188 305 1184 q 268 1202 279 1192 q 248 1221 256 1211 q 224 1257 237 1234 q 197 1300 212 1279 q 168 1339 183 1321 q 140 1360 153 1356 q 106 1373 129 1364 q 69 1396 84 1382 q 57 1430 54 1411 q 99 1472 60 1449 q 138 1502 119 1484 q 172 1526 157 1520 q 199 1516 187 1531 q 220 1447 212 1500 q 248 1373 225 1417 q 297 1287 270 1329 q 338 1353 320 1320 q 363 1413 355 1386 q 370 1442 369 1428 q 370 1469 370 1455 q 372 1495 370 1482 q 381 1519 374 1507 q 406 1526 388 1530 q 445 1512 425 1522 q 485 1489 465 1501 q 515 1468 505 1476 q 529 1451 522 1462 q 528 1428 536 1440 z "},"":{"ha":345,"x_min":27,"x_max":290,"o":"m 64 -4 q 81 52 64 26 q 110 110 99 79 q 132 251 132 180 q 132 395 132 321 q 130 492 132 444 q 120 586 127 541 q 98 670 113 631 q 60 741 84 709 q 39 768 49 755 q 28 792 30 781 q 36 812 27 803 q 69 826 45 821 q 102 833 84 830 q 136 840 119 837 q 164 846 152 844 q 183 849 176 848 q 259 852 240 861 q 278 823 278 844 q 267 772 278 802 q 251 715 256 743 q 228 568 236 635 q 220 429 220 502 q 220 404 220 419 q 220 373 220 388 q 221 346 221 358 q 221 332 221 334 q 223 303 221 328 q 229 246 225 278 q 237 182 232 214 q 251 130 243 149 q 277 78 264 99 q 290 24 290 57 q 267 -3 290 8 q 212 -20 244 -14 q 149 -31 180 -27 q 102 -34 118 -34 q 77 -28 91 -34 q 64 -4 64 -23 z "},"@":{"ha":1059,"x_min":38,"x_max":1039,"o":"m 557 141 q 328 155 426 125 q 166 244 231 184 q 70 387 102 304 q 39 562 38 471 q 83 766 39 669 q 201 936 127 863 q 371 1052 275 1009 q 570 1095 467 1095 q 741 1067 656 1095 q 891 987 825 1039 q 998 859 958 935 q 1039 690 1039 784 q 1021 584 1039 633 q 972 498 1004 534 q 894 440 940 461 q 791 419 848 419 q 761 424 777 419 q 730 437 745 429 q 705 460 716 446 q 692 492 694 473 q 619 439 661 457 q 536 422 578 422 q 408 466 460 422 q 357 594 357 510 q 374 691 357 646 q 421 770 391 736 q 494 823 452 804 q 586 842 536 842 q 695 819 658 841 q 748 763 732 798 q 764 684 764 728 q 761 594 764 640 q 783 530 758 545 q 838 530 807 515 q 894 588 868 545 q 920 697 920 631 q 887 826 920 770 q 804 918 854 882 q 691 973 753 955 q 572 991 629 991 q 414 958 487 991 q 288 865 342 924 q 204 730 235 807 q 174 566 174 652 q 205 431 174 496 q 288 317 236 366 q 406 241 339 269 q 543 218 472 213 q 632 235 598 222 q 687 263 666 247 q 720 298 708 279 q 743 332 732 316 q 783 357 762 362 q 821 328 804 351 q 849 268 838 304 q 861 198 860 232 q 852 141 863 164 q 814 119 841 118 q 770 126 795 121 q 714 137 746 132 q 643 144 682 142 q 557 141 604 146 m 586 761 q 531 745 555 761 q 492 703 507 728 q 471 649 476 678 q 471 595 465 620 q 496 552 477 570 q 547 534 514 534 q 598 545 575 534 q 639 575 621 556 q 666 620 656 594 q 675 674 675 646 q 671 703 675 688 q 655 730 666 718 q 627 752 644 743 q 586 761 610 761 z "},"?":{"ha":694,"x_min":22,"x_max":662,"o":"m 340 635 q 334 568 336 608 q 333 487 332 529 q 336 406 334 445 q 346 343 339 368 q 365 298 351 319 q 381 251 378 277 q 372 233 382 239 q 348 223 362 227 q 319 219 334 220 q 297 218 305 218 q 267 218 285 218 q 231 220 248 217 q 203 233 214 224 q 191 260 191 241 q 199 279 191 271 q 217 298 208 288 q 234 321 227 308 q 240 354 241 334 q 237 444 237 406 q 235 517 236 483 q 233 587 235 552 q 225 665 231 621 q 230 697 222 685 q 250 716 237 709 q 277 725 262 723 q 308 727 293 727 q 379 739 342 727 q 448 772 416 750 q 499 827 479 795 q 519 898 519 859 q 513 964 519 933 q 492 1020 507 996 q 448 1060 476 1044 q 377 1080 420 1076 q 330 1071 357 1081 q 277 1044 302 1061 q 235 1006 252 1027 q 216 968 217 986 q 206 892 213 917 q 191 859 199 868 q 173 850 182 849 q 157 853 164 852 q 124 867 142 854 q 88 897 106 880 q 56 930 71 913 q 34 960 41 948 q 36 996 22 981 q 73 1022 50 1012 q 115 1037 95 1032 q 137 1043 136 1042 q 257 1135 202 1109 q 355 1162 312 1160 q 475 1149 419 1166 q 573 1097 532 1133 q 638 1010 614 1062 q 662 892 662 958 q 637 790 662 834 q 568 714 612 746 q 467 663 525 682 q 340 635 408 643 m 210 62 q 238 128 210 109 q 305 148 266 148 q 354 127 336 148 q 374 79 372 106 q 363 31 377 53 q 320 7 350 8 q 279 7 300 5 q 244 14 259 8 q 220 31 229 19 q 210 62 210 42 z "},"[":{"ha":452,"x_min":15,"x_max":450,"o":"m 136 -144 q 98 -140 115 -144 q 70 -124 81 -136 q 53 -92 58 -113 q 49 -37 47 -71 q 53 137 52 34 q 53 357 54 240 q 49 599 52 475 q 42 836 46 723 q 33 1043 38 949 q 20 1194 27 1137 q 32 1267 15 1241 q 104 1293 49 1293 q 161 1294 130 1293 q 222 1297 191 1295 q 279 1302 252 1299 q 326 1306 307 1305 q 348 1314 339 1308 q 364 1328 357 1320 q 380 1342 372 1336 q 400 1350 388 1348 q 429 1337 418 1351 q 444 1302 439 1324 q 448 1254 449 1280 q 444 1204 448 1227 q 432 1165 439 1181 q 416 1146 425 1149 q 394 1151 406 1143 q 369 1169 382 1158 q 340 1190 355 1180 q 307 1199 324 1199 q 237 1199 274 1200 q 151 1191 201 1198 q 142 1069 145 1153 q 140 873 140 985 q 144 635 141 762 q 153 382 148 507 q 166 145 159 258 q 184 -47 174 33 q 273 -47 237 -52 q 345 -28 309 -43 q 370 -11 355 -24 q 399 7 385 3 q 426 -3 414 11 q 445 -69 438 -18 q 448 -140 450 -118 q 433 -170 445 -163 q 399 -172 420 -176 q 350 -164 378 -168 q 311 -159 330 -163 q 269 -152 292 -155 q 214 -146 245 -149 q 136 -144 182 -144 z "},"]":{"ha":484,"x_min":16,"x_max":453,"o":"m 332 1321 q 370 1317 353 1321 q 398 1301 387 1313 q 415 1269 410 1290 q 419 1214 420 1248 q 414 1040 415 1143 q 415 820 414 937 q 419 578 416 703 q 426 341 422 454 q 435 134 430 228 q 448 -16 441 41 q 436 -90 453 -64 q 363 -115 419 -115 q 307 -117 338 -115 q 246 -120 277 -118 q 188 -125 216 -122 q 142 -129 160 -127 q 120 -136 129 -130 q 104 -151 111 -142 q 88 -165 96 -159 q 68 -172 80 -171 q 39 -160 50 -174 q 24 -125 28 -146 q 20 -77 19 -103 q 24 -27 20 -50 q 35 12 28 -4 q 52 31 42 28 q 73 26 61 34 q 99 8 85 19 q 128 -12 113 -3 q 161 -22 144 -22 q 231 -22 194 -23 q 317 -14 267 -20 q 326 109 323 24 q 328 304 328 193 q 323 543 327 415 q 315 795 320 670 q 301 1032 309 920 q 283 1225 293 1145 q 195 1225 231 1229 q 123 1206 159 1221 q 98 1188 113 1202 q 68 1171 83 1175 q 42 1181 54 1166 q 23 1246 30 1195 q 20 1318 16 1295 q 35 1347 23 1340 q 68 1350 47 1354 q 118 1341 90 1345 q 157 1335 138 1339 q 199 1329 176 1332 q 254 1324 222 1326 q 332 1321 286 1321 z "},"_":{"ha":730,"x_min":34,"x_max":674,"o":"m 80 -3 q 54 9 61 -4 q 43 34 46 23 q 37 80 41 50 q 35 138 34 110 q 41 188 35 167 q 62 209 47 209 q 94 203 79 209 q 123 190 109 198 q 153 173 138 182 q 187 160 168 164 q 267 148 221 152 q 364 145 313 144 q 465 152 415 146 q 553 168 514 157 q 585 187 567 171 q 619 211 602 203 q 649 205 636 218 q 666 136 662 191 q 671 75 667 104 q 668 24 674 45 q 642 0 662 4 q 578 19 623 -4 q 492 42 547 34 q 380 53 438 50 q 268 53 321 56 q 186 45 214 50 q 157 34 170 42 q 133 18 145 26 q 108 3 121 9 q 80 -3 95 -3 z "},"`":{"ha":396,"x_min":16,"x_max":393,"o":"m 85 1430 q 71 1428 80 1431 q 52 1421 61 1424 q 33 1417 42 1417 q 20 1423 24 1416 q 20 1450 16 1431 q 38 1504 23 1469 q 69 1564 54 1546 q 96 1582 84 1581 q 118 1573 109 1583 q 134 1550 127 1563 q 145 1525 141 1537 q 151 1511 149 1512 q 178 1482 159 1497 q 218 1455 197 1468 q 262 1436 240 1443 q 298 1430 283 1428 q 332 1430 311 1431 q 371 1421 354 1430 q 391 1394 388 1413 q 368 1337 393 1375 q 343 1296 353 1318 q 323 1265 334 1274 q 295 1266 312 1256 q 248 1322 278 1276 q 216 1359 240 1341 q 167 1391 193 1377 q 117 1415 141 1405 q 85 1430 94 1426 z "},"":{"ha":439,"x_min":24,"x_max":403,"o":"m 334 1430 q 302 1415 326 1426 q 252 1391 278 1405 q 203 1359 227 1377 q 171 1322 179 1341 q 123 1266 140 1276 q 96 1265 107 1256 q 76 1296 85 1274 q 52 1337 66 1318 q 28 1394 24 1375 q 48 1421 31 1413 q 87 1430 65 1430 q 121 1430 109 1431 q 157 1436 136 1428 q 201 1455 179 1443 q 241 1482 222 1468 q 269 1511 260 1497 q 274 1525 270 1512 q 285 1550 278 1537 q 301 1573 292 1563 q 323 1582 311 1583 q 349 1564 335 1581 q 381 1504 363 1546 q 399 1450 395 1469 q 399 1423 403 1431 q 386 1417 395 1416 q 368 1421 377 1417 q 349 1428 358 1424 q 334 1430 339 1431 z "},"/":{"ha":655,"x_min":16,"x_max":640,"o":"m 103 -7 q 65 7 85 -1 q 31 27 45 15 q 17 56 18 39 q 38 95 16 72 q 94 172 66 125 q 148 272 122 220 q 196 375 174 324 q 235 465 218 426 q 273 557 252 505 q 315 669 294 610 q 355 787 336 727 q 389 904 374 848 q 410 1008 403 960 q 415 1088 418 1055 q 412 1123 414 1104 q 412 1158 411 1142 q 420 1183 414 1173 q 439 1192 426 1194 q 515 1176 475 1190 q 616 1138 555 1162 q 640 1111 640 1127 q 626 1076 639 1095 q 595 1036 613 1057 q 564 996 576 1015 q 486 841 528 936 q 401 637 444 746 q 319 413 358 528 q 250 201 279 298 q 236 144 239 167 q 233 101 233 121 q 235 61 233 81 q 236 12 237 41 q 220 -17 236 -9 q 184 -24 205 -24 q 140 -18 163 -23 q 103 -7 118 -12 z "},"":{"ha":655,"x_min":16,"x_max":640,"o":"m 103 -7 q 65 7 85 -1 q 31 27 45 15 q 17 56 18 39 q 38 95 16 72 q 94 172 66 125 q 148 272 122 220 q 196 375 174 324 q 235 465 218 426 q 273 557 252 505 q 315 669 294 610 q 355 787 336 727 q 389 904 374 848 q 410 1008 403 960 q 415 1088 418 1055 q 412 1123 414 1104 q 412 1158 411 1142 q 420 1183 414 1173 q 439 1192 426 1194 q 515 1176 475 1190 q 616 1138 555 1162 q 640 1111 640 1127 q 626 1076 639 1095 q 595 1036 613 1057 q 564 996 576 1015 q 486 841 528 936 q 401 637 444 746 q 319 413 358 528 q 250 201 279 298 q 236 144 239 167 q 233 101 233 121 q 235 61 233 81 q 236 12 237 41 q 220 -17 236 -9 q 184 -24 205 -24 q 140 -18 163 -23 q 103 -7 118 -12 z "},"\\":{"ha":655,"x_min":16,"x_max":640,"o":"m 553 -7 q 516 -18 538 -12 q 473 -24 494 -23 q 436 -17 452 -24 q 420 12 420 -9 q 421 61 419 41 q 423 101 423 81 q 420 144 423 121 q 407 201 416 167 q 337 413 376 298 q 256 637 298 528 q 171 841 213 746 q 92 996 129 936 q 62 1036 80 1015 q 31 1076 43 1057 q 17 1111 18 1095 q 41 1138 16 1127 q 142 1176 102 1162 q 217 1192 182 1190 q 237 1183 231 1194 q 244 1158 243 1173 q 244 1123 245 1142 q 241 1088 243 1104 q 256 958 237 1039 q 302 788 274 878 q 362 612 330 699 q 422 465 395 525 q 460 375 438 426 q 509 272 483 324 q 562 172 534 220 q 618 95 590 125 q 640 56 640 72 q 625 27 639 39 q 591 7 612 15 q 553 -7 571 -1 z "},"(":{"ha":557,"x_min":35,"x_max":521,"o":"m 326 -138 q 216 -52 262 -110 q 138 81 170 5 q 86 242 106 156 q 56 415 66 328 q 41 583 45 502 q 37 728 37 665 q 39 846 35 781 q 56 978 43 910 q 92 1112 69 1046 q 150 1235 114 1179 q 237 1333 186 1291 q 359 1393 289 1374 q 385 1405 372 1396 q 410 1426 397 1415 q 436 1446 423 1436 q 460 1458 449 1455 q 492 1448 480 1462 q 511 1410 505 1434 q 519 1357 518 1386 q 518 1303 521 1328 q 510 1261 515 1278 q 496 1244 505 1244 q 465 1251 476 1242 q 440 1266 453 1259 q 408 1277 427 1274 q 354 1271 389 1280 q 288 1231 317 1261 q 238 1157 259 1200 q 202 1060 217 1114 q 177 950 187 1006 q 161 839 167 894 q 152 738 155 784 q 151 608 148 682 q 163 454 155 533 q 189 295 172 374 q 227 151 205 216 q 278 42 250 87 q 343 -14 307 -3 q 372 -17 359 -19 q 397 -10 384 -15 q 425 1 410 -5 q 463 12 439 8 q 490 1 480 16 q 503 -41 499 -15 q 505 -100 507 -68 q 495 -163 502 -133 q 476 -215 488 -193 q 449 -244 464 -237 q 418 -239 431 -251 q 392 -208 406 -228 q 363 -168 378 -189 q 326 -138 347 -148 z "},")":{"ha":557,"x_min":35,"x_max":521,"o":"m 231 1351 q 340 1265 294 1322 q 418 1132 387 1207 q 470 970 450 1057 q 500 798 490 884 q 515 629 511 711 q 519 484 518 548 q 517 367 521 431 q 500 235 513 302 q 465 100 487 167 q 406 -22 442 34 q 319 -121 370 -79 q 197 -180 267 -163 q 172 -193 184 -183 q 145 -213 159 -202 q 119 -233 132 -224 q 96 -245 107 -243 q 64 -235 76 -250 q 45 -197 52 -221 q 37 -144 38 -174 q 38 -90 35 -115 q 46 -48 41 -65 q 60 -31 52 -31 q 92 -38 80 -30 q 116 -54 103 -46 q 148 -64 129 -61 q 202 -58 167 -68 q 268 -18 239 -49 q 318 56 297 12 q 354 153 339 99 q 379 262 369 206 q 395 374 389 319 q 404 475 400 429 q 404 605 407 530 q 393 759 401 680 q 368 918 384 838 q 329 1061 351 997 q 277 1171 307 1126 q 213 1226 248 1215 q 184 1230 197 1232 q 159 1222 172 1227 q 131 1211 146 1217 q 94 1200 115 1204 q 66 1212 76 1196 q 53 1254 57 1227 q 52 1313 49 1280 q 61 1375 54 1345 q 80 1428 68 1405 q 107 1457 92 1450 q 138 1452 125 1463 q 164 1421 151 1440 q 193 1381 178 1401 q 231 1351 209 1360 z "},"%":{"ha":697,"x_min":16,"x_max":647,"o":"m 547 294 q 616 258 593 283 q 643 202 639 233 q 635 139 647 171 q 597 84 623 107 q 537 52 572 61 q 460 57 502 43 q 410 92 426 68 q 392 145 393 117 q 402 203 391 174 q 435 256 414 233 q 484 290 456 278 q 547 294 513 301 m 476 136 q 500 134 487 125 q 522 161 513 144 q 534 197 532 178 q 528 227 537 217 q 504 228 517 237 q 481 201 491 218 q 469 165 472 184 q 476 136 467 145 m 163 899 q 94 935 117 910 q 66 991 71 960 q 75 1055 62 1023 q 112 1109 87 1086 q 172 1141 137 1133 q 250 1137 208 1150 q 300 1101 283 1126 q 317 1048 316 1077 q 307 990 319 1020 q 275 938 296 960 q 225 903 254 916 q 163 899 197 891 m 235 1073 q 211 1074 224 1084 q 189 1048 198 1065 q 176 1011 179 1031 q 183 982 174 991 q 207 981 194 971 q 229 1007 220 990 q 241 1044 239 1024 q 235 1073 244 1063 m 103 -7 q 65 7 85 -1 q 31 27 45 15 q 17 56 18 39 q 38 95 16 72 q 94 172 66 125 q 148 272 122 220 q 196 375 174 324 q 235 465 218 426 q 273 557 252 505 q 315 669 294 610 q 355 787 336 727 q 389 904 374 848 q 410 1008 403 960 q 415 1088 418 1055 q 412 1123 414 1104 q 412 1158 411 1142 q 420 1183 414 1173 q 439 1192 426 1194 q 515 1176 475 1190 q 616 1138 555 1162 q 640 1111 640 1127 q 626 1076 639 1095 q 595 1036 613 1057 q 564 996 576 1015 q 486 841 528 936 q 401 637 444 746 q 319 413 358 528 q 250 201 279 298 q 236 144 239 167 q 233 101 233 121 q 235 61 233 81 q 236 12 237 41 q 220 -17 236 -9 q 184 -24 205 -24 q 140 -18 163 -23 q 103 -7 118 -12 z "},",":{"ha":300,"x_min":65,"x_max":255,"o":"m 159 -60 q 142 -60 149 -64 q 130 -51 134 -57 q 124 -37 125 -45 q 126 -24 123 -30 q 149 24 138 -3 q 153 81 160 50 q 109 85 126 77 q 81 105 91 92 q 68 135 72 118 q 65 168 65 152 q 95 229 65 209 q 160 245 125 250 q 225 209 195 240 q 255 115 255 178 q 226 3 255 50 q 159 -60 197 -43 z "},";":{"ha":304,"x_min":57,"x_max":247,"o":"m 151 -77 q 134 -78 141 -81 q 121 -68 126 -75 q 116 -55 117 -62 q 118 -42 115 -47 q 141 6 130 -20 q 145 64 152 33 q 100 67 118 60 q 73 87 83 75 q 60 117 64 100 q 57 151 57 134 q 87 212 57 191 q 152 227 117 232 q 217 191 187 222 q 247 98 247 160 q 218 -14 247 33 q 151 -77 189 -61 m 61 434 q 96 503 61 483 q 172 515 130 524 q 217 485 203 509 q 229 434 231 461 q 209 385 227 407 q 159 362 191 363 q 87 376 114 359 q 61 434 61 392 z "},"'":{"ha":321,"x_min":71,"x_max":260,"o":"m 164 812 q 147 812 155 808 q 135 821 140 815 q 130 835 130 827 q 132 848 129 842 q 155 896 144 869 q 159 954 165 922 q 114 957 132 949 q 87 977 96 964 q 74 1007 77 990 q 71 1040 71 1024 q 100 1101 71 1081 q 165 1117 130 1122 q 231 1081 201 1112 q 260 987 260 1050 q 231 876 260 922 q 164 812 202 829 z "},"\"":{"ha":540,"x_min":71,"x_max":494,"o":"m 164 812 q 147 812 155 808 q 135 821 140 815 q 130 835 130 827 q 132 848 129 842 q 155 896 144 869 q 159 954 165 922 q 114 957 132 949 q 87 977 96 964 q 74 1007 77 990 q 71 1040 71 1024 q 100 1101 71 1081 q 165 1117 130 1122 q 231 1081 201 1112 q 260 987 260 1050 q 231 876 260 922 q 164 812 202 829 m 397 823 q 380 823 388 819 q 368 832 373 826 q 363 846 363 838 q 365 859 362 853 q 388 907 377 880 q 392 964 399 933 q 347 968 365 960 q 320 988 330 975 q 307 1018 311 1001 q 304 1051 304 1035 q 334 1112 304 1092 q 399 1128 363 1133 q 464 1092 434 1123 q 494 998 494 1061 q 465 886 494 933 q 397 823 435 840 z "},"":{"ha":540,"x_min":71,"x_max":494,"o":"m 164 812 q 147 812 155 808 q 135 821 140 815 q 130 835 130 827 q 132 848 129 842 q 155 896 144 869 q 159 954 165 922 q 114 957 132 949 q 87 977 96 964 q 74 1007 77 990 q 71 1040 71 1024 q 100 1101 71 1081 q 165 1117 130 1122 q 231 1081 201 1112 q 260 987 260 1050 q 231 876 260 922 q 164 812 202 829 m 397 823 q 380 823 388 819 q 368 832 373 826 q 363 846 363 838 q 365 859 362 853 q 388 907 377 880 q 392 964 399 933 q 347 968 365 960 q 320 988 330 975 q 307 1018 311 1001 q 304 1051 304 1035 q 334 1112 304 1092 q 399 1128 363 1133 q 464 1092 434 1123 q 494 998 494 1061 q 465 886 494 933 q 397 823 435 840 z "},"":{"ha":540,"x_min":71,"x_max":494,"o":"m 400 1127 q 417 1128 410 1131 q 429 1118 425 1124 q 435 1105 434 1112 q 433 1092 435 1097 q 410 1044 420 1070 q 406 986 399 1017 q 450 983 433 990 q 477 962 468 975 q 490 932 487 949 q 494 899 494 916 q 464 838 494 859 q 399 823 434 818 q 334 859 363 827 q 304 952 304 890 q 333 1064 304 1017 q 400 1127 362 1111 m 167 1116 q 184 1117 176 1120 q 196 1107 191 1114 q 201 1094 201 1101 q 199 1081 202 1086 q 176 1033 187 1059 q 172 975 165 1006 q 217 972 199 979 q 244 951 235 964 q 257 922 254 939 q 260 888 260 905 q 231 827 260 848 q 165 812 201 807 q 100 848 130 817 q 71 941 71 879 q 100 1053 71 1006 q 167 1116 129 1100 z "},"":{"ha":321,"x_min":71,"x_max":260,"o":"m 164 812 q 147 812 155 808 q 135 821 140 815 q 130 835 130 827 q 132 848 129 842 q 155 896 144 869 q 159 954 165 922 q 114 957 132 949 q 87 977 96 964 q 74 1007 77 990 q 71 1040 71 1024 q 100 1101 71 1081 q 165 1117 130 1122 q 231 1081 201 1112 q 260 987 260 1050 q 231 876 260 922 q 164 812 202 829 z "},"":{"ha":321,"x_min":71,"x_max":260,"o":"m 167 1116 q 184 1117 176 1120 q 196 1107 191 1114 q 201 1094 201 1101 q 199 1081 202 1086 q 176 1033 187 1059 q 172 975 165 1006 q 217 972 199 979 q 244 951 235 964 q 257 922 254 939 q 260 888 260 905 q 231 827 260 848 q 165 812 201 807 q 100 848 130 817 q 71 941 71 879 q 100 1053 71 1006 q 167 1116 129 1100 z "},"":{"ha":321,"x_min":60,"x_max":250,"o":"m 153 -43 q 136 -44 144 -47 q 124 -35 129 -41 q 119 -21 119 -28 q 121 -8 118 -14 q 144 40 133 14 q 148 98 155 66 q 103 101 121 94 q 76 121 85 109 q 63 151 66 134 q 60 184 60 168 q 90 245 60 225 q 155 261 119 266 q 220 225 190 256 q 250 132 250 194 q 220 20 250 66 q 153 -43 191 -27 z "},"":{"ha":538,"x_min":60,"x_max":471,"o":"m 153 -43 q 136 -44 144 -47 q 124 -35 129 -41 q 119 -21 119 -28 q 121 -8 118 -14 q 144 40 133 14 q 148 98 155 66 q 103 101 121 94 q 76 121 85 109 q 63 151 66 134 q 60 184 60 168 q 90 245 60 225 q 155 261 119 266 q 220 225 190 256 q 250 132 250 194 q 220 20 250 66 q 153 -43 191 -27 m 374 -31 q 357 -32 365 -35 q 345 -22 350 -28 q 340 -9 340 -16 q 342 4 339 -1 q 365 52 354 26 q 369 110 376 79 q 324 113 342 106 q 297 134 307 121 q 284 163 288 146 q 281 197 281 180 q 311 258 281 237 q 376 273 340 278 q 441 237 411 269 q 471 144 471 206 q 441 32 471 79 q 374 -31 412 -15 z "},"*":{"ha":1035,"x_min":104,"x_max":928,"o":"m 441 201 q 421 182 435 184 q 399 182 407 180 q 358 189 384 183 q 309 205 332 195 q 271 226 286 214 q 259 250 255 237 q 273 274 263 263 q 293 294 282 285 q 315 315 304 304 q 336 340 327 326 q 354 369 343 350 q 378 412 365 388 q 404 465 391 437 q 430 519 418 492 q 376 503 403 511 q 327 485 350 494 q 286 469 304 476 q 260 460 269 463 q 237 445 247 454 q 219 426 228 435 q 201 408 210 416 q 178 399 191 400 q 152 406 161 395 q 138 425 142 416 q 125 463 133 438 q 112 513 117 488 q 109 557 107 538 q 123 579 110 576 q 151 581 137 583 q 180 574 165 578 q 209 565 194 570 q 240 560 224 560 q 269 562 251 560 q 311 566 288 563 q 359 574 334 568 q 408 586 384 579 q 348 625 378 605 q 292 664 317 646 q 246 696 266 682 q 218 715 227 709 q 193 723 206 722 q 165 726 179 724 q 140 730 152 727 q 118 742 127 732 q 107 766 104 753 q 114 788 110 780 q 136 823 122 802 q 168 864 151 845 q 200 894 184 883 q 227 897 216 905 q 257 848 250 878 q 283 792 264 819 q 307 764 290 783 q 347 725 324 746 q 396 682 369 704 q 452 644 423 661 q 435 705 444 673 q 418 768 426 738 q 404 820 411 798 q 393 850 397 842 q 376 871 387 863 q 356 887 366 879 q 337 905 346 895 q 324 928 328 914 q 329 953 319 943 q 346 968 339 963 q 384 985 359 975 q 433 1002 408 996 q 477 1009 457 1009 q 500 997 496 1009 q 505 969 506 983 q 500 941 503 955 q 494 911 496 926 q 492 878 491 895 q 494 849 492 869 q 498 803 495 829 q 506 751 502 777 q 514 703 510 724 q 532 752 524 724 q 547 806 540 780 q 559 856 555 833 q 564 890 563 879 q 562 930 566 902 q 563 982 559 958 q 585 1018 567 1006 q 650 1009 604 1029 q 702 994 674 998 q 745 979 730 989 q 753 948 760 968 q 705 887 747 928 q 682 850 697 878 q 648 788 666 823 q 610 713 629 753 q 574 639 591 673 q 627 662 600 648 q 680 690 655 675 q 724 715 704 704 q 757 734 745 727 q 791 757 769 739 q 835 784 812 774 q 877 783 857 793 q 903 724 897 773 q 918 671 907 697 q 928 628 928 646 q 907 604 928 610 q 830 612 887 598 q 791 610 818 614 q 732 599 765 606 q 661 582 699 591 q 589 563 624 572 q 652 528 620 545 q 714 495 685 510 q 768 468 743 480 q 806 450 792 456 q 844 439 817 445 q 892 420 871 433 q 918 387 914 408 q 888 330 922 366 q 856 285 869 309 q 827 250 842 260 q 795 252 812 240 q 754 319 779 264 q 732 347 749 328 q 690 389 715 366 q 635 435 665 411 q 575 479 605 458 q 593 425 583 453 q 612 372 602 397 q 630 326 621 346 q 646 296 639 305 q 661 277 650 289 q 682 251 671 264 q 701 222 693 237 q 709 193 709 208 q 694 168 708 179 q 650 148 681 156 q 597 129 623 141 q 555 116 572 117 q 530 135 537 115 q 530 213 522 155 q 529 254 532 225 q 521 321 526 283 q 508 399 515 358 q 492 476 500 439 q 471 425 481 452 q 452 373 460 397 q 438 330 444 349 q 431 302 433 311 q 433 276 430 289 q 440 251 437 263 q 445 226 444 239 q 441 201 446 213 z "},"$":{"ha":654,"x_min":11,"x_max":636,"o":"m 355 -103 q 311 -104 336 -104 q 266 -99 286 -104 q 235 -79 245 -94 q 236 -35 225 -64 q 248 14 243 -16 q 256 80 254 43 q 176 150 213 110 q 107 233 140 190 q 84 250 98 245 q 56 260 71 255 q 31 271 42 264 q 15 292 19 277 q 22 323 11 305 q 51 361 33 342 q 94 397 69 380 q 139 427 118 415 q 176 442 160 438 q 197 439 193 446 q 206 410 203 426 q 210 377 209 393 q 212 346 212 361 q 214 321 213 331 q 231 271 218 297 q 262 220 243 244 q 262 355 263 290 q 262 460 262 420 q 262 542 262 496 q 260 636 262 587 q 182 703 220 669 q 115 773 145 736 q 68 849 85 810 q 50 933 50 888 q 64 1005 50 974 q 100 1058 77 1036 q 150 1093 122 1080 q 208 1114 178 1107 q 191 1150 199 1133 q 177 1183 182 1168 q 176 1209 172 1198 q 199 1229 180 1221 q 338 1233 264 1253 q 367 1213 359 1226 q 374 1183 374 1200 q 368 1144 373 1165 q 358 1103 362 1123 q 429 1069 396 1088 q 472 1040 461 1051 q 505 1025 484 1028 q 544 1018 525 1021 q 578 1008 563 1015 q 594 982 593 1001 q 574 941 593 966 q 530 891 555 916 q 481 849 506 867 q 442 829 456 831 q 401 839 412 823 q 388 878 391 854 q 385 927 385 902 q 377 966 385 952 q 347 1000 365 986 q 342 850 343 932 q 342 678 340 768 q 440 606 389 643 q 533 523 491 568 q 604 420 575 477 q 635 286 632 363 q 620 195 636 239 q 574 117 604 152 q 505 61 545 83 q 416 37 464 39 q 429 5 423 20 q 442 -26 435 -11 q 444 -60 450 -46 q 422 -84 437 -75 q 389 -98 408 -94 q 355 -103 370 -102 m 500 317 q 488 387 500 354 q 454 451 476 420 q 405 510 433 481 q 345 567 377 538 q 355 378 349 471 q 370 208 361 286 q 384 133 374 164 q 400 132 389 132 q 448 149 429 132 q 478 193 467 165 q 495 253 490 220 q 500 317 500 286 m 183 917 q 203 826 183 865 q 256 753 224 787 q 248 886 254 821 q 233 1006 243 951 q 196 971 210 994 q 183 917 182 948 z "},"|":{"ha":867,"x_min":47,"x_max":806,"o":"m 224 1000 q 309 981 273 1000 q 370 937 345 963 q 411 885 395 911 q 437 841 427 859 q 469 888 449 865 q 513 927 490 910 q 564 955 537 944 q 614 967 590 966 q 682 954 647 968 q 746 906 718 940 q 790 819 774 872 q 800 688 806 765 q 768 530 798 608 q 698 383 739 452 q 610 259 656 315 q 526 167 563 203 q 471 117 492 134 q 433 100 450 100 q 399 113 416 99 q 358 153 382 126 q 277 248 326 191 q 182 378 228 304 q 100 542 136 452 q 56 738 64 632 q 87 928 47 856 q 224 1000 127 1000 m 184 753 q 208 607 184 681 q 267 463 231 533 q 349 328 304 392 q 437 210 393 263 q 535 309 488 254 q 618 429 582 365 q 680 562 655 492 q 711 703 704 631 q 707 752 712 724 q 692 804 703 780 q 663 846 681 829 q 618 863 644 863 q 565 844 590 863 q 519 800 540 826 q 479 745 498 773 q 444 694 460 716 q 429 685 437 685 q 413 690 420 685 q 399 701 406 694 q 389 715 393 708 q 316 811 353 777 q 250 850 279 845 q 203 830 221 854 q 184 753 184 806 z "},"":{"ha":644,"x_min":27,"x_max":614,"o":"m 293 1417 q 264 1398 282 1411 q 227 1371 245 1386 q 193 1341 209 1356 q 170 1313 176 1325 q 130 1254 145 1265 q 103 1251 114 1242 q 82 1279 92 1259 q 56 1318 72 1299 q 28 1371 27 1352 q 45 1400 30 1390 q 81 1411 60 1409 q 113 1413 102 1413 q 146 1424 126 1413 q 185 1450 165 1435 q 223 1482 205 1465 q 254 1510 241 1499 q 258 1519 255 1511 q 267 1537 262 1527 q 281 1554 273 1546 q 299 1560 289 1561 q 322 1548 309 1560 q 350 1506 335 1535 q 372 1438 376 1457 q 353 1415 369 1419 q 319 1417 338 1412 q 293 1417 300 1421 m 532 1381 q 503 1362 521 1374 q 466 1335 484 1350 q 431 1304 448 1320 q 408 1276 415 1289 q 368 1217 384 1229 q 342 1214 353 1206 q 321 1242 331 1222 q 294 1282 311 1263 q 267 1335 266 1316 q 283 1363 269 1354 q 319 1375 298 1373 q 351 1377 340 1377 q 385 1388 365 1377 q 424 1413 404 1398 q 462 1445 444 1428 q 492 1473 480 1462 q 497 1482 494 1474 q 506 1500 500 1491 q 519 1517 511 1510 q 538 1524 528 1525 q 561 1511 548 1523 q 589 1469 574 1499 q 611 1401 614 1420 q 592 1379 608 1382 q 557 1380 576 1375 q 532 1381 538 1385 z "},"":{"ha":316,"x_min":34,"x_max":290,"o":"m 190 1438 q 259 1402 236 1427 q 286 1345 282 1377 q 278 1282 290 1314 q 241 1227 266 1251 q 180 1196 216 1204 q 103 1200 145 1187 q 53 1236 69 1211 q 35 1289 37 1260 q 45 1347 34 1317 q 78 1399 57 1377 q 127 1433 99 1421 q 190 1438 156 1444 m 119 1279 q 143 1278 130 1268 q 165 1304 156 1287 q 178 1341 175 1321 q 171 1370 180 1360 q 147 1371 160 1381 q 125 1345 134 1362 q 113 1308 115 1328 q 119 1279 110 1289 z "},"":{"ha":275,"x_min":45,"x_max":237,"o":"m 168 1394 q 214 1373 198 1390 q 233 1332 229 1355 q 231 1283 237 1309 q 208 1238 224 1257 q 170 1209 193 1219 q 119 1206 146 1199 q 60 1251 75 1218 q 54 1318 45 1284 q 92 1376 62 1352 q 168 1394 122 1400 z "},"":{"ha":948,"x_min":71,"x_max":876,"o":"m 71 129 q 80 169 71 153 q 105 194 90 184 q 140 207 121 203 q 182 210 160 210 q 230 187 216 210 q 241 136 244 164 q 219 83 237 107 q 168 57 201 58 q 97 71 123 54 q 71 129 71 87 m 387 129 q 396 169 387 153 q 421 194 406 184 q 456 207 437 203 q 498 210 476 210 q 546 187 532 210 q 557 136 560 164 q 535 83 553 107 q 484 57 517 58 q 413 71 439 54 q 387 129 387 87 m 703 129 q 712 169 703 153 q 737 194 722 184 q 772 207 753 203 q 814 210 792 210 q 862 187 848 210 q 873 136 876 164 q 851 83 869 107 q 800 57 833 58 q 729 71 755 54 q 703 129 703 87 z "},"":{"ha":589,"x_min":45,"x_max":515,"o":"m 168 1394 q 214 1373 198 1390 q 233 1332 229 1355 q 231 1283 237 1309 q 208 1238 224 1257 q 170 1209 193 1219 q 119 1206 146 1199 q 60 1251 75 1218 q 54 1318 45 1284 q 92 1376 62 1352 q 168 1394 122 1400 m 435 1397 q 498 1360 480 1390 q 509 1297 515 1331 q 477 1237 503 1263 q 408 1215 450 1211 q 362 1234 380 1218 q 338 1270 345 1249 q 334 1316 331 1291 q 349 1359 336 1340 q 382 1390 361 1378 q 435 1397 404 1401 z "},"":{"ha":860,"x_min":31,"x_max":846,"o":"m 31 601 q 33 691 31 643 q 44 791 35 739 q 72 895 53 842 q 123 1000 91 948 q 176 1059 144 1031 q 252 1109 209 1088 q 344 1143 294 1131 q 446 1150 393 1154 q 621 1099 545 1142 q 746 986 696 1057 q 821 821 796 916 q 844 613 846 726 q 812 383 841 484 q 729 212 784 282 q 591 104 674 141 q 393 68 507 68 q 241 116 308 68 q 127 240 174 164 q 56 412 80 316 q 31 601 31 507 m 168 642 q 192 415 168 509 q 256 263 216 321 q 347 180 296 205 q 453 159 399 155 q 569 195 514 164 q 665 280 624 225 q 732 412 707 335 q 762 587 758 490 q 737 817 768 726 q 659 964 707 909 q 553 1041 610 1019 q 450 1063 496 1063 q 338 1037 389 1063 q 249 957 286 1010 q 190 824 212 903 q 168 642 168 745 m 250 583 q 262 690 245 643 q 307 773 278 736 q 376 838 336 810 q 460 886 416 865 q 478 900 469 891 q 496 919 487 909 q 515 939 505 929 q 538 954 525 948 q 567 950 552 959 q 595 926 582 941 q 617 889 608 910 q 631 849 627 868 q 635 816 636 830 q 623 799 633 802 q 573 791 608 793 q 510 788 538 788 q 438 766 468 788 q 389 711 408 743 q 360 644 369 680 q 351 579 351 608 q 362 529 351 553 q 392 485 373 505 q 436 454 411 465 q 491 442 461 442 q 524 450 502 442 q 566 460 545 457 q 602 458 587 464 q 616 427 617 453 q 610 371 613 401 q 599 317 608 340 q 574 286 590 294 q 529 294 557 277 q 498 315 509 307 q 481 330 488 324 q 469 341 475 336 q 452 350 463 346 q 303 438 350 384 q 250 583 256 492 z "},"":{"ha":860,"x_min":31,"x_max":846,"o":"m 31 601 q 33 691 31 643 q 44 791 35 739 q 72 895 53 842 q 123 1000 91 948 q 176 1059 144 1031 q 252 1109 209 1088 q 344 1143 294 1131 q 446 1150 393 1154 q 621 1099 545 1142 q 746 986 696 1057 q 821 821 796 916 q 844 613 846 726 q 812 383 841 484 q 729 212 784 282 q 591 104 674 141 q 393 68 507 68 q 241 116 308 68 q 127 240 174 164 q 56 412 80 316 q 31 601 31 507 m 168 642 q 192 415 168 509 q 256 263 216 321 q 347 180 296 205 q 453 159 399 155 q 569 195 514 164 q 665 280 624 225 q 732 412 707 335 q 762 587 758 490 q 737 817 768 726 q 659 964 707 909 q 553 1041 610 1019 q 450 1063 496 1063 q 338 1037 389 1063 q 249 957 286 1010 q 190 824 212 903 q 168 642 168 745 m 292 326 q 299 357 294 334 q 305 430 304 380 q 301 564 307 480 q 278 779 296 648 q 264 803 275 793 q 241 821 254 812 q 220 840 229 830 q 210 868 210 850 q 221 886 210 876 q 250 905 232 895 q 290 922 267 914 q 336 937 313 930 q 363 942 354 943 q 376 935 373 941 q 378 918 378 929 q 378 892 378 907 q 454 918 415 907 q 522 932 492 929 q 593 926 563 936 q 642 896 623 916 q 669 848 661 876 q 674 789 677 821 q 659 749 671 770 q 625 712 647 728 q 568 687 602 696 q 487 685 533 678 q 549 646 521 670 q 600 597 578 623 q 635 549 621 571 q 654 519 648 528 q 674 499 661 507 q 701 485 688 491 q 722 473 713 479 q 731 460 731 468 q 713 425 731 445 q 673 389 696 406 q 627 363 650 373 q 591 361 604 354 q 583 373 583 365 q 585 392 583 381 q 589 416 587 403 q 585 446 590 430 q 561 497 576 467 q 521 558 545 528 q 464 614 496 589 q 389 648 431 639 q 386 576 385 614 q 392 500 387 538 q 407 426 397 463 q 429 359 416 389 q 450 335 435 345 q 465 308 465 326 q 443 286 465 294 q 391 274 420 278 q 335 269 362 270 q 298 269 308 267 q 281 279 283 271 q 280 297 278 288 q 286 315 282 307 q 292 326 290 323 m 382 746 q 454 737 416 738 q 522 744 491 736 q 574 766 553 751 q 594 804 594 781 q 583 832 594 818 q 547 852 572 846 q 479 850 521 859 q 377 812 437 842 l 382 746 z "},"":{"ha":921,"x_min":26,"x_max":888,"o":"m 194 642 q 205 687 194 665 q 217 732 217 709 q 216 810 217 765 q 214 905 216 856 q 209 1002 212 955 q 203 1086 206 1050 q 148 1084 170 1085 q 111 1080 126 1082 q 84 1072 95 1077 q 61 1061 73 1067 q 40 1067 49 1053 q 28 1100 31 1081 q 32 1134 26 1119 q 56 1143 38 1149 q 84 1133 76 1137 q 106 1129 92 1130 q 144 1131 119 1128 q 224 1137 170 1133 q 330 1147 294 1142 q 382 1158 366 1153 q 404 1170 399 1164 q 420 1184 410 1176 q 446 1185 435 1195 q 460 1159 456 1176 q 463 1124 464 1142 q 457 1100 463 1107 q 391 1105 452 1095 q 338 1103 370 1109 q 267 1090 307 1097 q 267 1002 267 1051 q 269 903 267 954 q 274 802 270 852 q 286 713 278 753 q 297 682 289 699 q 305 650 305 665 q 300 632 305 639 q 286 622 294 625 q 267 618 277 618 q 247 617 256 617 q 213 620 232 617 q 194 642 194 623 m 411 654 q 416 676 411 669 q 428 698 422 684 q 439 741 434 712 q 445 825 445 769 q 446 884 445 852 q 447 949 446 916 q 447 1015 448 982 q 442 1074 446 1047 q 431 1094 441 1084 q 414 1114 422 1104 q 403 1132 406 1123 q 412 1149 400 1141 q 458 1169 435 1162 q 509 1176 481 1176 q 519 1170 517 1176 q 522 1156 522 1164 q 519 1139 521 1147 q 519 1126 518 1130 q 538 1098 524 1114 q 569 1067 552 1082 q 602 1039 586 1053 q 625 1020 617 1025 q 695 1076 656 1043 q 751 1138 734 1108 q 747 1155 754 1145 q 741 1175 741 1165 q 761 1190 741 1185 q 805 1194 781 1195 q 849 1185 829 1192 q 869 1166 869 1179 q 865 1146 869 1156 q 854 1127 860 1137 q 844 1108 849 1118 q 838 1088 838 1099 q 837 1014 837 1063 q 839 912 837 964 q 845 817 841 860 q 856 761 849 773 q 878 732 867 742 q 888 701 888 723 q 870 684 888 689 q 828 680 852 680 q 783 685 804 680 q 758 700 762 690 q 762 726 751 715 q 781 747 773 736 q 789 781 787 757 q 793 839 792 806 q 791 910 793 872 q 786 982 789 948 q 779 1042 783 1016 q 770 1078 774 1067 q 746 1059 762 1077 q 711 1019 730 1040 q 671 981 692 998 q 633 964 650 964 q 594 977 610 964 q 564 1005 578 989 q 535 1037 549 1021 q 505 1061 521 1053 q 496 834 491 913 q 517 728 502 755 q 530 707 521 720 q 545 680 540 693 q 545 654 549 666 q 517 640 541 643 q 486 635 505 639 q 452 629 468 631 q 423 633 435 628 q 411 654 411 637 z "},"":{"ha":978,"x_min":11,"x_max":960,"o":"m 857 206 q 829 212 842 206 q 802 227 815 218 q 776 242 789 235 q 746 252 762 250 q 705 256 730 255 q 652 258 681 258 q 658 229 655 243 q 663 201 661 214 q 688 146 669 174 q 722 96 707 119 q 741 52 738 72 q 718 20 743 33 q 663 2 694 9 q 598 -9 631 -5 q 538 -9 566 -12 q 494 3 510 -7 q 477 32 477 14 q 502 79 477 50 q 529 149 522 102 q 534 254 536 195 q 432 241 480 250 q 357 220 384 233 q 275 191 300 190 q 244 212 251 193 q 240 263 237 232 q 239 324 243 294 q 247 395 229 380 q 292 407 264 411 q 349 389 320 403 q 393 373 378 376 q 528 353 454 357 q 516 448 522 401 q 503 534 510 495 q 431 532 464 534 q 380 526 399 530 q 351 515 363 524 q 327 499 339 507 q 302 485 315 491 q 274 479 289 479 q 248 491 255 477 q 237 515 240 505 q 231 562 235 532 q 229 620 228 591 q 235 669 229 648 q 256 690 241 690 q 288 685 273 690 q 317 671 302 680 q 347 654 332 663 q 381 642 362 646 q 431 632 404 635 q 487 628 457 629 q 438 683 472 650 q 357 751 404 716 q 256 821 311 787 q 146 878 201 854 q 114 880 130 884 q 83 869 98 875 q 53 863 68 863 q 22 880 38 863 q 21 922 11 892 q 41 978 31 951 q 56 1017 45 991 q 82 1066 66 1043 q 119 1105 98 1089 q 168 1115 141 1120 q 197 1095 189 1111 q 209 1058 205 1078 q 216 1017 213 1038 q 229 985 220 997 q 262 952 237 974 q 319 903 286 930 q 387 848 351 876 q 456 796 423 819 q 513 759 488 773 q 545 746 537 745 q 605 804 574 772 q 666 875 636 837 q 722 953 696 913 q 768 1034 749 993 q 776 1068 774 1047 q 779 1109 777 1089 q 787 1144 781 1130 q 806 1160 792 1158 q 852 1149 829 1161 q 897 1118 876 1138 q 934 1074 918 1099 q 956 1025 949 1050 q 949 1000 960 1009 q 921 983 939 990 q 886 970 903 977 q 861 954 869 963 q 799 882 837 922 q 724 799 761 842 q 659 713 688 755 q 623 633 631 670 q 722 652 671 639 q 747 662 731 654 q 781 677 762 670 q 818 689 799 685 q 852 688 837 693 q 875 663 867 682 q 880 608 883 644 q 882 566 879 587 q 886 527 884 545 q 884 495 887 509 q 870 476 882 481 q 835 476 859 471 q 772 500 811 481 q 706 519 746 511 q 618 530 666 526 q 625 444 621 490 q 636 353 629 399 q 734 368 688 354 q 766 382 751 373 q 795 399 781 391 q 824 413 810 407 q 854 419 838 419 q 878 398 869 419 q 889 349 886 377 q 892 290 892 320 q 890 244 891 260 q 882 220 888 233 q 857 206 876 206 z "},"&":{"ha":479,"x_min":27,"x_max":458,"o":"m 354 -9 q 284 6 298 -9 q 276 43 270 22 q 296 85 282 64 q 312 121 311 107 q 312 197 315 157 q 309 264 309 237 q 210 256 260 252 q 118 282 159 260 q 52 343 77 304 q 31 442 27 382 q 47 513 34 481 q 76 568 60 544 q 107 607 92 591 q 129 631 122 623 q 106 646 121 636 q 77 672 91 656 q 52 709 62 688 q 42 758 42 730 q 60 859 38 814 q 121 927 81 903 q 215 948 160 951 q 331 906 270 945 q 319 987 327 959 q 300 1029 311 1015 q 278 1048 289 1043 q 259 1061 267 1054 q 231 1085 244 1072 q 216 1113 218 1099 q 231 1139 214 1127 q 292 1161 247 1152 q 398 1151 377 1179 q 376 1072 419 1123 q 374 1057 372 1066 q 385 1027 377 1048 q 404 971 393 1006 q 423 878 414 936 q 399 813 433 825 q 307 831 365 802 q 237 849 267 852 q 186 831 206 846 q 156 793 165 815 q 151 751 146 770 q 177 717 156 727 q 224 706 198 707 q 277 709 251 705 q 316 718 302 713 q 351 713 340 724 q 362 686 362 703 q 354 654 362 670 q 335 635 346 637 q 267 608 305 625 q 196 564 229 590 q 140 505 163 538 q 118 434 118 472 q 126 408 118 420 q 146 385 134 395 q 170 368 157 374 q 191 362 183 362 q 236 366 217 362 q 271 379 255 370 q 304 403 288 388 q 339 438 320 418 q 367 452 351 450 q 397 448 382 453 q 422 432 412 442 q 433 411 433 422 q 429 346 433 382 q 421 271 426 309 q 413 195 416 232 q 410 129 410 159 q 418 106 410 121 q 437 77 427 92 q 452 47 446 62 q 452 18 458 31 q 424 -2 446 5 q 354 -9 401 -9 z "},"}":{"ha":545,"x_min":28,"x_max":507,"o":"m 53 1440 q 86 1497 71 1481 q 115 1512 102 1512 q 138 1499 127 1511 q 158 1474 149 1488 q 174 1448 167 1459 q 186 1435 180 1436 q 292 1402 237 1424 q 390 1341 346 1381 q 460 1238 434 1301 q 480 1082 486 1176 q 462 957 476 1005 q 428 876 448 909 q 385 817 408 842 q 339 762 361 792 q 364 746 350 753 q 392 729 378 739 q 416 703 406 719 q 429 662 426 688 q 426 635 430 647 q 411 611 422 623 q 382 586 400 600 q 340 555 365 572 q 401 510 372 536 q 455 448 431 484 q 493 363 479 412 q 507 248 507 313 q 476 98 507 163 q 397 -12 445 34 q 293 -87 350 -58 q 186 -130 236 -117 q 173 -144 180 -132 q 155 -172 165 -157 q 133 -197 145 -186 q 107 -205 121 -208 q 78 -183 94 -203 q 45 -115 62 -163 q 29 -50 30 -73 q 37 -17 28 -27 q 62 -7 46 -7 q 93 -10 77 -7 q 122 -17 109 -14 q 142 -18 136 -20 q 292 100 235 23 q 350 297 350 178 q 330 387 350 343 q 283 469 311 431 q 252 497 270 487 q 216 515 233 507 q 188 533 199 524 q 176 560 176 543 q 189 595 176 582 q 217 616 201 608 q 251 633 233 625 q 279 656 269 642 q 251 682 269 673 q 216 700 233 690 q 187 722 199 709 q 175 757 175 734 q 186 785 175 774 q 212 805 197 796 q 247 823 228 814 q 282 848 266 833 q 314 888 300 863 q 338 943 328 914 q 354 1003 349 972 q 358 1058 359 1034 q 337 1158 354 1115 q 292 1233 320 1200 q 225 1290 263 1265 q 141 1335 187 1314 q 121 1335 134 1337 q 91 1330 107 1332 q 60 1330 75 1328 q 38 1343 46 1332 q 32 1377 30 1354 q 53 1440 34 1400 z "},"{":{"ha":545,"x_min":30,"x_max":509,"o":"m 484 -134 q 451 -191 467 -175 q 422 -205 435 -206 q 399 -193 410 -205 q 379 -168 388 -182 q 363 -142 370 -153 q 351 -129 357 -130 q 245 -96 300 -118 q 147 -35 191 -75 q 77 68 103 5 q 57 224 52 130 q 75 349 61 301 q 109 431 90 397 q 152 488 129 464 q 198 544 175 513 q 173 560 187 553 q 145 577 159 567 q 121 602 132 587 q 109 644 111 617 q 127 695 106 674 q 197 751 148 716 q 136 796 165 770 q 82 858 106 822 q 44 943 58 894 q 30 1058 30 993 q 61 1208 30 1143 q 140 1318 92 1272 q 244 1393 187 1364 q 351 1436 301 1421 q 364 1451 357 1438 q 382 1478 372 1463 q 404 1503 392 1492 q 430 1512 416 1514 q 459 1489 444 1510 q 492 1421 475 1469 q 508 1356 507 1379 q 500 1323 509 1333 q 475 1313 491 1313 q 444 1316 460 1313 q 414 1323 429 1320 q 395 1324 400 1326 q 245 1206 302 1283 q 187 1009 187 1128 q 207 919 187 963 q 254 837 227 875 q 286 809 267 819 q 321 791 304 799 q 349 773 338 783 q 361 746 361 764 q 349 711 361 723 q 320 690 336 699 q 286 673 304 681 q 258 650 269 665 q 286 625 269 633 q 321 606 304 616 q 350 585 338 597 q 362 549 362 572 q 351 521 362 532 q 325 500 340 510 q 290 481 309 491 q 255 458 271 472 q 223 418 237 444 q 199 363 209 392 q 183 303 189 334 q 179 248 178 273 q 200 149 183 191 q 245 73 217 106 q 312 16 274 41 q 396 -28 350 -8 q 416 -28 401 -31 q 446 -24 430 -26 q 477 -24 463 -22 q 499 -37 491 -26 q 505 -71 507 -47 q 484 -134 502 -94 z "},"":{"ha":690,"x_min":49,"x_max":637,"o":"m 293 22 q 252 23 274 22 q 214 31 231 24 q 189 52 197 37 q 194 95 182 66 q 248 260 228 175 q 113 382 165 301 q 53 578 60 464 q 56 709 49 648 q 88 819 64 770 q 155 905 113 868 q 266 962 198 941 q 241 1043 258 1013 q 225 1074 233 1057 q 212 1105 217 1090 q 208 1133 206 1120 q 222 1149 210 1145 q 298 1164 255 1160 q 406 1169 340 1168 q 438 1154 433 1169 q 439 1116 444 1139 q 427 1066 435 1093 q 416 1017 418 1039 q 415 1002 415 1010 q 414 987 415 994 q 446 989 430 989 q 481 989 463 989 q 507 995 494 989 q 534 1010 521 1001 q 561 1026 548 1019 q 585 1036 574 1034 q 616 1021 604 1039 q 633 973 628 1002 q 637 909 637 944 q 634 844 637 873 q 624 793 631 814 q 609 773 617 773 q 578 785 589 773 q 555 812 567 796 q 526 844 544 827 q 472 868 507 860 q 401 880 434 876 q 378 645 389 774 q 361 376 366 515 q 420 378 391 374 q 450 391 437 381 q 475 411 463 400 q 503 431 488 422 q 541 444 518 441 q 568 426 559 446 q 578 373 576 406 q 576 302 581 340 q 563 229 572 263 q 540 172 553 195 q 510 146 526 148 q 481 153 495 144 q 453 177 467 163 q 427 205 439 191 q 403 224 415 218 q 381 224 392 224 q 359 227 370 225 q 367 187 361 203 q 380 157 373 171 q 395 126 387 142 q 411 87 403 110 q 406 54 418 66 q 374 34 393 41 q 331 24 354 27 q 293 22 308 22 m 155 655 q 191 484 157 543 q 270 400 224 425 q 271 406 270 403 q 271 412 271 410 q 276 511 273 456 q 281 628 279 567 q 282 751 282 689 q 278 869 282 814 q 186 798 221 850 q 155 655 152 746 z "},"":{"ha":298,"x_min":37,"x_max":270,"o":"m 58 -24 q 64 4 58 -9 q 79 31 71 18 q 94 59 87 45 q 104 90 102 73 q 109 161 109 109 q 109 281 110 213 q 106 425 109 349 q 98 568 103 501 q 85 688 92 636 q 66 758 77 739 q 38 837 37 812 q 58 869 39 861 q 109 878 77 878 q 170 886 140 879 q 227 890 208 895 q 252 872 246 886 q 254 839 258 859 q 243 800 250 819 q 229 763 236 780 q 218 737 221 746 q 207 662 212 709 q 199 556 202 614 q 196 433 197 498 q 197 309 195 369 q 205 197 199 248 q 218 111 210 145 q 231 80 222 94 q 249 54 240 67 q 264 27 258 41 q 270 -3 270 14 q 249 -28 270 -19 q 199 -44 228 -38 q 142 -52 171 -50 q 96 -54 113 -54 q 72 -49 85 -54 q 58 -24 58 -43 m 56 1047 q 84 1101 56 1088 q 148 1115 113 1115 q 193 1099 176 1115 q 214 1061 210 1082 q 204 1019 217 1040 q 159 985 191 997 q 123 981 141 978 q 90 992 104 983 q 65 1015 75 1001 q 56 1047 56 1029 z "},"":{"ha":694,"x_min":38,"x_max":678,"o":"m 359 434 q 366 501 364 461 q 367 582 368 540 q 364 663 366 624 q 354 726 361 701 q 335 771 349 750 q 319 818 321 792 q 328 836 317 830 q 352 846 338 842 q 380 850 366 849 q 403 850 395 850 q 433 851 415 850 q 469 848 452 852 q 497 836 486 845 q 509 808 509 827 q 501 789 509 798 q 483 771 492 781 q 466 748 473 761 q 460 715 458 735 q 463 625 463 663 q 465 551 464 586 q 467 482 465 517 q 475 404 469 448 q 470 372 477 384 q 450 353 463 359 q 423 344 438 346 q 392 342 407 342 q 321 330 358 342 q 252 296 283 319 q 201 242 221 274 q 180 171 180 210 q 187 104 180 136 q 208 49 193 73 q 252 9 224 24 q 323 -11 279 -7 q 370 -2 343 -12 q 423 25 397 8 q 465 62 448 42 q 484 100 483 83 q 494 176 487 152 q 509 210 501 201 q 527 218 518 220 q 543 216 536 217 q 576 201 557 214 q 612 172 594 189 q 644 138 629 156 q 666 109 659 121 q 664 73 678 88 q 627 47 650 57 q 585 32 605 37 q 563 26 564 27 q 443 -66 498 -41 q 345 -94 388 -91 q 225 -81 281 -98 q 127 -28 168 -64 q 62 59 85 7 q 38 176 38 111 q 63 279 38 235 q 132 355 88 323 q 233 406 175 387 q 359 434 292 426 m 490 1006 q 462 941 490 960 q 395 921 434 921 q 346 942 364 921 q 326 989 328 963 q 336 1038 323 1016 q 380 1062 350 1061 q 420 1062 400 1063 q 456 1055 441 1061 q 480 1038 471 1050 q 490 1006 490 1027 z "},"":{"ha":772,"x_min":56,"x_max":715,"o":"m 102 503 q 75 515 83 502 q 65 540 68 529 q 59 586 62 556 q 56 644 56 616 q 63 694 57 673 q 84 715 69 715 q 115 709 100 715 q 145 696 130 704 q 175 679 160 688 q 209 666 190 670 q 285 654 243 658 q 373 652 327 651 q 465 660 419 654 q 549 677 510 666 q 574 686 559 678 q 608 702 590 694 q 646 713 627 709 q 680 712 665 718 q 703 688 694 707 q 708 632 711 669 q 709 591 707 612 q 713 551 712 570 q 712 519 715 533 q 698 500 709 506 q 663 500 686 495 q 600 525 639 506 q 514 547 568 538 q 401 557 460 555 q 289 558 342 560 q 208 551 236 556 q 179 540 191 548 q 155 524 167 532 q 130 509 142 515 q 102 503 117 503 z "},"":{"ha":762,"x_min":58,"x_max":718,"o":"m 305 787 q 311 831 304 814 q 332 857 319 848 q 363 869 345 865 q 401 872 381 872 q 451 849 434 872 q 469 799 468 826 q 456 748 471 772 q 412 723 442 724 q 338 734 369 720 q 305 787 307 747 m 313 397 q 323 437 313 422 q 348 463 332 453 q 383 475 363 472 q 425 479 403 479 q 473 456 458 479 q 484 404 487 433 q 462 351 480 376 q 411 326 444 327 q 340 339 366 323 q 313 397 313 355 m 104 503 q 78 515 85 502 q 68 540 71 529 q 62 586 65 556 q 59 644 58 616 q 66 694 60 673 q 87 715 72 715 q 118 709 103 715 q 148 696 133 704 q 178 679 163 688 q 212 666 193 670 q 288 654 245 658 q 376 652 330 651 q 467 660 422 654 q 552 677 513 666 q 577 686 562 678 q 611 702 593 694 q 648 713 629 709 q 682 712 667 718 q 705 688 697 707 q 711 632 713 669 q 712 591 709 612 q 716 551 715 570 q 715 519 718 533 q 701 500 712 506 q 665 500 689 495 q 602 525 642 506 q 517 547 571 538 q 404 557 463 555 q 292 558 345 560 q 210 551 239 556 q 182 540 194 548 q 157 524 170 532 q 132 509 145 515 q 104 503 119 503 z "},"":{"ha":506,"x_min":41,"x_max":473,"o":"m 342 68 q 321 88 328 76 q 307 115 313 100 q 294 143 301 129 q 274 168 286 157 q 239 193 262 179 q 191 224 217 208 q 135 258 164 240 q 79 294 106 275 q 47 329 54 311 q 46 363 41 347 q 64 393 52 380 q 88 416 76 407 q 133 446 106 430 q 186 479 160 461 q 234 515 213 496 q 262 551 255 533 q 271 575 264 559 q 286 608 277 591 q 308 637 296 624 q 334 652 320 650 q 365 644 349 655 q 400 600 381 632 q 438 549 416 572 q 467 507 460 526 q 454 473 473 488 q 369 449 435 458 q 277 416 332 442 q 168 355 222 389 q 250 304 209 327 q 326 271 290 282 q 361 264 343 264 q 395 262 378 263 q 426 260 411 262 q 456 248 441 258 q 463 218 468 240 q 446 170 458 195 q 416 121 433 145 q 389 83 400 96 q 370 66 382 75 q 342 68 357 57 z "},"":{"ha":926,"x_min":41,"x_max":878,"o":"m 342 68 q 321 88 328 76 q 307 115 313 100 q 294 143 301 129 q 274 168 286 157 q 239 193 262 179 q 191 224 217 208 q 135 258 164 240 q 79 294 106 275 q 47 329 54 311 q 46 363 41 347 q 64 393 52 380 q 88 416 76 407 q 133 446 106 430 q 186 479 160 461 q 234 515 213 496 q 262 551 255 533 q 271 575 264 559 q 286 608 277 591 q 308 637 296 624 q 334 652 320 650 q 365 644 349 655 q 400 600 381 632 q 438 549 416 572 q 467 507 460 526 q 454 473 473 488 q 369 449 435 458 q 277 416 332 442 q 168 355 222 389 q 250 304 209 327 q 326 271 290 282 q 361 264 343 264 q 395 262 378 263 q 426 260 411 262 q 456 248 441 258 q 463 218 468 240 q 446 170 458 195 q 416 121 433 145 q 389 83 400 96 q 370 66 382 75 q 342 68 357 57 m 746 75 q 725 95 732 83 q 711 121 718 107 q 698 150 705 136 q 678 175 690 164 q 644 200 666 186 q 595 231 621 214 q 539 264 568 247 q 483 301 510 282 q 452 336 458 317 q 450 370 445 354 q 468 400 456 387 q 492 423 480 414 q 537 452 510 437 q 591 486 564 468 q 638 522 617 503 q 666 557 659 540 q 675 582 669 566 q 690 614 681 598 q 712 644 700 631 q 739 659 724 656 q 769 650 753 662 q 804 606 785 639 q 842 556 821 579 q 871 514 864 533 q 859 480 878 495 q 773 456 840 465 q 682 422 736 449 q 572 362 627 396 q 654 311 613 334 q 730 278 694 289 q 765 271 747 271 q 799 269 783 270 q 830 267 815 269 q 860 255 845 264 q 867 224 872 247 q 850 177 863 202 q 821 127 837 152 q 793 90 804 103 q 774 73 787 81 q 746 75 761 64 z "},"":{"ha":506,"x_min":39,"x_max":472,"o":"m 171 68 q 143 66 156 57 q 123 83 130 75 q 96 121 113 96 q 67 170 80 145 q 50 218 54 195 q 57 248 45 240 q 86 260 71 258 q 118 262 102 262 q 151 264 134 263 q 187 271 168 264 q 263 304 222 282 q 345 355 304 327 q 235 416 290 389 q 144 449 180 442 q 58 473 77 458 q 46 507 39 488 q 75 549 53 526 q 113 600 96 572 q 148 643 132 632 q 178 652 164 654 q 205 637 193 650 q 227 608 217 624 q 242 575 236 591 q 251 551 248 559 q 278 515 256 533 q 326 479 300 496 q 380 446 353 461 q 425 416 407 430 q 449 393 437 407 q 467 363 461 380 q 465 329 472 347 q 434 294 458 311 q 378 258 407 275 q 322 224 349 240 q 273 193 296 208 q 239 168 251 179 q 219 143 227 157 q 205 115 212 129 q 192 88 199 100 q 171 68 184 76 z "},"":{"ha":926,"x_min":84,"x_max":921,"o":"m 620 68 q 592 66 605 57 q 572 83 579 75 q 545 121 562 96 q 516 170 529 145 q 498 218 503 195 q 506 248 494 240 q 535 260 519 258 q 567 262 551 262 q 600 264 583 263 q 636 271 617 264 q 712 304 671 282 q 793 355 753 327 q 684 416 739 389 q 593 449 629 442 q 507 473 526 458 q 495 507 488 488 q 524 549 502 526 q 562 600 545 572 q 597 643 581 632 q 627 652 613 654 q 654 637 642 650 q 675 608 666 624 q 691 575 685 591 q 700 551 697 559 q 727 515 705 533 q 775 479 749 496 q 829 446 802 461 q 873 416 856 430 q 898 393 886 407 q 916 363 910 380 q 914 329 921 347 q 883 294 907 311 q 827 258 856 275 q 771 224 798 240 q 722 193 745 208 q 688 168 700 179 q 668 143 675 157 q 654 115 661 129 q 641 88 648 100 q 620 68 633 76 m 216 75 q 188 73 201 64 q 168 90 175 81 q 141 127 157 103 q 112 177 125 152 q 94 224 99 202 q 102 255 90 247 q 131 267 115 264 q 163 269 146 269 q 196 271 179 270 q 232 278 213 271 q 308 311 267 289 q 389 362 349 334 q 280 422 335 396 q 189 456 225 449 q 103 480 122 465 q 91 514 84 495 q 119 556 98 533 q 157 606 141 579 q 193 650 176 639 q 223 659 209 661 q 250 644 237 656 q 271 614 262 631 q 287 582 281 598 q 296 557 293 566 q 323 522 301 540 q 371 486 345 503 q 425 452 397 468 q 469 423 452 437 q 494 400 481 414 q 511 370 506 387 q 510 336 517 354 q 479 301 503 317 q 422 264 452 282 q 367 231 393 247 q 318 200 340 214 q 283 175 296 186 q 264 150 271 164 q 250 121 256 136 q 237 95 244 107 q 216 75 229 83 z "},"":{"ha":764,"x_min":75,"x_max":675,"o":"m 661 473 q 673 446 675 461 q 666 422 670 431 q 641 382 658 407 q 605 335 624 357 q 568 301 586 313 q 538 298 551 289 q 517 323 525 309 q 505 353 510 338 q 492 385 499 369 q 475 416 486 401 q 433 465 457 439 q 380 514 408 490 q 326 452 350 481 q 290 403 302 422 q 279 374 282 389 q 275 345 277 359 q 269 316 273 330 q 255 292 266 302 q 228 280 243 277 q 203 289 213 283 q 165 316 189 298 q 120 353 141 334 q 87 391 99 372 q 85 420 75 410 q 111 440 96 433 q 141 453 125 448 q 174 464 157 458 q 205 480 190 469 q 254 520 229 496 q 304 571 279 544 q 255 602 279 587 q 206 628 231 617 q 181 636 198 632 q 145 646 164 640 q 109 661 126 652 q 85 684 92 670 q 82 717 77 697 q 113 764 87 736 q 149 813 133 785 q 182 852 165 841 q 219 850 199 864 q 266 776 239 837 q 306 716 278 749 q 368 650 334 684 q 399 696 384 673 q 425 742 414 719 q 439 784 431 754 q 463 838 448 814 q 501 865 477 861 q 564 830 525 869 q 612 791 586 808 q 650 758 639 774 q 647 722 662 741 q 571 677 632 703 q 512 640 545 666 q 444 581 479 613 q 503 534 475 553 q 549 505 530 514 q 578 494 563 496 q 608 491 594 492 q 636 486 623 490 q 661 473 650 483 z "},"~":{"ha":907,"x_min":28,"x_max":891,"o":"m 838 616 q 857 513 860 560 q 829 429 853 465 q 762 373 804 393 q 665 353 720 353 q 587 372 621 353 q 522 420 552 392 q 464 479 491 448 q 408 537 437 511 q 382 564 396 549 q 352 591 368 578 q 319 614 336 605 q 285 624 302 624 q 227 604 250 621 q 205 553 205 587 q 212 519 205 534 q 229 488 220 503 q 244 458 237 473 q 251 423 251 442 q 236 404 251 412 q 199 392 221 396 q 151 388 178 388 q 100 391 123 388 q 60 402 77 395 q 38 420 42 410 q 33 464 28 449 q 49 492 38 479 q 73 520 60 505 q 94 566 87 536 q 155 676 111 639 q 288 713 199 713 q 367 694 330 715 q 439 645 404 674 q 506 583 473 616 q 570 526 538 551 q 600 501 586 514 q 629 483 613 488 q 666 482 646 477 q 716 510 686 487 q 732 526 724 515 q 741 550 739 536 q 736 583 743 564 q 709 624 730 601 q 671 684 674 662 q 684 715 669 705 q 722 729 699 726 q 761 734 745 732 q 876 710 860 742 q 838 616 891 678 z "},"":{"ha":963,"x_min":104,"x_max":863,"o":"m 815 1461 q 832 1370 836 1412 q 808 1297 829 1328 q 749 1247 787 1265 q 663 1229 712 1229 q 594 1246 625 1229 q 536 1289 563 1264 q 486 1341 510 1313 q 438 1392 463 1369 q 415 1415 427 1401 q 389 1440 403 1428 q 361 1459 376 1451 q 330 1468 346 1468 q 279 1450 298 1465 q 259 1405 259 1435 q 266 1375 259 1389 q 280 1348 273 1362 q 294 1321 288 1335 q 300 1291 300 1308 q 273 1268 300 1276 q 212 1259 245 1260 q 148 1266 178 1259 q 113 1289 118 1274 q 109 1326 104 1313 q 122 1351 113 1340 q 143 1376 132 1362 q 161 1416 155 1390 q 215 1513 176 1480 q 331 1546 254 1546 q 401 1530 368 1548 q 465 1487 434 1512 q 524 1432 495 1461 q 579 1382 552 1402 q 610 1360 594 1371 q 644 1344 627 1350 q 679 1340 661 1339 q 715 1355 697 1341 q 728 1371 722 1360 q 734 1397 734 1382 q 728 1430 735 1412 q 703 1468 720 1447 q 669 1520 671 1501 q 680 1548 667 1538 q 713 1560 693 1557 q 747 1564 734 1563 q 849 1543 836 1571 q 815 1461 863 1515 z "},"":{"ha":541,"x_min":125,"x_max":490,"o":"m 362 -178 q 264 -201 309 -205 q 189 -172 220 -198 q 141 -102 157 -146 q 129 -3 125 -58 q 142 45 130 19 q 170 100 153 72 q 210 154 187 127 q 255 201 232 180 l 315 145 q 286 103 302 127 q 254 52 269 79 q 233 -3 240 24 q 236 -52 227 -30 q 252 -70 240 -61 q 281 -81 263 -79 q 319 -77 298 -84 q 361 -47 340 -71 q 417 -5 396 -9 q 450 -15 438 -1 q 466 -52 461 -28 q 473 -91 471 -75 q 459 -207 490 -189 q 362 -178 429 -225 z "},"":{"ha":326,"x_min":45,"x_max":298,"o":"m 62 110 l 129 110 l 129 28 q 259 -1 220 24 q 298 -83 298 -26 q 285 -149 298 -118 q 248 -199 271 -179 q 195 -223 225 -218 q 130 -212 164 -228 q 66 -221 88 -243 q 56 -137 45 -199 q 60 -113 57 -127 q 71 -89 64 -98 q 91 -82 77 -80 q 126 -109 104 -84 q 153 -128 140 -123 q 178 -131 167 -133 q 198 -123 190 -129 q 206 -111 206 -118 q 198 -69 208 -83 q 172 -51 189 -56 q 137 -47 156 -46 q 101 -45 118 -47 q 73 -37 84 -43 q 62 -12 62 -31 l 62 110 z "},"":{"ha":547,"x_min":-3,"x_max":547,"o":"m 538 1419 q 522 1404 532 1409 q 504 1394 513 1398 q 486 1385 495 1390 q 471 1370 477 1379 q 388 1292 439 1322 q 278 1257 336 1261 q 162 1281 220 1253 q 62 1378 104 1309 q 39 1394 57 1388 q 9 1411 22 1401 q 1 1438 -3 1421 q 39 1484 4 1454 q 80 1508 56 1497 q 123 1514 104 1518 q 148 1491 141 1511 q 137 1426 155 1472 q 201 1351 163 1369 q 277 1340 239 1333 q 349 1372 316 1347 q 399 1426 382 1397 q 406 1448 406 1438 q 404 1468 406 1458 q 401 1488 401 1478 q 408 1508 401 1497 q 431 1514 415 1518 q 466 1499 448 1510 q 502 1475 484 1488 q 529 1454 519 1462 q 541 1440 536 1450 q 538 1419 547 1430 z "},"":{"ha":730,"x_min":54,"x_max":694,"o":"m 100 1215 q 74 1227 81 1214 q 64 1252 66 1241 q 58 1298 61 1268 q 55 1356 54 1328 q 62 1406 56 1385 q 83 1427 68 1427 q 114 1421 99 1427 q 144 1408 129 1416 q 174 1391 159 1400 q 208 1378 189 1382 q 288 1366 241 1370 q 385 1363 334 1362 q 485 1370 435 1364 q 574 1386 534 1375 q 605 1405 587 1389 q 640 1429 623 1421 q 669 1423 656 1436 q 686 1354 682 1409 q 691 1293 688 1322 q 688 1242 694 1263 q 663 1218 682 1222 q 598 1237 643 1214 q 513 1260 567 1252 q 400 1271 458 1268 q 288 1271 342 1274 q 206 1263 235 1268 q 178 1252 190 1260 q 153 1236 165 1244 q 128 1221 141 1227 q 100 1215 115 1215 z "},"":{"ha":557,"x_min":16,"x_max":517,"o":"m 72 22 q 60 33 65 26 q 56 47 56 41 q 71 100 56 76 q 95 149 85 123 q 111 237 106 179 q 115 364 115 294 q 113 507 115 434 q 106 643 110 581 q 98 749 102 705 q 95 802 95 792 q 80 878 92 850 q 54 922 68 905 q 28 954 39 940 q 16 991 16 968 q 43 1037 16 1020 q 106 1063 71 1054 q 178 1076 142 1073 q 233 1080 214 1080 q 248 1077 239 1080 q 264 1068 256 1074 q 274 1053 271 1062 q 269 1031 277 1044 q 205 844 217 941 q 206 625 194 746 q 307 637 252 639 q 408 618 361 636 q 486 563 454 600 q 517 468 517 526 q 490 382 517 418 q 421 323 464 346 q 324 290 378 300 q 216 282 270 279 q 212 172 203 213 q 233 106 220 132 q 257 66 245 81 q 264 33 269 52 q 234 7 260 14 q 175 1 208 0 q 113 9 142 3 q 72 22 83 15 m 415 475 q 389 523 414 505 q 332 549 365 541 q 266 552 300 556 q 212 533 232 548 l 212 399 q 271 385 236 384 q 339 399 307 387 q 394 431 372 411 q 415 475 416 452 z "},"":{"ha":557,"x_min":19,"x_max":517,"o":"m 72 22 q 60 33 65 26 q 56 47 56 41 q 71 100 56 76 q 95 149 85 123 q 111 243 106 179 q 116 387 115 308 q 114 549 117 465 q 108 705 111 633 q 101 827 104 777 q 98 886 98 876 q 83 962 95 935 q 56 1006 71 989 q 31 1038 42 1024 q 19 1076 19 1053 q 46 1121 19 1104 q 109 1147 73 1138 q 181 1160 145 1157 q 236 1164 217 1164 q 250 1161 241 1164 q 267 1152 259 1158 q 277 1137 274 1146 q 271 1115 279 1128 q 207 930 220 1025 q 206 716 194 836 q 307 728 252 730 q 408 709 361 727 q 486 654 454 690 q 517 559 517 617 q 490 473 517 509 q 421 414 464 437 q 324 380 378 391 q 216 373 270 370 q 212 249 203 304 q 233 152 220 194 q 257 81 245 110 q 264 33 269 52 q 234 7 260 14 q 175 1 208 0 q 113 9 142 3 q 72 22 83 15 m 415 566 q 389 614 414 595 q 332 640 365 632 q 266 643 300 647 q 212 624 232 639 l 212 490 q 271 476 236 475 q 339 490 307 477 q 394 522 372 502 q 415 566 416 543 z "},"":{"ha":671,"x_min":30,"x_max":633,"o":"m 243 1032 q 201 1021 217 1028 q 176 1000 184 1015 q 164 964 167 986 q 161 907 161 941 q 166 627 164 751 q 170 407 168 503 q 175 239 172 311 q 182 118 178 168 q 188 82 183 96 q 197 56 193 68 q 205 33 202 45 q 209 4 209 20 q 193 -14 209 -7 q 156 -24 178 -22 q 109 -26 134 -27 q 66 -16 84 -24 q 39 5 47 -8 q 39 39 30 19 q 55 62 45 49 q 71 110 65 75 q 77 188 75 142 q 81 288 80 233 q 80 402 81 342 q 77 525 79 463 q 64 745 73 648 q 39 926 54 841 q 41 1015 31 975 q 79 1082 50 1055 q 159 1123 109 1109 q 283 1131 209 1137 q 441 1073 385 1124 q 498 945 498 1021 q 481 899 498 921 q 439 860 464 878 q 386 830 414 842 q 338 811 358 818 q 427 773 377 796 q 522 714 477 750 q 597 626 566 678 q 632 500 629 574 q 614 382 633 441 q 559 275 594 323 q 478 197 525 228 q 380 161 431 165 q 371 153 377 161 q 357 134 365 144 q 340 116 350 125 q 319 107 330 107 q 298 118 309 107 q 275 157 286 129 q 259 219 260 197 q 264 252 258 241 q 284 266 271 263 q 311 267 297 269 q 336 262 324 264 q 353 260 347 259 q 438 300 407 274 q 485 361 469 327 q 505 435 500 396 q 509 513 509 475 q 477 610 509 567 q 404 684 446 652 q 315 734 361 715 q 240 758 269 753 q 226 780 235 760 q 212 824 217 800 q 212 867 208 848 q 236 887 216 887 q 277 889 252 887 q 326 898 302 891 q 366 918 349 905 q 382 955 382 932 q 370 991 382 975 q 336 1018 357 1008 q 291 1032 316 1028 q 243 1032 266 1036 z "},"":{"ha":907,"x_min":3,"x_max":902,"o":"m 155 -23 q 55 -12 87 -22 q 13 13 23 -1 q 7 41 3 27 q 19 65 12 56 q 45 83 26 73 q 71 113 64 94 q 107 233 88 163 q 144 382 126 302 q 180 547 163 463 q 211 713 197 632 q 236 863 225 793 q 252 985 247 933 q 249 1023 255 1005 q 237 1057 243 1042 q 229 1087 231 1073 q 237 1114 227 1101 q 276 1139 248 1127 q 357 1162 304 1150 q 448 1166 422 1176 q 479 1135 473 1157 q 483 1084 486 1112 q 487 1035 480 1057 q 596 728 544 869 q 692 474 648 586 q 769 283 735 362 q 822 165 803 203 q 849 150 827 155 q 886 135 871 145 q 898 103 902 125 q 848 37 894 81 q 829 20 842 31 q 799 -4 817 8 q 760 -25 781 -16 q 718 -31 739 -34 q 680 -17 686 -28 q 678 12 674 -5 q 690 50 682 30 q 693 92 697 71 q 679 153 689 114 q 656 241 669 193 q 627 345 643 290 q 595 450 612 399 q 563 545 579 500 q 533 617 547 589 q 494 611 525 613 q 425 605 463 609 q 351 593 388 601 q 297 570 315 585 l 191 85 q 197 51 187 71 q 210 15 206 31 q 205 -13 214 -1 q 155 -23 195 -24 m 373 1015 q 352 921 361 970 q 336 826 343 872 q 322 742 328 780 q 311 681 316 704 q 345 684 319 681 q 403 692 372 688 q 462 703 434 697 q 500 716 490 709 q 484 749 491 731 q 463 800 476 768 q 429 882 450 831 q 373 1015 408 933 m 458 1348 q 427 1334 450 1344 q 377 1310 403 1324 q 328 1278 351 1295 q 296 1241 304 1260 q 248 1185 264 1195 q 221 1183 232 1175 q 201 1215 210 1192 q 176 1256 191 1237 q 153 1313 149 1294 q 173 1340 156 1332 q 212 1349 190 1348 q 245 1348 233 1350 q 282 1354 260 1347 q 326 1374 304 1362 q 366 1401 347 1386 q 393 1430 385 1416 q 399 1443 395 1431 q 410 1468 403 1455 q 426 1491 416 1481 q 448 1501 435 1501 q 474 1482 460 1500 q 506 1423 488 1465 q 524 1369 519 1388 q 524 1342 528 1350 q 511 1335 519 1335 q 492 1339 502 1336 q 473 1346 483 1343 q 458 1348 464 1350 z "},"":{"ha":907,"x_min":3,"x_max":902,"o":"m 155 -23 q 55 -12 87 -22 q 13 13 23 -1 q 7 41 3 27 q 19 65 12 56 q 45 83 26 73 q 71 113 64 94 q 107 233 88 163 q 144 382 126 302 q 180 547 163 463 q 211 713 197 632 q 236 863 225 793 q 252 985 247 933 q 249 1023 255 1005 q 237 1057 243 1042 q 229 1087 231 1073 q 237 1114 227 1101 q 276 1139 248 1127 q 357 1162 304 1150 q 448 1166 422 1176 q 479 1135 473 1157 q 483 1084 486 1112 q 487 1035 480 1057 q 596 728 544 869 q 692 474 648 586 q 769 283 735 362 q 822 165 803 203 q 849 150 827 155 q 886 135 871 145 q 898 103 902 125 q 848 37 894 81 q 829 20 842 31 q 799 -4 817 8 q 760 -25 781 -16 q 718 -31 739 -34 q 680 -17 686 -28 q 678 12 674 -5 q 690 50 682 30 q 693 92 697 71 q 679 153 689 114 q 656 241 669 193 q 627 345 643 290 q 595 450 612 399 q 563 545 579 500 q 533 617 547 589 q 494 611 525 613 q 425 605 463 609 q 351 593 388 601 q 297 570 315 585 l 191 85 q 197 51 187 71 q 210 15 206 31 q 205 -13 214 -1 q 155 -23 195 -24 m 373 1015 q 352 921 361 970 q 336 826 343 872 q 322 742 328 780 q 311 681 316 704 q 345 684 319 681 q 403 692 372 688 q 462 703 434 697 q 500 716 490 709 q 484 749 491 731 q 463 800 476 768 q 429 882 450 831 q 373 1015 408 933 m 648 1431 q 632 1416 642 1421 q 614 1407 623 1411 q 596 1397 605 1402 q 581 1382 587 1392 q 498 1304 549 1335 q 388 1270 446 1274 q 272 1293 330 1265 q 172 1390 214 1321 q 149 1407 167 1400 q 119 1423 132 1413 q 111 1450 107 1434 q 149 1496 114 1466 q 190 1520 165 1510 q 233 1527 214 1530 q 258 1503 251 1523 q 247 1438 264 1484 q 311 1363 273 1381 q 387 1352 349 1345 q 459 1384 426 1359 q 509 1438 492 1409 q 515 1460 515 1450 q 513 1480 515 1470 q 511 1500 511 1491 q 518 1520 511 1510 q 541 1526 525 1530 q 576 1511 557 1522 q 612 1487 594 1500 q 639 1466 629 1474 q 651 1452 646 1462 q 648 1431 656 1442 z "},"":{"ha":907,"x_min":3,"x_max":902,"o":"m 155 -23 q 55 -12 87 -22 q 13 13 23 -1 q 7 41 3 27 q 19 65 12 56 q 45 83 26 73 q 71 113 64 94 q 107 233 88 163 q 144 382 126 302 q 180 547 163 463 q 211 713 197 632 q 236 863 225 793 q 252 985 247 933 q 249 1023 255 1005 q 237 1057 243 1042 q 229 1087 231 1073 q 237 1114 227 1101 q 276 1139 248 1127 q 357 1162 304 1150 q 448 1166 422 1176 q 479 1135 473 1157 q 483 1084 486 1112 q 487 1035 480 1057 q 596 728 544 869 q 692 474 648 586 q 769 283 735 362 q 822 165 803 203 q 849 150 827 155 q 886 135 871 145 q 898 103 902 125 q 848 37 894 81 q 829 20 842 31 q 799 -4 817 8 q 760 -25 781 -16 q 718 -31 739 -34 q 680 -17 686 -28 q 678 12 674 -5 q 690 50 682 30 q 693 92 697 71 q 679 153 689 114 q 656 241 669 193 q 627 345 643 290 q 595 450 612 399 q 563 545 579 500 q 533 617 547 589 q 494 611 525 613 q 425 605 463 609 q 351 593 388 601 q 297 570 315 585 l 191 85 q 197 51 187 71 q 210 15 206 31 q 205 -13 214 -1 q 155 -23 195 -24 m 373 1015 q 352 921 361 970 q 336 826 343 872 q 322 742 328 780 q 311 681 316 704 q 345 684 319 681 q 403 692 372 688 q 462 703 434 697 q 500 716 490 709 q 484 749 491 731 q 463 800 476 768 q 429 882 450 831 q 373 1015 408 933 m 118 1305 q 135 1322 125 1316 q 156 1333 145 1328 q 178 1344 167 1339 q 198 1360 190 1350 q 242 1428 217 1381 q 298 1519 267 1474 q 326 1544 312 1539 q 353 1545 340 1549 q 378 1531 366 1541 q 397 1512 389 1522 q 421 1476 408 1497 q 448 1433 434 1454 q 477 1394 463 1412 q 506 1373 491 1377 q 539 1360 517 1369 q 576 1337 562 1351 q 589 1303 591 1322 q 547 1261 586 1284 q 507 1231 526 1249 q 473 1207 488 1213 q 446 1217 458 1202 q 426 1286 434 1233 q 398 1360 420 1316 q 349 1446 376 1404 q 308 1380 326 1413 q 282 1320 290 1347 q 276 1291 277 1305 q 275 1263 275 1276 q 273 1238 275 1251 q 264 1214 271 1226 q 239 1207 258 1203 q 201 1221 221 1211 q 161 1244 180 1232 q 130 1265 141 1257 q 117 1282 123 1271 q 118 1305 110 1293 z "},"":{"ha":907,"x_min":3,"x_max":902,"o":"m 155 -23 q 55 -12 87 -22 q 13 13 23 -1 q 7 41 3 27 q 19 65 12 56 q 45 83 26 73 q 71 113 64 94 q 107 233 88 163 q 144 382 126 302 q 180 547 163 463 q 211 713 197 632 q 236 863 225 793 q 252 985 247 933 q 249 1023 255 1005 q 237 1057 243 1042 q 229 1087 231 1073 q 237 1114 227 1101 q 276 1139 248 1127 q 357 1162 304 1150 q 448 1166 422 1176 q 479 1135 473 1157 q 483 1084 486 1112 q 487 1035 480 1057 q 596 728 544 869 q 692 474 648 586 q 769 283 735 362 q 822 165 803 203 q 849 150 827 155 q 886 135 871 145 q 898 103 902 125 q 848 37 894 81 q 829 20 842 31 q 799 -4 817 8 q 760 -25 781 -16 q 718 -31 739 -34 q 680 -17 686 -28 q 678 12 674 -5 q 690 50 682 30 q 693 92 697 71 q 679 153 689 114 q 656 241 669 193 q 627 345 643 290 q 595 450 612 399 q 563 545 579 500 q 533 617 547 589 q 494 611 525 613 q 425 605 463 609 q 351 593 388 601 q 297 570 315 585 l 191 85 q 197 51 187 71 q 210 15 206 31 q 205 -13 214 -1 q 155 -23 195 -24 m 373 1015 q 352 921 361 970 q 336 826 343 872 q 322 742 328 780 q 311 681 316 704 q 345 684 319 681 q 403 692 372 688 q 462 703 434 697 q 500 716 490 709 q 484 749 491 731 q 463 800 476 768 q 429 882 450 831 q 373 1015 408 933 m 199 1415 q 184 1413 194 1416 q 165 1406 175 1409 q 147 1402 156 1402 q 134 1409 138 1401 q 134 1435 130 1416 q 152 1489 137 1454 q 183 1549 168 1531 q 210 1567 198 1567 q 232 1558 222 1568 q 248 1535 241 1548 q 259 1510 255 1522 q 264 1496 263 1497 q 292 1468 273 1482 q 332 1440 311 1453 q 376 1421 354 1428 q 412 1415 397 1413 q 446 1415 425 1416 q 485 1407 468 1415 q 505 1379 502 1398 q 481 1322 507 1360 q 457 1281 467 1303 q 437 1250 448 1259 q 409 1251 426 1241 q 362 1308 392 1261 q 330 1344 354 1326 q 281 1376 307 1362 q 231 1400 255 1390 q 199 1415 208 1411 z "},"":{"ha":907,"x_min":3,"x_max":902,"o":"m 155 -23 q 55 -12 87 -22 q 13 13 23 -1 q 7 41 3 27 q 19 65 12 56 q 45 83 26 73 q 71 113 64 94 q 107 233 88 163 q 144 382 126 302 q 180 547 163 463 q 211 713 197 632 q 236 863 225 793 q 252 985 247 933 q 249 1023 255 1005 q 237 1057 243 1042 q 229 1087 231 1073 q 237 1114 227 1101 q 276 1139 248 1127 q 357 1162 304 1150 q 448 1166 422 1176 q 479 1135 473 1157 q 483 1084 486 1112 q 487 1035 480 1057 q 596 728 544 869 q 692 474 648 586 q 769 283 735 362 q 822 165 803 203 q 849 150 827 155 q 886 135 871 145 q 898 103 902 125 q 848 37 894 81 q 829 20 842 31 q 799 -4 817 8 q 760 -25 781 -16 q 718 -31 739 -34 q 680 -17 686 -28 q 678 12 674 -5 q 690 50 682 30 q 693 92 697 71 q 679 153 689 114 q 656 241 669 193 q 627 345 643 290 q 595 450 612 399 q 563 545 579 500 q 533 617 547 589 q 494 611 525 613 q 425 605 463 609 q 351 593 388 601 q 297 570 315 585 l 191 85 q 197 51 187 71 q 210 15 206 31 q 205 -13 214 -1 q 155 -23 195 -24 m 373 1015 q 352 921 361 970 q 336 826 343 872 q 322 742 328 780 q 311 681 316 704 q 345 684 319 681 q 403 692 372 688 q 462 703 434 697 q 500 716 490 709 q 484 749 491 731 q 463 800 476 768 q 429 882 450 831 q 373 1015 408 933 m 237 1405 q 283 1383 267 1401 q 302 1343 298 1366 q 300 1294 307 1320 q 277 1249 293 1268 q 239 1220 262 1230 q 189 1217 216 1210 q 129 1262 144 1229 q 123 1329 114 1295 q 161 1387 132 1363 q 237 1405 191 1411 m 505 1408 q 567 1371 549 1401 q 578 1308 585 1341 q 546 1248 572 1274 q 477 1226 519 1222 q 431 1244 449 1229 q 407 1281 414 1260 q 403 1326 400 1302 q 418 1370 406 1351 q 452 1400 430 1389 q 505 1408 473 1412 z "},"":{"ha":907,"x_min":3,"x_max":902,"o":"m 155 -23 q 55 -12 87 -22 q 13 13 23 -1 q 7 41 3 27 q 19 65 12 56 q 45 83 26 73 q 71 113 64 94 q 107 233 88 163 q 144 382 126 302 q 180 547 163 463 q 211 713 197 632 q 236 863 225 793 q 252 985 247 933 q 249 1023 255 1005 q 237 1057 243 1042 q 229 1087 231 1073 q 237 1114 227 1101 q 276 1139 248 1127 q 357 1162 304 1150 q 448 1166 422 1176 q 479 1135 473 1157 q 483 1084 486 1112 q 487 1035 480 1057 q 596 728 544 869 q 692 474 648 586 q 769 283 735 362 q 822 165 803 203 q 849 150 827 155 q 886 135 871 145 q 898 103 902 125 q 848 37 894 81 q 829 20 842 31 q 799 -4 817 8 q 760 -25 781 -16 q 718 -31 739 -34 q 680 -17 686 -28 q 678 12 674 -5 q 690 50 682 30 q 693 92 697 71 q 679 153 689 114 q 656 241 669 193 q 627 345 643 290 q 595 450 612 399 q 563 545 579 500 q 533 617 547 589 q 494 611 525 613 q 425 605 463 609 q 351 593 388 601 q 297 570 315 585 l 191 85 q 197 51 187 71 q 210 15 206 31 q 205 -13 214 -1 q 155 -23 195 -24 m 373 1015 q 352 921 361 970 q 336 826 343 872 q 322 742 328 780 q 311 681 316 704 q 345 684 319 681 q 403 692 372 688 q 462 703 434 697 q 500 716 490 709 q 484 749 491 731 q 463 800 476 768 q 429 882 450 831 q 373 1015 408 933 m 113 1194 q 86 1206 94 1192 q 76 1230 79 1219 q 70 1276 73 1246 q 67 1335 66 1306 q 74 1384 68 1363 q 95 1405 80 1405 q 126 1400 111 1405 q 156 1386 141 1394 q 186 1369 171 1378 q 220 1356 201 1360 q 300 1344 254 1348 q 397 1341 346 1340 q 497 1348 448 1343 q 586 1364 547 1354 q 617 1383 600 1367 q 652 1407 635 1400 q 682 1401 669 1415 q 699 1332 694 1388 q 703 1271 700 1301 q 701 1221 707 1241 q 675 1196 694 1200 q 610 1215 655 1192 q 525 1238 579 1230 q 412 1249 471 1246 q 300 1249 354 1252 q 218 1241 247 1246 q 190 1230 202 1238 q 165 1214 178 1222 q 140 1200 153 1206 q 113 1194 127 1194 z "},"":{"ha":907,"x_min":3,"x_max":943,"o":"m 155 -23 q 55 -12 87 -22 q 13 13 23 -1 q 7 41 3 27 q 19 65 12 56 q 45 83 26 73 q 71 113 64 94 q 107 233 88 163 q 144 382 126 302 q 180 547 163 463 q 211 713 197 632 q 236 863 225 793 q 252 985 247 933 q 249 1023 255 1005 q 237 1057 243 1042 q 229 1087 231 1073 q 237 1114 227 1101 q 276 1139 248 1127 q 357 1162 304 1150 q 448 1166 422 1176 q 479 1135 473 1157 q 483 1084 486 1112 q 487 1035 480 1057 q 596 728 544 869 q 692 474 648 586 q 769 283 735 362 q 822 165 803 203 q 849 150 827 155 q 886 135 871 145 q 898 103 902 125 q 848 37 894 81 q 829 20 842 31 q 799 -4 817 8 q 760 -25 781 -16 q 718 -31 739 -34 q 680 -17 686 -28 q 678 12 674 -5 q 690 50 682 30 q 693 92 697 71 q 679 153 689 114 q 656 241 669 193 q 627 345 643 290 q 595 450 612 399 q 563 545 579 500 q 533 617 547 589 q 494 611 525 613 q 425 605 463 609 q 351 593 388 601 q 297 570 315 585 l 191 85 q 197 51 187 71 q 210 15 206 31 q 205 -13 214 -1 q 155 -23 195 -24 m 373 1015 q 352 921 361 970 q 336 826 343 872 q 322 742 328 780 q 311 681 316 704 q 345 684 319 681 q 403 692 372 688 q 462 703 434 697 q 500 716 490 709 q 484 749 491 731 q 463 800 476 768 q 429 882 450 831 q 373 1015 408 933 m 815 -187 q 718 -211 762 -214 q 642 -182 673 -208 q 594 -112 610 -156 q 582 -12 578 -68 q 595 36 583 9 q 623 90 606 62 q 663 144 640 118 q 708 191 685 171 l 768 136 q 739 94 755 118 q 707 42 722 69 q 686 -12 693 15 q 689 -61 680 -39 q 705 -79 693 -71 q 734 -91 716 -88 q 772 -87 751 -94 q 814 -57 793 -80 q 870 -15 849 -19 q 903 -24 891 -11 q 919 -61 914 -38 q 926 -100 924 -84 q 912 -216 943 -198 q 815 -187 882 -235 z "},"":{"ha":907,"x_min":3,"x_max":902,"o":"m 155 -23 q 55 -12 87 -22 q 13 13 23 -1 q 7 41 3 27 q 19 65 12 56 q 45 83 26 73 q 71 113 64 94 q 107 233 88 163 q 144 382 126 302 q 180 547 163 463 q 211 713 197 632 q 236 863 225 793 q 252 985 247 933 q 249 1023 255 1005 q 237 1057 243 1042 q 229 1087 231 1073 q 237 1114 227 1101 q 276 1139 248 1127 q 357 1162 304 1150 q 448 1166 422 1176 q 479 1135 473 1157 q 483 1084 486 1112 q 487 1035 480 1057 q 596 728 544 869 q 692 474 648 586 q 769 283 735 362 q 822 165 803 203 q 849 150 827 155 q 886 135 871 145 q 898 103 902 125 q 848 37 894 81 q 829 20 842 31 q 799 -4 817 8 q 760 -25 781 -16 q 718 -31 739 -34 q 680 -17 686 -28 q 678 12 674 -5 q 690 50 682 30 q 693 92 697 71 q 679 153 689 114 q 656 241 669 193 q 627 345 643 290 q 595 450 612 399 q 563 545 579 500 q 533 617 547 589 q 494 611 525 613 q 425 605 463 609 q 351 593 388 601 q 297 570 315 585 l 191 85 q 197 51 187 71 q 210 15 206 31 q 205 -13 214 -1 q 155 -23 195 -24 m 373 1015 q 352 921 361 970 q 336 826 343 872 q 322 742 328 780 q 311 681 316 704 q 345 684 319 681 q 403 692 372 688 q 462 703 434 697 q 500 716 490 709 q 484 749 491 731 q 463 800 476 768 q 429 882 450 831 q 373 1015 408 933 m 381 1453 q 450 1417 427 1442 q 477 1360 473 1392 q 469 1297 481 1329 q 432 1242 457 1265 q 372 1211 407 1219 q 294 1215 336 1202 q 244 1251 260 1226 q 227 1303 228 1275 q 237 1362 225 1332 q 269 1414 248 1392 q 319 1448 290 1436 q 381 1453 347 1459 m 311 1294 q 334 1293 321 1283 q 357 1319 347 1302 q 369 1356 366 1336 q 362 1385 372 1375 q 338 1386 351 1396 q 316 1360 326 1377 q 304 1323 307 1343 q 311 1294 301 1303 z "},"":{"ha":907,"x_min":3,"x_max":902,"o":"m 155 -23 q 55 -12 87 -22 q 13 13 23 -1 q 7 41 3 27 q 19 65 12 56 q 45 83 26 73 q 71 113 64 94 q 107 233 88 163 q 144 382 126 302 q 180 547 163 463 q 211 713 197 632 q 236 863 225 793 q 252 985 247 933 q 249 1023 255 1005 q 237 1057 243 1042 q 229 1087 231 1073 q 237 1114 227 1101 q 276 1139 248 1127 q 357 1162 304 1150 q 448 1166 422 1176 q 479 1135 473 1157 q 483 1084 486 1112 q 487 1035 480 1057 q 596 728 544 869 q 692 474 648 586 q 769 283 735 362 q 822 165 803 203 q 849 150 827 155 q 886 135 871 145 q 898 103 902 125 q 848 37 894 81 q 829 20 842 31 q 799 -4 817 8 q 760 -25 781 -16 q 718 -31 739 -34 q 680 -17 686 -28 q 678 12 674 -5 q 690 50 682 30 q 693 92 697 71 q 679 153 689 114 q 656 241 669 193 q 627 345 643 290 q 595 450 612 399 q 563 545 579 500 q 533 617 547 589 q 494 611 525 613 q 425 605 463 609 q 351 593 388 601 q 297 570 315 585 l 191 85 q 197 51 187 71 q 210 15 206 31 q 205 -13 214 -1 q 155 -23 195 -24 m 373 1015 q 352 921 361 970 q 336 826 343 872 q 322 742 328 780 q 311 681 316 704 q 345 684 319 681 q 403 692 372 688 q 462 703 434 697 q 500 716 490 709 q 484 749 491 731 q 463 800 476 768 q 429 882 450 831 q 373 1015 408 933 m 764 1461 q 781 1370 784 1412 q 756 1297 777 1328 q 698 1247 735 1265 q 612 1229 661 1229 q 543 1246 574 1229 q 485 1289 511 1264 q 435 1341 458 1313 q 387 1392 411 1369 q 363 1415 376 1401 q 338 1440 351 1428 q 309 1459 324 1451 q 278 1468 294 1468 q 227 1450 247 1465 q 208 1405 208 1435 q 214 1375 208 1389 q 229 1348 221 1362 q 242 1321 236 1335 q 248 1291 248 1308 q 221 1268 248 1276 q 160 1259 194 1260 q 96 1266 126 1259 q 61 1289 66 1274 q 57 1326 53 1313 q 71 1351 61 1340 q 92 1376 80 1362 q 110 1416 103 1390 q 163 1513 125 1480 q 279 1546 202 1546 q 349 1530 316 1548 q 413 1487 382 1512 q 472 1432 444 1461 q 528 1382 500 1402 q 559 1360 543 1371 q 592 1344 575 1350 q 627 1340 609 1339 q 663 1355 646 1341 q 676 1371 670 1360 q 683 1397 682 1382 q 676 1430 684 1412 q 651 1468 669 1447 q 618 1520 620 1501 q 629 1548 616 1538 q 662 1560 642 1557 q 696 1564 682 1563 q 798 1543 784 1571 q 764 1461 811 1515 z "},"":{"ha":1222,"x_min":37,"x_max":1180,"o":"m 151 26 q 60 69 83 47 q 37 111 37 91 q 52 146 38 130 q 75 170 66 161 q 136 264 102 201 q 205 410 170 328 q 279 587 241 492 q 354 772 317 681 q 425 945 391 863 q 487 1085 458 1027 q 495 1123 496 1104 q 492 1160 494 1142 q 491 1192 490 1177 q 506 1215 492 1206 q 549 1227 519 1225 q 635 1222 579 1229 q 724 1195 701 1214 q 749 1152 747 1176 q 740 1102 750 1128 q 731 1053 730 1076 l 731 1046 q 813 1122 765 1093 q 929 1150 861 1150 q 1054 1113 1005 1150 q 1131 1018 1103 1076 q 1169 890 1158 960 q 1180 755 1180 821 q 1180 721 1180 743 q 1179 677 1180 699 q 1179 640 1179 656 q 1179 621 1179 623 q 1175 574 1179 601 q 1162 524 1172 547 q 1133 485 1152 500 q 1084 469 1115 469 q 927 475 1005 472 q 770 480 849 477 q 777 441 770 467 q 796 384 784 415 q 825 320 808 353 q 861 260 842 288 q 899 216 879 233 q 937 199 918 199 q 962 203 947 199 q 990 208 977 208 q 1012 204 1004 209 q 1016 182 1020 199 q 991 107 1005 138 q 964 54 978 76 q 939 19 951 33 q 920 -1 926 5 q 891 -23 907 -15 q 859 -33 875 -31 q 833 -27 844 -34 q 823 -1 823 -20 l 823 104 q 737 224 772 170 q 680 333 703 278 q 646 447 658 388 q 632 581 635 506 q 589 593 616 585 q 534 608 563 601 q 479 616 506 614 q 435 612 453 618 l 213 118 q 211 79 210 99 q 208 43 212 58 q 191 22 203 28 q 151 26 179 16 m 760 591 q 821 576 787 583 q 892 565 856 568 q 965 562 929 562 q 1029 568 1001 562 q 1046 610 1040 581 q 1053 675 1051 640 q 1055 746 1055 711 q 1055 802 1055 781 q 1054 872 1055 827 q 1042 959 1053 917 q 1010 1032 1032 1001 q 948 1063 989 1063 q 884 1026 913 1057 q 833 951 854 996 q 795 853 811 906 q 771 750 780 800 q 760 657 762 700 q 760 591 757 614 m 614 1072 q 573 989 591 1032 q 538 899 555 945 q 507 806 522 853 q 476 715 492 760 q 503 707 483 712 q 545 696 522 701 q 592 688 568 692 q 631 685 616 684 q 643 806 633 743 q 635 913 642 849 q 614 1072 629 978 z "},"":{"ha":1222,"x_min":37,"x_max":1180,"o":"m 151 26 q 60 69 83 47 q 37 111 37 91 q 52 146 38 130 q 75 170 66 161 q 136 264 102 201 q 205 410 170 328 q 279 587 241 492 q 354 772 317 681 q 425 945 391 863 q 487 1085 458 1027 q 495 1123 496 1104 q 492 1160 494 1142 q 491 1192 490 1177 q 506 1215 492 1206 q 549 1227 519 1225 q 635 1222 579 1229 q 724 1195 701 1214 q 749 1152 747 1176 q 740 1102 750 1128 q 731 1053 730 1076 l 731 1046 q 813 1122 765 1093 q 929 1150 861 1150 q 1054 1113 1005 1150 q 1131 1018 1103 1076 q 1169 890 1158 960 q 1180 755 1180 821 q 1180 721 1180 743 q 1179 677 1180 699 q 1179 640 1179 656 q 1179 621 1179 623 q 1175 574 1179 601 q 1162 524 1172 547 q 1133 485 1152 500 q 1084 469 1115 469 q 927 475 1005 472 q 770 480 849 477 q 777 441 770 467 q 796 384 784 415 q 825 320 808 353 q 861 260 842 288 q 899 216 879 233 q 937 199 918 199 q 962 203 947 199 q 990 208 977 208 q 1012 204 1004 209 q 1016 182 1020 199 q 991 107 1005 138 q 964 54 978 76 q 939 19 951 33 q 920 -1 926 5 q 891 -23 907 -15 q 859 -33 875 -31 q 833 -27 844 -34 q 823 -1 823 -20 l 823 104 q 737 224 772 170 q 680 333 703 278 q 646 447 658 388 q 632 581 635 506 q 589 593 616 585 q 534 608 563 601 q 479 616 506 614 q 435 612 453 618 l 213 118 q 211 79 210 99 q 208 43 212 58 q 191 22 203 28 q 151 26 179 16 m 760 591 q 821 576 787 583 q 892 565 856 568 q 965 562 929 562 q 1029 568 1001 562 q 1046 610 1040 581 q 1053 675 1051 640 q 1055 746 1055 711 q 1055 802 1055 781 q 1054 872 1055 827 q 1042 959 1053 917 q 1010 1032 1032 1001 q 948 1063 989 1063 q 884 1026 913 1057 q 833 951 854 996 q 795 853 811 906 q 771 750 780 800 q 760 657 762 700 q 760 591 757 614 m 614 1072 q 573 989 591 1032 q 538 899 555 945 q 507 806 522 853 q 476 715 492 760 q 503 707 483 712 q 545 696 522 701 q 592 688 568 692 q 631 685 616 684 q 643 806 633 743 q 635 913 642 849 q 614 1072 629 978 m 1039 1462 q 1007 1448 1031 1458 q 958 1423 983 1438 q 908 1392 932 1409 q 876 1355 884 1374 q 829 1299 845 1309 q 802 1297 812 1289 q 781 1329 791 1306 q 757 1370 772 1351 q 733 1427 730 1408 q 753 1454 736 1446 q 792 1463 770 1462 q 826 1462 814 1463 q 863 1468 841 1461 q 906 1488 884 1476 q 947 1515 928 1500 q 974 1544 966 1530 q 979 1557 975 1545 q 990 1582 983 1569 q 1006 1605 997 1595 q 1028 1615 1016 1615 q 1055 1596 1040 1614 q 1086 1537 1069 1579 q 1104 1482 1100 1501 q 1104 1456 1108 1463 q 1091 1449 1100 1449 q 1073 1453 1082 1450 q 1054 1460 1063 1457 q 1039 1462 1044 1463 z "},"":{"ha":644,"x_min":22,"x_max":614,"o":"m 366 75 q 139 157 222 77 q 33 396 56 236 q 24 560 22 475 q 43 728 26 646 q 94 886 61 811 q 179 1017 127 960 q 300 1105 231 1073 q 458 1137 369 1138 q 484 1143 471 1137 q 511 1158 498 1149 q 538 1174 525 1166 q 562 1184 551 1181 q 593 1168 582 1187 q 610 1121 605 1150 q 614 1057 614 1092 q 611 991 614 1021 q 601 941 608 962 q 586 921 594 921 q 555 932 566 921 q 532 960 544 944 q 503 991 521 975 q 449 1016 484 1008 q 325 994 385 1032 q 219 884 264 955 q 148 721 174 812 q 126 540 122 629 q 160 372 132 435 q 228 275 189 309 q 309 233 267 241 q 384 229 351 224 q 413 241 400 232 q 439 262 426 251 q 467 282 452 273 q 505 294 481 292 q 531 277 522 297 q 542 224 540 256 q 540 153 544 191 q 526 80 536 114 q 503 22 517 46 q 473 -3 490 -1 q 444 4 458 -5 q 416 28 430 14 q 391 56 403 42 q 366 75 378 69 m 441 1430 q 409 1415 433 1426 q 359 1391 385 1405 q 310 1359 334 1377 q 278 1322 286 1341 q 231 1266 247 1276 q 203 1265 214 1256 q 183 1296 193 1274 q 159 1337 174 1318 q 135 1394 132 1375 q 155 1421 138 1413 q 194 1430 172 1430 q 228 1430 216 1431 q 264 1436 243 1428 q 308 1455 286 1443 q 349 1482 330 1468 q 376 1511 368 1497 q 381 1525 377 1512 q 392 1550 385 1537 q 408 1573 399 1563 q 430 1582 418 1583 q 456 1564 442 1581 q 488 1504 471 1546 q 506 1450 502 1469 q 506 1423 510 1431 q 493 1417 502 1416 q 475 1421 484 1417 q 456 1428 465 1424 q 441 1430 446 1431 z "},"":{"ha":644,"x_min":22,"x_max":614,"o":"m 366 75 q 139 157 222 77 q 33 396 56 236 q 24 560 22 475 q 43 728 26 646 q 94 886 61 811 q 179 1017 127 960 q 300 1105 231 1073 q 458 1137 369 1138 q 484 1143 471 1137 q 511 1158 498 1149 q 538 1174 525 1166 q 562 1184 551 1181 q 593 1168 582 1187 q 610 1121 605 1150 q 614 1057 614 1092 q 611 991 614 1021 q 601 941 608 962 q 586 921 594 921 q 555 932 566 921 q 532 960 544 944 q 503 991 521 975 q 449 1016 484 1008 q 325 994 385 1032 q 219 884 264 955 q 148 721 174 812 q 126 540 122 629 q 160 372 132 435 q 228 275 189 309 q 309 233 267 241 q 384 229 351 224 q 413 241 400 232 q 439 262 426 251 q 467 282 452 273 q 505 294 481 292 q 531 277 522 297 q 542 224 540 256 q 540 153 544 191 q 526 80 536 114 q 503 22 517 46 q 473 -3 490 -1 q 444 4 458 -5 q 416 28 430 14 q 391 56 403 42 q 366 75 378 69 m 583 1428 q 566 1411 576 1417 q 545 1400 556 1405 q 523 1388 534 1394 q 503 1373 511 1382 q 459 1305 484 1352 q 403 1214 434 1259 q 375 1189 389 1194 q 348 1188 361 1184 q 323 1202 335 1192 q 304 1221 312 1211 q 280 1257 293 1234 q 253 1300 267 1279 q 224 1339 239 1321 q 195 1360 209 1356 q 162 1373 184 1364 q 125 1396 140 1382 q 113 1430 110 1411 q 155 1472 115 1449 q 194 1502 175 1484 q 228 1526 213 1520 q 255 1516 243 1531 q 275 1447 267 1500 q 303 1373 281 1417 q 353 1287 326 1329 q 393 1353 376 1320 q 419 1413 411 1386 q 425 1442 425 1428 q 426 1469 426 1455 q 428 1495 426 1482 q 437 1519 430 1507 q 462 1526 444 1530 q 500 1512 480 1522 q 541 1489 521 1501 q 571 1468 560 1476 q 585 1451 578 1462 q 583 1428 591 1440 z "},"":{"ha":644,"x_min":22,"x_max":614,"o":"m 366 75 q 139 157 222 77 q 33 396 56 236 q 24 560 22 475 q 43 728 26 646 q 94 886 61 811 q 179 1017 127 960 q 300 1105 231 1073 q 458 1137 369 1138 q 484 1143 471 1137 q 511 1158 498 1149 q 538 1174 525 1166 q 562 1184 551 1181 q 593 1168 582 1187 q 610 1121 605 1150 q 614 1057 614 1092 q 611 991 614 1021 q 601 941 608 962 q 586 921 594 921 q 555 932 566 921 q 532 960 544 944 q 503 991 521 975 q 449 1016 484 1008 q 325 994 385 1032 q 219 884 264 955 q 148 721 174 812 q 126 540 122 629 q 160 372 132 435 q 228 275 189 309 q 309 233 267 241 q 384 229 351 224 q 413 241 400 232 q 439 262 426 251 q 467 282 452 273 q 505 294 481 292 q 531 277 522 297 q 542 224 540 256 q 540 153 544 191 q 526 80 536 114 q 503 22 517 46 q 473 -3 490 -1 q 444 4 458 -5 q 416 28 430 14 q 391 56 403 42 q 366 75 378 69 m 228 110 l 294 110 l 294 28 q 425 -1 385 24 q 464 -83 464 -26 q 450 -149 464 -118 q 414 -199 437 -179 q 360 -223 391 -218 q 296 -212 330 -228 q 232 -221 254 -243 q 221 -137 210 -199 q 226 -113 222 -127 q 236 -89 229 -98 q 256 -82 243 -80 q 292 -109 270 -84 q 319 -128 305 -123 q 344 -131 332 -133 q 363 -123 355 -129 q 372 -111 372 -118 q 363 -69 373 -83 q 338 -51 354 -56 q 302 -47 321 -46 q 267 -45 283 -47 q 239 -37 250 -43 q 228 -12 228 -31 l 228 110 z "},"":{"ha":644,"x_min":22,"x_max":614,"o":"m 366 75 q 139 157 222 77 q 33 396 56 236 q 24 560 22 475 q 43 728 26 646 q 94 886 61 811 q 179 1017 127 960 q 300 1105 231 1073 q 458 1137 369 1138 q 484 1143 471 1137 q 511 1158 498 1149 q 538 1174 525 1166 q 562 1184 551 1181 q 593 1168 582 1187 q 610 1121 605 1150 q 614 1057 614 1092 q 611 991 614 1021 q 601 941 608 962 q 586 921 594 921 q 555 932 566 921 q 532 960 544 944 q 503 991 521 975 q 449 1016 484 1008 q 325 994 385 1032 q 219 884 264 955 q 148 721 174 812 q 126 540 122 629 q 160 372 132 435 q 228 275 189 309 q 309 233 267 241 q 384 229 351 224 q 413 241 400 232 q 439 262 426 251 q 467 282 452 273 q 505 294 481 292 q 531 277 522 297 q 542 224 540 256 q 540 153 544 191 q 526 80 536 114 q 503 22 517 46 q 473 -3 490 -1 q 444 4 458 -5 q 416 28 430 14 q 391 56 403 42 q 366 75 378 69 m 113 1320 q 130 1337 119 1331 q 151 1348 140 1343 q 173 1359 161 1354 q 193 1375 184 1364 q 237 1442 212 1396 q 293 1534 262 1489 q 321 1559 307 1554 q 348 1560 335 1564 q 372 1546 361 1556 q 392 1527 384 1537 q 416 1491 403 1512 q 443 1448 429 1469 q 471 1409 457 1427 q 500 1388 486 1392 q 534 1375 511 1383 q 571 1352 556 1366 q 583 1318 586 1337 q 541 1276 581 1299 q 502 1246 521 1264 q 468 1222 483 1227 q 441 1232 453 1217 q 420 1301 429 1248 q 393 1375 415 1331 q 343 1461 370 1419 q 302 1395 320 1428 q 277 1335 285 1362 q 271 1305 271 1320 q 270 1278 270 1291 q 268 1253 270 1265 q 259 1229 266 1241 q 234 1222 252 1218 q 195 1236 216 1226 q 155 1259 175 1246 q 125 1280 136 1272 q 111 1297 118 1286 q 113 1320 104 1308 z "},"":{"ha":644,"x_min":22,"x_max":614,"o":"m 366 75 q 139 157 222 77 q 33 396 56 236 q 24 560 22 475 q 43 728 26 646 q 94 886 61 811 q 179 1017 127 960 q 300 1105 231 1073 q 458 1137 369 1138 q 484 1143 471 1137 q 511 1158 498 1149 q 538 1174 525 1166 q 562 1184 551 1181 q 593 1168 582 1187 q 610 1121 605 1150 q 614 1057 614 1092 q 611 991 614 1021 q 601 941 608 962 q 586 921 594 921 q 555 932 566 921 q 532 960 544 944 q 503 991 521 975 q 449 1016 484 1008 q 325 994 385 1032 q 219 884 264 955 q 148 721 174 812 q 126 540 122 629 q 160 372 132 435 q 228 275 189 309 q 309 233 267 241 q 384 229 351 224 q 413 241 400 232 q 439 262 426 251 q 467 282 452 273 q 505 294 481 292 q 531 277 522 297 q 542 224 540 256 q 540 153 544 191 q 526 80 536 114 q 503 22 517 46 q 473 -3 490 -1 q 444 4 458 -5 q 416 28 430 14 q 391 56 403 42 q 366 75 378 69 m 345 1394 q 390 1373 374 1390 q 410 1332 406 1355 q 407 1283 414 1309 q 385 1238 400 1257 q 346 1209 369 1219 q 296 1206 323 1199 q 236 1251 251 1218 q 230 1318 221 1284 q 269 1376 239 1352 q 345 1394 298 1400 z "},"":{"ha":732,"x_min":52,"x_max":700,"o":"m 52 12 q 57 28 52 20 q 70 46 62 37 q 85 68 77 56 q 96 98 92 80 q 123 278 113 183 q 137 458 134 373 q 140 609 140 548 q 138 713 140 670 q 133 784 136 755 q 129 837 130 812 q 109 959 122 917 q 83 1023 96 1001 q 62 1059 71 1046 q 53 1093 53 1072 q 73 1128 53 1115 q 123 1146 94 1141 q 186 1150 152 1152 q 251 1142 221 1149 q 300 1124 281 1135 q 320 1099 320 1112 q 314 1077 320 1084 q 300 1062 308 1070 q 282 1040 292 1054 q 266 997 273 1027 q 444 935 363 979 q 582 823 525 890 q 669 669 639 757 q 699 479 700 582 q 652 313 696 387 q 541 191 609 240 q 390 119 473 141 q 225 109 307 96 q 232 82 225 92 q 247 62 239 72 q 263 43 255 53 q 275 19 271 34 q 265 -17 279 -1 q 226 -42 251 -33 q 170 -54 201 -52 q 113 -51 140 -57 q 69 -30 87 -45 q 52 12 52 -15 m 231 252 q 304 227 264 229 q 386 236 345 224 q 465 273 427 248 q 533 328 503 297 q 581 395 563 359 q 601 468 600 431 q 577 614 602 543 q 505 743 552 686 q 392 836 458 800 q 247 872 326 871 q 233 724 236 807 q 231 555 231 640 q 233 390 232 469 q 231 252 235 311 m 627 1428 q 610 1411 620 1417 q 589 1400 600 1405 q 566 1388 578 1394 q 547 1373 555 1382 q 503 1305 528 1352 q 446 1214 477 1259 q 418 1189 433 1194 q 391 1188 404 1184 q 367 1202 378 1192 q 347 1221 355 1211 q 323 1257 336 1234 q 296 1300 311 1279 q 267 1339 282 1321 q 239 1360 252 1356 q 205 1373 228 1364 q 168 1396 183 1382 q 156 1430 153 1411 q 198 1472 159 1449 q 237 1502 218 1484 q 271 1526 256 1520 q 298 1516 286 1531 q 319 1447 311 1500 q 347 1373 324 1417 q 396 1287 369 1329 q 437 1353 419 1320 q 463 1413 454 1386 q 469 1442 468 1428 q 469 1469 469 1455 q 471 1495 469 1482 q 480 1519 473 1507 q 505 1526 487 1530 q 544 1512 524 1522 q 584 1489 564 1501 q 614 1468 604 1476 q 628 1451 621 1462 q 627 1428 635 1440 z "},"":{"ha":784,"x_min":28,"x_max":751,"o":"m 75 449 q 48 461 56 448 q 38 486 41 475 q 32 532 35 502 q 29 590 28 562 q 36 640 30 618 q 57 661 42 661 q 88 655 73 661 q 118 642 103 650 q 148 625 133 633 q 182 612 163 616 q 239 600 216 604 q 283 596 262 595 q 332 602 305 597 q 397 618 358 608 q 429 637 411 621 q 463 661 446 654 q 493 655 480 669 q 510 586 506 642 q 515 525 511 555 q 512 475 518 495 q 486 450 506 454 q 422 469 467 446 q 299 504 361 500 q 180 496 237 507 q 152 486 164 494 q 127 469 140 477 q 102 455 115 461 q 75 449 90 449 m 103 12 q 109 28 103 20 q 121 46 114 37 q 136 68 129 56 q 148 98 144 80 q 175 278 164 183 q 189 458 186 373 q 191 609 191 548 q 189 713 191 670 q 184 784 187 755 q 180 837 182 812 q 161 959 174 917 q 135 1023 148 1001 q 113 1059 122 1046 q 104 1093 104 1072 q 125 1128 104 1115 q 174 1146 145 1141 q 238 1150 203 1152 q 302 1142 273 1149 q 352 1124 332 1135 q 372 1099 372 1112 q 366 1077 372 1084 q 351 1062 359 1070 q 334 1040 343 1054 q 317 997 324 1027 q 496 935 415 979 q 633 823 576 890 q 721 669 690 757 q 750 479 751 582 q 704 313 747 387 q 593 191 661 240 q 441 119 525 141 q 277 109 358 96 q 283 82 277 92 q 298 62 290 72 q 315 43 307 53 q 327 19 323 34 q 317 -17 332 -1 q 277 -42 302 -33 q 222 -54 252 -52 q 165 -51 191 -57 q 121 -30 138 -45 q 103 12 103 -15 m 282 252 q 356 227 316 229 q 437 236 396 224 q 517 273 479 248 q 585 328 555 297 q 633 395 614 359 q 652 468 651 431 q 629 614 654 543 q 557 743 604 686 q 444 836 510 800 q 298 872 377 871 q 285 724 288 807 q 283 555 282 640 q 285 390 283 469 q 282 252 286 311 z "},"":{"ha":636,"x_min":45,"x_max":594,"o":"m 45 651 q 50 751 45 696 q 68 861 56 806 q 102 968 80 916 q 157 1061 125 1020 q 236 1126 190 1101 q 343 1150 282 1150 q 468 1113 419 1150 q 545 1018 517 1076 q 583 890 572 960 q 594 755 594 821 q 594 721 594 743 q 593 677 594 699 q 593 640 593 656 q 593 621 593 623 q 589 574 593 601 q 576 524 586 547 q 547 485 566 500 q 498 469 529 469 q 341 475 419 472 q 184 480 263 477 q 191 441 184 467 q 210 384 198 415 q 239 320 222 353 q 275 260 256 288 q 313 216 293 233 q 351 199 332 199 q 376 203 361 199 q 404 208 391 208 q 426 204 418 209 q 430 182 434 199 q 406 107 419 138 q 378 54 392 76 q 353 19 365 33 q 334 -1 340 5 q 305 -23 321 -15 q 273 -33 289 -31 q 248 -27 258 -34 q 237 -1 237 -20 l 237 104 q 144 236 180 176 q 85 357 107 296 q 54 489 62 419 q 45 651 45 559 m 174 591 q 235 576 201 583 q 307 565 270 568 q 379 562 343 562 q 444 568 415 562 q 460 610 454 581 q 467 675 465 640 q 469 746 469 711 q 469 802 469 781 q 468 872 469 827 q 456 959 467 917 q 425 1032 446 1001 q 362 1063 403 1063 q 298 1026 327 1057 q 247 951 269 996 q 210 853 225 906 q 185 750 194 800 q 174 657 176 700 q 174 591 171 614 m 437 1430 q 405 1415 429 1426 q 355 1391 381 1405 q 306 1359 330 1377 q 274 1322 282 1341 q 227 1266 243 1276 q 199 1265 210 1256 q 179 1296 189 1274 q 155 1337 170 1318 q 131 1394 127 1375 q 151 1421 134 1413 q 190 1430 168 1430 q 224 1430 212 1431 q 260 1436 239 1428 q 304 1455 282 1443 q 345 1482 326 1468 q 372 1511 363 1497 q 377 1525 373 1512 q 388 1550 381 1537 q 404 1573 395 1563 q 426 1582 414 1583 q 452 1564 438 1581 q 484 1504 467 1546 q 502 1450 498 1469 q 502 1423 506 1431 q 489 1417 498 1416 q 471 1421 480 1417 q 452 1428 461 1424 q 437 1430 442 1431 z "},"":{"ha":636,"x_min":45,"x_max":624,"o":"m 45 651 q 50 751 45 696 q 68 861 56 806 q 102 968 80 916 q 157 1061 125 1020 q 236 1126 190 1101 q 343 1150 282 1150 q 468 1113 419 1150 q 545 1018 517 1076 q 583 890 572 960 q 594 755 594 821 q 594 721 594 743 q 593 677 594 699 q 593 640 593 656 q 593 621 593 623 q 589 574 593 601 q 576 524 586 547 q 547 485 566 500 q 498 469 529 469 q 341 475 419 472 q 184 480 263 477 q 191 441 184 467 q 210 384 198 415 q 239 320 222 353 q 275 260 256 288 q 313 216 293 233 q 351 199 332 199 q 376 203 361 199 q 404 208 391 208 q 426 204 418 209 q 430 182 434 199 q 406 107 419 138 q 378 54 392 76 q 353 19 365 33 q 334 -1 340 5 q 305 -23 321 -15 q 273 -33 289 -31 q 248 -27 258 -34 q 237 -1 237 -20 l 237 104 q 144 236 180 176 q 85 357 107 296 q 54 489 62 419 q 45 651 45 559 m 174 591 q 235 576 201 583 q 307 565 270 568 q 379 562 343 562 q 444 568 415 562 q 460 610 454 581 q 467 675 465 640 q 469 746 469 711 q 469 802 469 781 q 468 872 469 827 q 456 959 467 917 q 425 1032 446 1001 q 362 1063 403 1063 q 298 1026 327 1057 q 247 951 269 996 q 210 853 225 906 q 185 750 194 800 q 174 657 176 700 q 174 591 171 614 m 616 1419 q 600 1404 609 1409 q 581 1394 590 1398 q 564 1385 572 1390 q 548 1370 555 1379 q 465 1292 517 1322 q 355 1257 414 1261 q 239 1281 297 1253 q 140 1378 182 1309 q 117 1394 134 1388 q 87 1411 99 1401 q 78 1438 75 1421 q 117 1484 81 1454 q 157 1508 133 1497 q 200 1514 182 1518 q 225 1491 218 1511 q 214 1426 232 1472 q 278 1351 240 1369 q 355 1340 316 1333 q 427 1372 393 1347 q 476 1426 460 1397 q 483 1448 483 1438 q 481 1468 483 1458 q 479 1488 479 1478 q 486 1508 479 1497 q 509 1514 492 1518 q 543 1499 525 1510 q 579 1475 562 1488 q 606 1454 597 1462 q 618 1440 613 1450 q 616 1419 624 1430 z "},"":{"ha":636,"x_min":45,"x_max":594,"o":"m 45 651 q 50 751 45 696 q 68 861 56 806 q 102 968 80 916 q 157 1061 125 1020 q 236 1126 190 1101 q 343 1150 282 1150 q 468 1113 419 1150 q 545 1018 517 1076 q 583 890 572 960 q 594 755 594 821 q 594 721 594 743 q 593 677 594 699 q 593 640 593 656 q 593 621 593 623 q 589 574 593 601 q 576 524 586 547 q 547 485 566 500 q 498 469 529 469 q 341 475 419 472 q 184 480 263 477 q 191 441 184 467 q 210 384 198 415 q 239 320 222 353 q 275 260 256 288 q 313 216 293 233 q 351 199 332 199 q 376 203 361 199 q 404 208 391 208 q 426 204 418 209 q 430 182 434 199 q 406 107 419 138 q 378 54 392 76 q 353 19 365 33 q 334 -1 340 5 q 305 -23 321 -15 q 273 -33 289 -31 q 248 -27 258 -34 q 237 -1 237 -20 l 237 104 q 144 236 180 176 q 85 357 107 296 q 54 489 62 419 q 45 651 45 559 m 174 591 q 235 576 201 583 q 307 565 270 568 q 379 562 343 562 q 444 568 415 562 q 460 610 454 581 q 467 675 465 640 q 469 746 469 711 q 469 802 469 781 q 468 872 469 827 q 456 959 467 917 q 425 1032 446 1001 q 362 1063 403 1063 q 298 1026 327 1057 q 247 951 269 996 q 210 853 225 906 q 185 750 194 800 q 174 657 176 700 q 174 591 171 614 m 579 1428 q 562 1411 572 1417 q 541 1400 552 1405 q 519 1388 530 1394 q 499 1373 507 1382 q 455 1305 480 1352 q 399 1214 430 1259 q 371 1189 385 1194 q 344 1188 357 1184 q 319 1202 331 1192 q 300 1221 308 1211 q 276 1257 289 1234 q 249 1300 263 1279 q 220 1339 235 1321 q 191 1360 205 1356 q 158 1373 180 1364 q 121 1396 136 1382 q 109 1430 106 1411 q 151 1472 111 1449 q 190 1502 171 1484 q 224 1526 209 1520 q 251 1516 239 1531 q 271 1447 263 1500 q 299 1373 277 1417 q 349 1287 321 1329 q 389 1353 372 1320 q 415 1413 407 1386 q 421 1442 420 1428 q 422 1469 422 1455 q 424 1495 422 1482 q 433 1519 426 1507 q 458 1526 439 1530 q 496 1512 476 1522 q 536 1489 517 1501 q 567 1468 556 1476 q 581 1451 574 1462 q 579 1428 587 1440 z "},"":{"ha":636,"x_min":45,"x_max":594,"o":"m 45 651 q 50 751 45 696 q 68 861 56 806 q 102 968 80 916 q 157 1061 125 1020 q 236 1126 190 1101 q 343 1150 282 1150 q 468 1113 419 1150 q 545 1018 517 1076 q 583 890 572 960 q 594 755 594 821 q 594 721 594 743 q 593 677 594 699 q 593 640 593 656 q 593 621 593 623 q 589 574 593 601 q 576 524 586 547 q 547 485 566 500 q 498 469 529 469 q 341 475 419 472 q 184 480 263 477 q 191 441 184 467 q 210 384 198 415 q 239 320 222 353 q 275 260 256 288 q 313 216 293 233 q 351 199 332 199 q 376 203 361 199 q 404 208 391 208 q 426 204 418 209 q 430 182 434 199 q 406 107 419 138 q 378 54 392 76 q 353 19 365 33 q 334 -1 340 5 q 305 -23 321 -15 q 273 -33 289 -31 q 248 -27 258 -34 q 237 -1 237 -20 l 237 104 q 144 236 180 176 q 85 357 107 296 q 54 489 62 419 q 45 651 45 559 m 174 591 q 235 576 201 583 q 307 565 270 568 q 379 562 343 562 q 444 568 415 562 q 460 610 454 581 q 467 675 465 640 q 469 746 469 711 q 469 802 469 781 q 468 872 469 827 q 456 959 467 917 q 425 1032 446 1001 q 362 1063 403 1063 q 298 1026 327 1057 q 247 951 269 996 q 210 853 225 906 q 185 750 194 800 q 174 657 176 700 q 174 591 171 614 m 57 1284 q 74 1301 64 1295 q 95 1313 84 1308 q 117 1324 106 1318 q 137 1340 129 1329 q 181 1407 156 1360 q 237 1499 206 1454 q 265 1524 251 1519 q 292 1525 279 1529 q 317 1511 305 1520 q 336 1492 328 1501 q 360 1455 347 1477 q 387 1413 373 1434 q 416 1374 401 1392 q 445 1352 430 1356 q 478 1339 456 1348 q 515 1316 500 1331 q 528 1283 530 1302 q 486 1241 525 1264 q 446 1211 465 1229 q 412 1187 427 1192 q 385 1197 397 1181 q 365 1265 373 1213 q 337 1339 359 1295 q 288 1426 315 1383 q 247 1360 264 1393 q 221 1299 229 1326 q 215 1270 216 1284 q 214 1243 214 1256 q 212 1218 214 1230 q 203 1194 210 1206 q 178 1187 197 1183 q 140 1201 160 1191 q 100 1224 119 1211 q 69 1245 80 1237 q 56 1261 62 1251 q 57 1284 49 1272 z "},"":{"ha":636,"x_min":45,"x_max":594,"o":"m 45 651 q 50 751 45 696 q 68 861 56 806 q 102 968 80 916 q 157 1061 125 1020 q 236 1126 190 1101 q 343 1150 282 1150 q 468 1113 419 1150 q 545 1018 517 1076 q 583 890 572 960 q 594 755 594 821 q 594 721 594 743 q 593 677 594 699 q 593 640 593 656 q 593 621 593 623 q 589 574 593 601 q 576 524 586 547 q 547 485 566 500 q 498 469 529 469 q 341 475 419 472 q 184 480 263 477 q 191 441 184 467 q 210 384 198 415 q 239 320 222 353 q 275 260 256 288 q 313 216 293 233 q 351 199 332 199 q 376 203 361 199 q 404 208 391 208 q 426 204 418 209 q 430 182 434 199 q 406 107 419 138 q 378 54 392 76 q 353 19 365 33 q 334 -1 340 5 q 305 -23 321 -15 q 273 -33 289 -31 q 248 -27 258 -34 q 237 -1 237 -20 l 237 104 q 144 236 180 176 q 85 357 107 296 q 54 489 62 419 q 45 651 45 559 m 174 591 q 235 576 201 583 q 307 565 270 568 q 379 562 343 562 q 444 568 415 562 q 460 610 454 581 q 467 675 465 640 q 469 746 469 711 q 469 802 469 781 q 468 872 469 827 q 456 959 467 917 q 425 1032 446 1001 q 362 1063 403 1063 q 298 1026 327 1057 q 247 951 269 996 q 210 853 225 906 q 185 750 194 800 q 174 657 176 700 q 174 591 171 614 m 208 1394 q 253 1373 237 1390 q 273 1332 269 1355 q 270 1283 277 1309 q 248 1238 263 1257 q 209 1209 232 1219 q 159 1206 186 1199 q 99 1251 114 1218 q 93 1318 84 1284 q 132 1376 102 1352 q 208 1394 161 1400 m 475 1397 q 537 1360 519 1390 q 549 1297 555 1331 q 516 1237 543 1263 q 448 1215 490 1211 q 401 1234 419 1218 q 377 1270 384 1249 q 373 1316 370 1291 q 388 1359 376 1340 q 422 1390 400 1378 q 475 1397 444 1401 z "},"":{"ha":636,"x_min":45,"x_max":594,"o":"m 45 651 q 50 751 45 696 q 68 861 56 806 q 102 968 80 916 q 157 1061 125 1020 q 236 1126 190 1101 q 343 1150 282 1150 q 468 1113 419 1150 q 545 1018 517 1076 q 583 890 572 960 q 594 755 594 821 q 594 721 594 743 q 593 677 594 699 q 593 640 593 656 q 593 621 593 623 q 589 574 593 601 q 576 524 586 547 q 547 485 566 500 q 498 469 529 469 q 341 475 419 472 q 184 480 263 477 q 191 441 184 467 q 210 384 198 415 q 239 320 222 353 q 275 260 256 288 q 313 216 293 233 q 351 199 332 199 q 376 203 361 199 q 404 208 391 208 q 426 204 418 209 q 430 182 434 199 q 406 107 419 138 q 378 54 392 76 q 353 19 365 33 q 334 -1 340 5 q 305 -23 321 -15 q 273 -33 289 -31 q 248 -27 258 -34 q 237 -1 237 -20 l 237 104 q 144 236 180 176 q 85 357 107 296 q 54 489 62 419 q 45 651 45 559 m 174 591 q 235 576 201 583 q 307 565 270 568 q 379 562 343 562 q 444 568 415 562 q 460 610 454 581 q 467 675 465 640 q 469 746 469 711 q 469 802 469 781 q 468 872 469 827 q 456 959 467 917 q 425 1032 446 1001 q 362 1063 403 1063 q 298 1026 327 1057 q 247 951 269 996 q 210 853 225 906 q 185 750 194 800 q 174 657 176 700 q 174 591 171 614 m 340 1394 q 386 1373 370 1390 q 406 1332 401 1355 q 403 1283 410 1309 q 380 1238 396 1257 q 342 1209 365 1219 q 292 1206 319 1199 q 232 1251 247 1218 q 226 1318 217 1284 q 264 1376 235 1352 q 340 1394 294 1400 z "},"":{"ha":636,"x_min":45,"x_max":594,"o":"m 45 651 q 50 751 45 696 q 68 861 56 806 q 102 968 80 916 q 157 1061 125 1020 q 236 1126 190 1101 q 343 1150 282 1150 q 468 1113 419 1150 q 545 1018 517 1076 q 583 890 572 960 q 594 755 594 821 q 594 721 594 743 q 593 677 594 699 q 593 640 593 656 q 593 621 593 623 q 589 574 593 601 q 576 524 586 547 q 547 485 566 500 q 498 469 529 469 q 341 475 419 472 q 184 480 263 477 q 191 441 184 467 q 210 384 198 415 q 239 320 222 353 q 275 260 256 288 q 313 216 293 233 q 351 199 332 199 q 376 203 361 199 q 404 208 391 208 q 426 204 418 209 q 430 182 434 199 q 406 107 419 138 q 378 54 392 76 q 353 19 365 33 q 334 -1 340 5 q 305 -23 321 -15 q 273 -33 289 -31 q 248 -27 258 -34 q 237 -1 237 -20 l 237 104 q 144 236 180 176 q 85 357 107 296 q 54 489 62 419 q 45 651 45 559 m 174 591 q 235 576 201 583 q 307 565 270 568 q 379 562 343 562 q 444 568 415 562 q 460 610 454 581 q 467 675 465 640 q 469 746 469 711 q 469 802 469 781 q 468 872 469 827 q 456 959 467 917 q 425 1032 446 1001 q 362 1063 403 1063 q 298 1026 327 1057 q 247 951 269 996 q 210 853 225 906 q 185 750 194 800 q 174 657 176 700 q 174 591 171 614 m 248 1430 q 233 1428 243 1431 q 214 1421 224 1424 q 196 1417 205 1417 q 183 1423 187 1416 q 182 1450 179 1431 q 201 1504 186 1469 q 232 1564 217 1546 q 259 1582 247 1581 q 281 1573 271 1583 q 297 1550 290 1563 q 308 1525 304 1537 q 313 1511 312 1512 q 340 1482 321 1497 q 381 1455 359 1468 q 425 1436 403 1443 q 461 1430 446 1428 q 495 1430 473 1431 q 534 1421 517 1430 q 553 1394 551 1413 q 530 1337 556 1375 q 506 1296 515 1318 q 486 1265 496 1274 q 458 1266 475 1256 q 411 1322 441 1276 q 379 1359 403 1341 q 330 1391 355 1377 q 280 1415 304 1405 q 248 1430 256 1426 z "},"":{"ha":636,"x_min":-5,"x_max":635,"o":"m 45 651 q 50 751 45 696 q 68 861 56 806 q 102 968 80 916 q 157 1061 125 1020 q 236 1126 190 1101 q 343 1150 282 1150 q 468 1113 419 1150 q 545 1018 517 1076 q 583 890 572 960 q 594 755 594 821 q 594 721 594 743 q 593 677 594 699 q 593 640 593 656 q 593 621 593 623 q 589 574 593 601 q 576 524 586 547 q 547 485 566 500 q 498 469 529 469 q 341 475 419 472 q 184 480 263 477 q 191 441 184 467 q 210 384 198 415 q 239 320 222 353 q 275 260 256 288 q 313 216 293 233 q 351 199 332 199 q 376 203 361 199 q 404 208 391 208 q 426 204 418 209 q 430 182 434 199 q 406 107 419 138 q 378 54 392 76 q 353 19 365 33 q 334 -1 340 5 q 305 -23 321 -15 q 273 -33 289 -31 q 248 -27 258 -34 q 237 -1 237 -20 l 237 104 q 144 236 180 176 q 85 357 107 296 q 54 489 62 419 q 45 651 45 559 m 174 591 q 235 576 201 583 q 307 565 270 568 q 379 562 343 562 q 444 568 415 562 q 460 610 454 581 q 467 675 465 640 q 469 746 469 711 q 469 802 469 781 q 468 872 469 827 q 456 959 467 917 q 425 1032 446 1001 q 362 1063 403 1063 q 298 1026 327 1057 q 247 951 269 996 q 210 853 225 906 q 185 750 194 800 q 174 657 176 700 q 174 591 171 614 m 41 1215 q 14 1227 22 1214 q 4 1252 7 1241 q -2 1298 1 1268 q -5 1356 -5 1328 q 2 1406 -4 1385 q 23 1427 8 1427 q 54 1421 39 1427 q 84 1408 69 1416 q 114 1391 99 1400 q 148 1378 129 1382 q 228 1366 182 1370 q 325 1363 274 1362 q 425 1370 376 1364 q 514 1386 475 1375 q 545 1405 528 1389 q 580 1429 563 1421 q 610 1423 597 1436 q 627 1354 623 1409 q 631 1293 628 1322 q 629 1242 635 1263 q 603 1218 623 1222 q 538 1237 583 1214 q 453 1260 507 1252 q 340 1271 399 1268 q 229 1271 282 1274 q 146 1263 175 1268 q 118 1252 130 1260 q 94 1236 106 1244 q 68 1221 81 1227 q 41 1215 56 1215 z "},"":{"ha":636,"x_min":45,"x_max":594,"o":"m 45 651 q 50 751 45 696 q 68 861 56 806 q 102 968 80 916 q 157 1061 125 1020 q 236 1126 190 1101 q 343 1150 282 1150 q 468 1113 419 1150 q 545 1018 517 1076 q 583 890 572 960 q 594 755 594 821 q 594 721 594 743 q 593 677 594 699 q 593 640 593 656 q 593 621 593 623 q 589 574 593 601 q 576 524 586 547 q 547 485 566 500 q 498 469 529 469 q 341 475 419 472 q 184 480 263 477 q 191 441 184 467 q 210 384 198 415 q 239 320 222 353 q 275 260 256 288 q 313 216 293 233 q 351 199 332 199 q 376 203 361 199 q 404 208 391 208 q 426 204 418 209 q 430 182 434 199 q 406 107 419 138 q 378 54 392 76 q 353 19 365 33 q 334 -1 340 5 q 305 -23 321 -15 q 273 -33 289 -31 q 248 -27 258 -34 q 237 -1 237 -20 l 237 104 q 144 236 180 176 q 85 357 107 296 q 54 489 62 419 q 45 651 45 559 m 174 591 q 235 576 201 583 q 307 565 270 568 q 379 562 343 562 q 444 568 415 562 q 460 610 454 581 q 467 675 465 640 q 469 746 469 711 q 469 802 469 781 q 468 872 469 827 q 456 959 467 917 q 425 1032 446 1001 q 362 1063 403 1063 q 298 1026 327 1057 q 247 951 269 996 q 210 853 225 906 q 185 750 194 800 q 174 657 176 700 q 174 591 171 614 m 382 -278 q 285 -302 330 -305 q 209 -273 240 -298 q 161 -203 178 -247 q 149 -103 145 -159 q 162 -55 151 -81 q 191 -1 174 -28 q 230 54 208 27 q 275 100 252 80 l 335 45 q 306 3 323 27 q 275 -49 289 -22 q 254 -103 260 -76 q 256 -152 247 -130 q 272 -170 260 -161 q 301 -182 283 -179 q 340 -178 319 -184 q 381 -148 361 -171 q 437 -106 416 -110 q 470 -115 458 -102 q 486 -152 481 -129 q 494 -191 491 -175 q 479 -307 510 -289 q 382 -278 449 -326 z "},"":{"ha":712,"x_min":15,"x_max":703,"o":"m 22 650 q 50 885 15 777 q 149 1065 84 993 q 299 1164 213 1137 q 483 1160 385 1192 q 522 1154 495 1156 q 577 1148 549 1153 q 625 1132 605 1143 q 646 1096 646 1120 q 637 1046 646 1074 q 615 991 629 1017 q 581 947 601 966 q 540 929 562 929 q 517 938 524 929 q 509 960 511 947 q 507 990 507 974 q 501 1021 507 1006 q 481 1047 495 1036 q 441 1062 468 1058 q 373 1061 408 1066 q 305 1042 338 1055 q 246 1011 273 1029 q 205 971 220 993 q 142 843 168 917 q 113 677 115 769 q 128 513 110 586 q 171 366 146 439 q 212 287 186 323 q 271 224 239 251 q 338 183 304 198 q 400 168 372 168 q 514 201 464 168 q 575 294 564 233 q 581 369 581 328 q 579 450 582 410 q 569 528 576 491 q 551 591 562 566 q 487 572 515 585 q 438 543 458 559 q 404 512 418 528 q 382 484 389 496 q 340 444 359 445 q 304 463 320 442 q 277 522 289 484 q 259 600 266 559 q 266 648 252 637 q 300 657 279 659 q 343 647 321 655 q 374 639 365 639 q 477 659 430 639 q 586 712 525 680 q 604 717 593 716 q 629 712 616 718 q 653 692 642 707 q 671 651 665 678 q 700 428 697 536 q 675 237 703 320 q 583 102 647 153 q 411 50 519 52 q 281 78 338 49 q 182 155 224 107 q 111 264 140 202 q 62 394 81 327 q 34 528 43 461 q 22 650 24 594 m 675 1419 q 659 1404 669 1409 q 641 1394 650 1398 q 623 1385 632 1390 q 608 1370 614 1379 q 525 1292 576 1322 q 415 1257 473 1261 q 299 1281 357 1253 q 199 1378 241 1309 q 176 1394 194 1388 q 146 1411 159 1401 q 138 1438 134 1421 q 176 1484 141 1454 q 217 1508 193 1497 q 260 1514 241 1518 q 285 1491 278 1511 q 274 1426 292 1472 q 338 1351 300 1369 q 414 1340 376 1333 q 486 1372 453 1347 q 536 1426 519 1397 q 543 1448 543 1438 q 541 1468 543 1458 q 538 1488 538 1478 q 545 1508 538 1497 q 568 1514 552 1518 q 603 1499 585 1510 q 639 1475 621 1488 q 666 1454 656 1462 q 678 1440 673 1450 q 675 1419 684 1430 z "},"":{"ha":726,"x_min":27,"x_max":715,"o":"m 34 650 q 62 885 27 777 q 161 1065 96 993 q 311 1164 225 1137 q 495 1160 397 1192 q 534 1154 507 1156 q 589 1148 562 1153 q 637 1132 617 1143 q 658 1096 658 1120 q 650 1046 658 1074 q 627 991 642 1017 q 593 947 613 966 q 552 929 574 929 q 530 938 536 929 q 522 960 524 947 q 519 990 519 974 q 513 1021 519 1006 q 494 1047 507 1036 q 453 1062 480 1058 q 385 1061 420 1066 q 317 1042 350 1055 q 258 1011 285 1029 q 217 971 232 993 q 154 843 180 917 q 125 677 127 769 q 140 513 122 586 q 183 366 159 439 q 224 287 198 323 q 283 224 251 251 q 350 183 316 198 q 412 168 384 168 q 526 201 476 168 q 587 294 576 233 q 593 369 593 328 q 591 450 594 410 q 581 528 589 491 q 563 591 574 566 q 499 572 528 585 q 450 543 471 559 q 416 512 430 528 q 395 484 401 496 q 352 444 372 445 q 317 463 332 442 q 290 522 301 484 q 271 600 278 559 q 278 648 264 637 q 313 657 292 659 q 355 647 334 655 q 387 639 377 639 q 490 659 442 639 q 598 712 537 680 q 616 717 605 716 q 641 712 628 718 q 665 692 654 707 q 684 651 677 678 q 712 428 709 536 q 687 237 715 320 q 595 102 659 153 q 423 50 532 52 q 293 78 350 49 q 194 155 236 107 q 123 264 152 202 q 75 394 94 327 q 46 528 56 461 q 34 650 37 594 m 170 1332 q 186 1349 176 1343 q 208 1360 197 1355 q 230 1371 218 1366 q 250 1388 241 1377 q 294 1455 269 1408 q 350 1546 319 1501 q 378 1571 363 1567 q 405 1572 392 1576 q 429 1558 418 1568 q 449 1539 441 1549 q 473 1503 460 1525 q 500 1460 486 1481 q 528 1421 514 1439 q 557 1400 543 1404 q 591 1387 568 1396 q 628 1364 613 1378 q 640 1331 643 1350 q 598 1289 637 1312 q 559 1258 578 1276 q 525 1234 540 1240 q 498 1244 510 1229 q 477 1313 486 1260 q 450 1387 472 1343 q 400 1473 427 1431 q 359 1407 377 1440 q 334 1347 342 1374 q 328 1318 328 1332 q 327 1291 327 1303 q 325 1265 327 1278 q 316 1241 323 1253 q 291 1234 309 1230 q 252 1249 273 1238 q 212 1272 232 1259 q 182 1293 193 1284 q 168 1309 175 1298 q 170 1332 161 1320 z "},"":{"ha":719,"x_min":22,"x_max":709,"o":"m 28 650 q 56 885 22 777 q 155 1065 91 993 q 306 1164 220 1137 q 490 1160 392 1192 q 529 1154 502 1156 q 584 1148 556 1153 q 632 1132 612 1143 q 652 1096 652 1120 q 644 1046 652 1074 q 622 991 636 1017 q 588 947 608 966 q 547 929 568 929 q 524 938 530 929 q 516 960 518 947 q 514 990 514 974 q 508 1021 514 1006 q 488 1047 502 1036 q 448 1062 475 1058 q 380 1061 415 1066 q 312 1042 345 1055 q 253 1011 279 1029 q 212 971 227 993 q 149 843 175 917 q 119 677 122 769 q 135 513 117 586 q 178 366 153 439 q 219 287 193 323 q 278 224 245 251 q 345 183 311 198 q 407 168 378 168 q 521 201 471 168 q 582 294 571 233 q 588 369 587 328 q 586 450 589 410 q 576 528 583 491 q 557 591 568 566 q 494 572 522 585 q 445 543 465 559 q 410 512 425 528 q 389 484 396 496 q 347 444 366 445 q 311 463 327 442 q 284 522 296 484 q 266 600 273 559 q 273 648 259 637 q 307 657 286 659 q 350 647 328 655 q 381 639 372 639 q 484 659 437 639 q 593 712 532 680 q 611 717 600 716 q 635 712 623 718 q 660 692 648 707 q 678 651 671 678 q 707 428 704 536 q 682 237 709 320 q 590 102 654 153 q 418 50 526 52 q 288 78 345 49 q 189 155 231 107 q 117 264 146 202 q 69 394 88 327 q 41 528 50 461 q 28 650 31 594 m 401 -285 q 385 -286 392 -289 q 372 -276 377 -282 q 367 -262 368 -270 q 369 -250 366 -255 q 392 -201 381 -228 q 396 -144 403 -175 q 351 -140 369 -148 q 324 -120 334 -133 q 311 -90 315 -107 q 308 -57 308 -73 q 338 4 308 -16 q 403 20 368 24 q 468 -16 438 15 q 498 -110 498 -47 q 469 -222 498 -175 q 401 -285 439 -269 z "},"":{"ha":716,"x_min":19,"x_max":707,"o":"m 26 650 q 54 885 19 777 q 153 1065 88 993 q 303 1164 217 1137 q 487 1160 389 1192 q 526 1154 499 1156 q 581 1148 553 1153 q 629 1132 609 1143 q 650 1096 650 1120 q 642 1046 650 1074 q 619 991 633 1017 q 585 947 605 966 q 544 929 566 929 q 522 938 528 929 q 513 960 515 947 q 511 990 511 974 q 505 1021 511 1006 q 486 1047 499 1036 q 445 1062 472 1058 q 377 1061 412 1066 q 309 1042 342 1055 q 250 1011 277 1029 q 209 971 224 993 q 146 843 172 917 q 117 677 119 769 q 132 513 114 586 q 175 366 151 439 q 216 287 190 323 q 275 224 243 251 q 342 183 308 198 q 404 168 376 168 q 518 201 468 168 q 579 294 568 233 q 585 369 585 328 q 583 450 586 410 q 573 528 581 491 q 555 591 566 566 q 491 572 519 585 q 442 543 463 559 q 408 512 422 528 q 387 484 393 496 q 344 444 363 445 q 309 463 324 442 q 281 522 293 484 q 263 600 270 559 q 270 648 256 637 q 304 657 283 659 q 347 647 326 655 q 378 639 369 639 q 481 659 434 639 q 590 712 529 680 q 608 717 597 716 q 633 712 620 718 q 657 692 646 707 q 675 651 669 678 q 704 428 701 536 q 679 237 707 320 q 587 102 651 153 q 415 50 524 52 q 285 78 342 49 q 186 155 228 107 q 115 264 144 202 q 66 394 85 327 q 38 528 47 461 q 26 650 28 594 m 403 1394 q 448 1373 433 1390 q 468 1332 464 1355 q 465 1283 472 1309 q 443 1238 458 1257 q 404 1209 427 1219 q 354 1206 381 1199 q 294 1251 309 1218 q 288 1318 279 1284 q 327 1376 297 1352 q 403 1394 357 1400 z "},"":{"ha":1001,"x_min":33,"x_max":964,"o":"m 79 681 q 52 693 60 680 q 42 718 45 707 q 36 764 39 734 q 33 822 33 793 q 40 871 34 850 q 61 892 46 892 q 92 887 77 892 q 122 873 107 882 q 152 857 137 865 q 186 844 167 848 q 258 836 208 838 q 372 834 308 834 q 509 837 437 834 q 646 844 581 840 q 764 855 712 849 q 844 868 817 861 q 875 887 857 871 q 909 911 892 903 q 939 905 926 918 q 956 836 952 891 q 961 774 958 804 q 958 724 964 745 q 932 700 952 704 q 868 719 913 696 q 794 734 848 728 q 671 743 741 741 q 524 744 602 745 q 377 741 446 743 q 256 736 308 739 q 184 728 203 732 q 156 718 168 726 q 132 701 144 709 q 106 687 119 693 q 79 681 94 681 m 642 33 q 649 60 642 49 q 666 85 656 72 q 684 113 675 98 q 692 149 692 127 q 692 214 692 178 q 692 287 693 251 q 688 355 690 323 q 678 407 685 387 q 596 410 643 408 q 500 412 549 412 q 405 407 450 412 q 330 388 359 401 q 323 356 324 377 q 327 313 323 335 q 339 271 331 290 q 358 244 347 252 q 389 207 382 225 q 389 172 395 189 q 368 141 384 155 q 332 119 353 127 q 291 104 317 114 q 237 90 264 95 q 188 92 210 85 q 161 125 165 98 q 164 164 157 148 q 181 203 171 180 q 200 258 191 225 q 209 350 209 292 q 197 616 209 484 q 172 886 184 749 q 157 934 170 914 q 131 970 145 954 q 106 1001 117 986 q 95 1035 95 1016 q 122 1078 95 1062 q 185 1100 149 1093 q 258 1106 221 1107 q 313 1101 294 1105 q 339 1075 339 1095 q 329 1031 339 1055 q 306 981 319 1006 q 293 939 293 956 q 300 726 293 833 q 311 503 307 618 q 338 494 312 498 q 401 490 363 491 q 481 491 438 490 q 564 496 525 492 q 633 507 604 500 q 670 522 662 513 q 677 596 674 553 q 681 684 680 639 q 683 771 682 728 q 684 845 684 814 q 677 956 684 914 q 663 1023 671 998 q 644 1061 654 1048 q 626 1084 635 1074 q 611 1106 617 1095 q 604 1141 605 1118 q 621 1173 602 1160 q 668 1192 640 1185 q 729 1197 696 1198 q 791 1191 762 1196 q 839 1175 819 1185 q 859 1150 859 1165 q 849 1109 859 1124 q 827 1078 840 1093 q 803 1040 814 1062 q 791 982 792 1019 q 780 755 781 856 q 782 562 779 654 q 792 381 785 471 q 806 186 799 292 q 820 155 807 167 q 847 132 833 142 q 873 111 861 122 q 884 81 884 99 q 862 41 884 57 q 810 14 840 24 q 749 0 780 4 q 703 -4 719 -4 q 662 1 682 -4 q 642 33 642 7 z "},"":{"ha":825,"x_min":20,"x_max":810,"o":"m 567 33 q 574 60 567 49 q 591 85 582 72 q 609 113 601 98 q 617 149 617 127 q 618 214 617 178 q 617 287 618 251 q 613 355 616 323 q 604 407 610 387 q 522 410 568 408 q 425 412 475 412 q 330 407 376 412 q 255 388 285 401 q 249 356 250 377 q 252 313 248 335 q 264 271 256 290 q 283 244 273 252 q 314 207 308 225 q 315 172 320 189 q 294 141 309 155 q 258 119 278 127 q 216 104 243 114 q 163 90 190 95 q 113 92 136 85 q 87 125 91 98 q 90 164 83 148 q 106 203 96 180 q 125 258 117 225 q 134 350 134 292 q 122 616 134 484 q 98 886 110 749 q 83 934 95 914 q 56 970 71 954 q 31 1001 42 986 q 20 1035 20 1016 q 47 1078 20 1062 q 111 1100 75 1093 q 183 1106 146 1107 q 239 1101 220 1105 q 264 1075 264 1095 q 254 1031 264 1055 q 231 981 244 1006 q 218 939 218 956 q 225 726 218 833 q 236 503 232 618 q 263 494 237 498 q 326 490 289 491 q 407 491 363 490 q 490 496 450 492 q 558 507 529 500 q 595 522 587 513 q 602 596 600 553 q 606 684 605 639 q 608 771 608 728 q 609 845 609 814 q 602 956 608 914 q 588 1023 597 998 q 570 1061 579 1048 q 551 1084 560 1074 q 536 1106 543 1095 q 529 1141 530 1118 q 547 1173 528 1160 q 593 1192 566 1185 q 654 1197 621 1198 q 716 1191 688 1196 q 764 1175 745 1185 q 784 1150 784 1165 q 774 1109 784 1124 q 752 1078 765 1093 q 728 1040 739 1062 q 716 982 718 1019 q 705 755 707 856 q 707 562 704 654 q 718 381 711 471 q 731 186 724 292 q 745 155 732 167 q 772 132 758 142 q 798 111 787 122 q 810 81 810 99 q 787 41 810 57 q 735 14 765 24 q 675 0 705 4 q 628 -4 644 -4 q 587 1 608 -4 q 567 33 567 7 m 151 1284 q 168 1301 157 1295 q 189 1313 178 1308 q 211 1324 199 1318 q 231 1340 222 1329 q 275 1407 250 1360 q 331 1499 300 1454 q 359 1524 345 1519 q 386 1525 373 1529 q 410 1511 399 1520 q 430 1492 422 1501 q 454 1455 441 1477 q 481 1413 467 1434 q 509 1374 495 1392 q 538 1352 524 1356 q 572 1339 549 1348 q 609 1316 594 1331 q 621 1283 624 1302 q 579 1241 618 1264 q 540 1211 559 1229 q 506 1187 521 1192 q 479 1197 491 1181 q 458 1265 467 1213 q 431 1339 453 1295 q 381 1426 408 1383 q 340 1360 358 1393 q 315 1299 323 1326 q 309 1270 309 1284 q 308 1243 308 1256 q 306 1218 308 1230 q 297 1194 304 1206 q 272 1187 290 1183 q 233 1201 254 1191 q 193 1224 213 1211 q 163 1245 174 1237 q 149 1261 156 1251 q 151 1284 142 1272 z "}}}
